<?xml version="1.0" encoding="utf-8"?>
<!-- Generator: Adobe Illustrator 19.1.0, SVG Export Plug-In . SVG Version: 6.00 Build 0)  -->
<!DOCTYPE svg PUBLIC "-//W3C//DTD SVG 1.1//EN" "http://www.w3.org/Graphics/SVG/1.1/DTD/svg11.dtd">
<svg version="1.1" id="Layer_1" xmlns="http://www.w3.org/2000/svg" xmlns:xlink="http://www.w3.org/1999/xlink" x="0px" y="0px"
	 viewBox="0 0 425.2 675" style="enable-background:new 0 0 425.2 675;" xml:space="preserve">
<style type="text/css">
	.st0{fill:#CAC9C9;}
	.st1{opacity:0.2;}
	.st2{fill:#231F20;}
	.st3{fill:#F1817D;}
	.st4{fill:#82B1D8;}
	.st5{fill:#73C5A4;}
	.st6{opacity:0.5;}
	.st7{fill:#AA9CB5;}
	.st8{fill:url(#SVGID_1_);}
	.st9{fill:#566E83;}
	.st10{fill:url(#SVGID_2_);}
</style>
<g>
	<g>
		<rect x="18.7" y="539.4" class="st0" width="361.9" height="22.5"/>
		<rect x="18.7" y="576.8" class="st0" width="378.2" height="22.5"/>
		<rect x="18.7" y="614.2" class="st0" width="347.6" height="22.5"/>
		<g>
			<g>
				<g class="st1">
					<path class="st2" d="M285.5,599.3H17.9c-4.8,0-8.6-3.9-8.6-8.6l0-5.2c0-4.8,3.9-8.6,8.6-8.6h267.6c4.8,0,8.6,3.9,8.6,8.6v5.2
						C294.1,595.4,290.2,599.3,285.5,599.3z"/>
				</g>
				<g>
					<path class="st3" d="M282.9,599.3H15.3c-4.8,0-8.6-3.9-8.6-8.6l0-5.2c0-4.8,3.9-8.6,8.6-8.6h267.6c4.8,0,8.6,3.9,8.6,8.6v5.2
						C291.5,595.4,287.6,599.3,282.9,599.3z"/>
				</g>
			</g>
		</g>
		<g>
			<g class="st1">
				<path class="st2" d="M107.4,636.6H16.7c-4.8,0-8.6-3.9-8.6-8.6l0-5.2c0-4.8,3.9-8.6,8.6-8.6h90.7c4.8,0,8.6,3.9,8.6,8.6v5.2
					C116,632.8,112.2,636.6,107.4,636.6z"/>
			</g>
			<g>
				<path class="st4" d="M106,636.6H15.3c-4.8,0-8.6-3.9-8.6-8.6l0-5.2c0-4.8,3.9-8.6,8.6-8.6H106c4.8,0,8.6,3.9,8.6,8.6v5.2
					C114.7,632.8,110.8,636.6,106,636.6z"/>
			</g>
		</g>
	</g>
	<g>
		<rect x="20.8" y="464.8" class="st0" width="242.7" height="22.5"/>
		<rect x="20.8" y="352.7" class="st0" width="347.6" height="22.5"/>
		<rect x="20.8" y="427.4" class="st0" width="361.9" height="22.5"/>
		<rect x="20.8" y="203.2" class="st0" width="361.9" height="22.5"/>
		<rect x="20.8" y="390" class="st0" width="378.2" height="22.5"/>
		<rect x="20.8" y="240.6" class="st0" width="378.2" height="22.5"/>
		<rect x="20.8" y="315.3" class="st0" width="331.7" height="22.5"/>
		<rect x="20.8" y="278" class="st0" width="347.6" height="22.5"/>
		<g>
			<g class="st1">
				<path class="st2" d="M180.7,487.2H20c-4.8,0-8.6-3.9-8.6-8.6l0-5.2c0-4.8,3.9-8.6,8.6-8.6h160.7c4.8,0,8.6,3.9,8.6,8.6v5.2
					C189.3,483.4,185.4,487.2,180.7,487.2z"/>
			</g>
			<g>
				<path class="st3" d="M178.1,487.2H17.4c-4.8,0-8.6-3.9-8.6-8.6l0-5.2c0-4.8,3.9-8.6,8.6-8.6h160.7c4.8,0,8.6,3.9,8.6,8.6v5.2
					C186.7,483.4,182.8,487.2,178.1,487.2z"/>
			</g>
		</g>
		<g>
			<g class="st1">
				<path class="st2" d="M319,315.3H20c-4.8,0-8.6,3.9-8.6,8.6v5.2c0,4.8,3.9,8.6,8.6,8.6h299c4.8,0,8.6-3.9,8.6-8.6v-5.2
					C327.7,319.1,323.8,315.3,319,315.3z"/>
			</g>
			<g>
				<path class="st5" d="M316.4,315.3h-299c-4.8,0-8.6,3.9-8.6,8.6v5.2c0,4.8,3.9,8.6,8.6,8.6h299c4.8,0,8.6-3.9,8.6-8.6v-5.2
					C325.1,319.1,321.2,315.3,316.4,315.3z"/>
			</g>
		</g>
		<g>
			<g class="st1">
				<path class="st2" d="M381.4,278H16.5c-4.8,0-8.6,3.9-8.6,8.6v5.2c0,4.8,3.9,8.6,8.6,8.6h364.9c4.8,0,8.6-3.9,8.6-8.6v-5.2
					C390,281.8,386.2,278,381.4,278z"/>
			</g>
			<g>
				<path class="st5" d="M378.8,278H13.9c-4.8,0-8.6,3.9-8.6,8.6v5.2c0,4.8,3.9,8.6,8.6,8.6h364.9c4.8,0,8.6-3.9,8.6-8.6v-5.2
					C387.4,281.8,383.6,278,378.8,278z"/>
			</g>
		</g>
		<g>
			<g class="st1">
				<path class="st2" d="M411.3,240.6H16.5c-4.8,0-8.6,3.9-8.6,8.6v5.2c0,4.8,3.9,8.6,8.6,8.6h394.7c4.8,0,8.6-3.9,8.6-8.6v-5.2
					C419.9,244.4,416.1,240.6,411.3,240.6z"/>
			</g>
			<g>
				<path class="st5" d="M408.7,240.6H13.9c-4.8,0-8.6,3.9-8.6,8.6v5.2c0,4.8,3.9,8.6,8.6,8.6h394.7c4.8,0,8.6-3.9,8.6-8.6v-5.2
					C417.3,244.4,413.5,240.6,408.7,240.6z"/>
			</g>
		</g>
		<g>
			<g class="st1">
				<path class="st2" d="M411.3,203.2H16.5c-4.8,0-8.6,3.9-8.6,8.6v5.2c0,4.8,3.9,8.6,8.6,8.6h394.7c4.8,0,8.6-3.9,8.6-8.6v-5.2
					C419.9,207.1,416.1,203.2,411.3,203.2z"/>
			</g>
			<g>
				<path class="st5" d="M408.7,203.2H13.9c-4.8,0-8.6,3.9-8.6,8.6v5.2c0,4.8,3.9,8.6,8.6,8.6h394.7c4.8,0,8.6-3.9,8.6-8.6v-5.2
					C417.3,207.1,413.5,203.2,408.7,203.2z"/>
			</g>
		</g>
		<g class="st6">
			<path d="M15.2,208.1c-0.2-0.2-0.5-0.3-0.8-0.3c-0.3,0-0.6,0.1-0.8,0.3c-0.2,0.2-0.3,0.5-0.3,0.8c0,0.2,0.1,0.4,0.2,0.6
				c0.1,0.2,0.2,0.3,0.4,0.4v11.1c0,0.1,0,0.1,0.1,0.2c0.1,0.1,0.1,0.1,0.2,0.1h0.6c0.1,0,0.1,0,0.2-0.1c0.1-0.1,0.1-0.1,0.1-0.2
				v-11.1c0.2-0.1,0.3-0.2,0.4-0.4c0.1-0.2,0.2-0.4,0.2-0.6C15.5,208.6,15.4,208.3,15.2,208.1z"/>
			<path d="M28.1,208.9c-0.2-0.1-0.4-0.1-0.5,0c-0.1,0-0.1,0.1-0.3,0.1c-1.1,0.7-2,1-2.7,1c-0.3,0-0.6-0.1-0.8-0.2
				c-0.7-0.3-1.3-0.6-1.8-0.8c-0.6-0.2-1.2-0.3-1.8-0.3c-0.4,0-0.9,0.1-1.4,0.2c-0.5,0.1-0.9,0.3-1.3,0.4c-0.4,0.2-0.7,0.3-1,0.5
				c0,0-0.1,0-0.1,0.1c-0.2,0.1-0.4,0.2-0.6,0.3c-0.2,0.1-0.3,0.3-0.3,0.5v6.5c0,0.2,0.1,0.4,0.3,0.5c0.1,0,0.2,0.1,0.3,0.1
				c0.1,0,0.2,0,0.3-0.1c0,0,0,0,0,0c0.6-0.3,1.2-0.6,2-0.9c0.8-0.3,1.5-0.4,2.1-0.4c0.3,0,0.7,0,1,0.1c0.3,0.1,0.6,0.2,0.8,0.3
				c0.2,0.1,0.5,0.2,0.9,0.4l0.2,0.1c0.4,0.2,0.9,0.3,1.4,0.3c0.9,0,2-0.3,3.2-1c0,0,0.1,0,0.1-0.1c0.2-0.1,0.3-0.3,0.3-0.5v-6.7
				C28.4,209.2,28.3,209.1,28.1,208.9z"/>
		</g>
		<g>
			<g class="st1">
				<path class="st2" d="M240.5,263.1h-224c-4.8,0-8.6-3.9-8.6-8.6v-5.2c0-4.8,3.9-8.6,8.6-8.6h224c4.8,0,8.6,3.9,8.6,8.6v5.2
					C249.2,259.2,245.3,263.1,240.5,263.1z"/>
			</g>
			<g>
				<path class="st7" d="M237.9,263.1h-224c-4.8,0-8.6-3.9-8.6-8.6v-5.2c0-4.8,3.9-8.6,8.6-8.6h224c4.8,0,8.6,3.9,8.6,8.6v5.2
					C246.6,259.2,242.7,263.1,237.9,263.1z"/>
			</g>
		</g>
		<g>
			<g class="st1">
				<path class="st2" d="M283.9,412.5H20c-4.8,0-8.6-3.9-8.6-8.6v-5.2c0-4.8,3.9-8.6,8.6-8.6h263.9c4.8,0,8.6,3.9,8.6,8.6v5.2
					C292.5,408.7,288.7,412.5,283.9,412.5z"/>
			</g>
			<g>
				<path class="st7" d="M281.3,412.5H17.4c-4.8,0-8.6-3.9-8.6-8.6v-5.2c0-4.8,3.9-8.6,8.6-8.6h263.9c4.8,0,8.6,3.9,8.6,8.6v5.2
					C289.9,408.7,286.1,412.5,281.3,412.5z"/>
			</g>
		</g>
		<g>
			<g class="st1">
				<path class="st2" d="M390.7,449.9h-90.7c-4.8,0-8.6-3.9-8.6-8.6V436c0-4.8,3.9-8.6,8.6-8.6h90.7c4.8,0,8.6,3.9,8.6,8.6v5.2
					C399.3,446,395.4,449.9,390.7,449.9z"/>
			</g>
			<g>
				<path class="st4" d="M389.3,449.9h-90.7c-4.8,0-8.6-3.9-8.6-8.6V436c0-4.8,3.9-8.6,8.6-8.6h90.7c4.8,0,8.6,3.9,8.6,8.6v5.2
					C397.9,446,394.1,449.9,389.3,449.9z"/>
			</g>
		</g>
	</g>
	<rect x="18.7" y="128.6" class="st0" width="242.7" height="22.5"/>
	<rect x="18.7" y="91.2" class="st0" width="361.9" height="22.5"/>
	<rect x="18.7" y="53.8" class="st0" width="378.2" height="22.5"/>
	<g>
		<g class="st1">
			<path class="st2" d="M374.5,76.3H17.9c-4.8,0-8.6-3.9-8.6-8.6v-5.2c0-4.8,3.9-8.6,8.6-8.6h356.6c4.8,0,8.6,3.9,8.6,8.6v5.2
				C383.2,72.5,379.3,76.3,374.5,76.3z"/>
		</g>
		<g>
			<path class="st7" d="M371.9,76.3H15.3c-4.8,0-8.6-3.9-8.6-8.6v-5.2c0-4.8,3.9-8.6,8.6-8.6h356.6c4.8,0,8.6,3.9,8.6,8.6v5.2
				C380.6,72.5,376.7,76.3,371.9,76.3z"/>
		</g>
	</g>
	<g>
		<g class="st1">
			<path class="st2" d="M168.6,113.7H17.9c-4.8,0-8.6-3.9-8.6-8.6v-5.2c0-4.8,3.9-8.6,8.6-8.6h150.7c4.8,0,8.6,3.9,8.6,8.6v5.2
				C177.2,109.8,173.3,113.7,168.6,113.7z"/>
		</g>
		<g>
			<path class="st7" d="M166,113.7H15.3c-4.8,0-8.6-3.9-8.6-8.6v-5.2c0-4.8,3.9-8.6,8.6-8.6H166c4.8,0,8.6,3.9,8.6,8.6v5.2
				C174.6,109.8,170.7,113.7,166,113.7z"/>
		</g>
	</g>
</g>
<g>
	<linearGradient id="SVGID_1_" gradientUnits="userSpaceOnUse" x1="212.5986" y1="56.1631" x2="212.5986" y2="217.8235">
		<stop  offset="0" style="stop-color:#566E83"/>
		<stop  offset="1" style="stop-color:#546C80;stop-opacity:0"/>
	</linearGradient>
	<rect y="56.2" class="st8" width="425.2" height="161.7"/>
	<rect class="st9" width="425.2" height="57.1"/>
</g>
<g>
	
		<linearGradient id="SVGID_2_" gradientUnits="userSpaceOnUse" x1="788.8351" y1="-793.0471" x2="788.8351" y2="-646.2209" gradientTransform="matrix(-1 0 0 -1 1001.4338 -170.2127)">
		<stop  offset="0" style="stop-color:#566E83"/>
		<stop  offset="1" style="stop-color:#546C80;stop-opacity:0"/>
	</linearGradient>
	<rect x="0" y="476" class="st10" width="425.2" height="146.8"/>
	<rect x="0" y="620" class="st9" width="425.2" height="55"/>
</g>
</svg>
