<?xml version="1.0" encoding="utf-8"?>
<!-- Generator: Adobe Illustrator 19.1.0, SVG Export Plug-In . SVG Version: 6.00 Build 0)  -->
<!DOCTYPE svg PUBLIC "-//W3C//DTD SVG 1.1//EN" "http://www.w3.org/Graphics/SVG/1.1/DTD/svg11.dtd">
<svg version="1.1" id="Layer_1" xmlns="http://www.w3.org/2000/svg" xmlns:xlink="http://www.w3.org/1999/xlink" x="0px" y="0px"
	 viewBox="0 0 231.2 165" style="enable-background:new 0 0 231.2 165;" xml:space="preserve">
<style type="text/css">
	.st0{fill:#DDB16F;}
	.st1{opacity:0.2;}
	.st2{opacity:0.1;}
	.st3{fill:#AA9CB5;}
	.st4{fill:#82B1D8;}
	.st5{fill:#F1817D;}
</style>
<g>
	<g>
		<rect x="0" class="st0" width="231.2" height="28.5"/>
		<rect x="7.1" y="5.4" class="st1" width="197.8" height="4.3"/>
		<rect x="7.1" y="12.9" class="st1" width="144.2" height="4.3"/>
		<rect x="7.1" y="21.8" class="st2" width="44.1" height="2.2"/>
		<rect x="180.3" y="21.8" class="st2" width="44.1" height="2.2"/>
	</g>
	<g>
		<rect x="0" y="34.1" class="st3" width="231.2" height="28.5"/>
		<rect x="7.1" y="39.5" class="st1" width="197.8" height="4.3"/>
		<rect x="7.1" y="47" class="st1" width="144.2" height="4.3"/>
		<rect x="7.1" y="56" class="st2" width="44.1" height="2.2"/>
		<rect x="180.3" y="56" class="st2" width="44.1" height="2.2"/>
	</g>
	<g>
		<rect x="0" y="68.3" class="st3" width="231.2" height="28.5"/>
		<rect x="7.1" y="73.7" class="st1" width="197.8" height="4.3"/>
		<rect x="7.1" y="81.2" class="st1" width="144.2" height="4.3"/>
		<rect x="7.1" y="90.1" class="st2" width="44.1" height="2.2"/>
		<rect x="180.3" y="90.1" class="st2" width="44.1" height="2.2"/>
	</g>
	<g>
		<rect x="0" y="102.4" class="st4" width="231.2" height="28.5"/>
		<rect x="7.1" y="107.8" class="st1" width="197.8" height="4.3"/>
		<rect x="7.1" y="115.3" class="st1" width="144.2" height="4.3"/>
		<rect x="7.1" y="124.2" class="st2" width="44.1" height="2.2"/>
		<rect x="180.3" y="124.2" class="st2" width="44.1" height="2.2"/>
	</g>
	<g>
		<rect x="0" y="136.5" class="st5" width="231.2" height="28.5"/>
		<rect x="7.1" y="141.9" class="st1" width="197.8" height="4.3"/>
		<rect x="7.1" y="149.4" class="st1" width="144.2" height="4.3"/>
		<rect x="7.1" y="158.3" class="st2" width="44.1" height="2.2"/>
		<rect x="180.3" y="158.3" class="st2" width="44.1" height="2.2"/>
	</g>
</g>
</svg>
