<?xml version="1.0" encoding="utf-8"?>
<!-- Generator: Adobe Illustrator 19.1.0, SVG Export Plug-In . SVG Version: 6.00 Build 0)  -->
<!DOCTYPE svg PUBLIC "-//W3C//DTD SVG 1.1//EN" "http://www.w3.org/Graphics/SVG/1.1/DTD/svg11.dtd">
<svg version="1.1" id="Layer_1" xmlns="http://www.w3.org/2000/svg" xmlns:xlink="http://www.w3.org/1999/xlink" x="0px" y="0px"
	 viewBox="0 0 865 486.3" style="enable-background:new 0 0 865 486.3;" xml:space="preserve">
<style type="text/css">
	.st0{fill:#FFFFFF;}
	.st1{fill:none;stroke:#E3E3E3;stroke-width:1.8995;stroke-miterlimit:10;}
	.st2{fill:#E3E3E3;}
	.st3{fill:#E3574C;}
	.st4{fill:#E09623;}
	.st5{fill:#71BF3D;}
	.st6{clip-path:url(#SVGID_2_);}
	.st7{fill:#CACACA;}
	.st8{opacity:0.9;fill:#CACACA;}
	.st9{fill:#DDB16F;}
	.st10{fill:#72C5A4;}
	.st11{fill:#F9837C;}
	.st12{opacity:0.9;fill:#AB9DB6;}
	.st13{fill:#DCB070;}
	.st14{fill:#F1817D;}
	.st15{fill:#AA9CB5;}
	.st16{fill:#82B1D8;}
	.st17{fill:#73C5A4;}
	.st18{clip-path:url(#SVGID_2_);fill:#CAC9C9;}
	.st19{fill:#CAC9C9;}
	.st20{opacity:0.2;}
	.st21{fill:#231F20;}
	.st22{opacity:0.2;clip-path:url(#SVGID_2_);}
</style>
<g>
	<path id="SVGID_1_" class="st0" d="M859.6,483.2H5.7c-1.7,0-3.2-1.4-3.2-3.2V6.3c0-1.7,1.4-3.2,3.2-3.2h853.8
		c1.7,0,3.2,1.4,3.2,3.2V480C862.7,481.8,861.3,483.2,859.6,483.2z"/>
	<path class="st1" d="M859.6,483.2H5.7c-1.7,0-3.2-1.4-3.2-3.2V6.3c0-1.7,1.4-3.2,3.2-3.2h853.8c1.7,0,3.2,1.4,3.2,3.2V480
		C862.7,481.8,861.3,483.2,859.6,483.2z"/>
	<path class="st2" d="M862.7,18.8H2.6V5.6c0-1.3,1.1-2.4,2.4-2.4h854.9c1.6,0,2.8,1.3,2.8,2.8V18.8z"/>
	<ellipse class="st3" cx="11.7" cy="11" rx="4.4" ry="4.5"/>
	<ellipse class="st4" cx="24.6" cy="11" rx="4.4" ry="4.5"/>
	<ellipse class="st5" cx="37.6" cy="11" rx="4.4" ry="4.5"/>
	<g>
		<defs>
			<path id="SVGID_3_" d="M859.6,483.2H5.7c-1.7,0-3.2-1.4-3.2-3.2V6.3c0-1.7,1.4-3.2,3.2-3.2h853.8c1.7,0,3.2,1.4,3.2,3.2V480
				C862.7,481.8,861.3,483.2,859.6,483.2z"/>
		</defs>
		<clipPath id="SVGID_2_">
			<use xlink:href="#SVGID_3_"  style="overflow:visible;"/>
		</clipPath>
		<g class="st6">
			<g>
				<path class="st7" d="M152.6,225.4H27.1v7.3h125.5c1,0,1.7-0.8,1.7-1.7v-3.9C154.3,226.1,153.6,225.4,152.6,225.4z"/>
				<path class="st7" d="M127,307.6H27.1v7.3H127c1,0,1.7-0.8,1.7-1.7v-3.9C128.8,308.4,128,307.6,127,307.6z"/>
				<path class="st7" d="M144.8,318.7H44.8v7.3h99.9c1,0,1.7-0.8,1.7-1.7v-3.9C146.5,319.5,145.7,318.7,144.8,318.7z"/>
				<path class="st7" d="M144.8,329.8H44.8v7.3h99.9c1,0,1.7-0.8,1.7-1.7v-3.9C146.5,330.6,145.7,329.8,144.8,329.8z"/>
				<path class="st7" d="M158.3,340.9H58.4v7.3h99.9c1,0,1.7-0.8,1.7-1.7v-3.9C160,341.6,159.3,340.9,158.3,340.9z"/>
				<path class="st7" d="M158.3,352H58.4v7.3h99.9c1,0,1.7-0.8,1.7-1.7v-3.9C160,352.7,159.3,352,158.3,352z"/>
				<path class="st7" d="M173.8,85.9H58.4v7.3h115.4c1,0,1.7-0.8,1.7-1.7v-3.9C175.6,86.7,174.8,85.9,173.8,85.9z"/>
				<path class="st7" d="M142.6,41.6H27.1v7.3h115.4c1,0,1.7-0.8,1.7-1.7v-3.9C144.3,42.4,143.5,41.6,142.6,41.6z"/>
				<path class="st7" d="M179.1,97H58.4v7.3h120.7c1,0,1.7-0.8,1.7-1.7v-3.9C180.8,97.8,180.1,97,179.1,97z"/>
				<path class="st7" d="M150.5,52.7H44.8V60h105.7c1,0,1.7-0.8,1.7-1.7v-3.9C152.3,53.5,151.5,52.7,150.5,52.7z"/>
				<path class="st7" d="M164.4,74.9H58.8v7.3h105.7c1,0,1.7-0.8,1.7-1.7v-3.9C166.2,75.6,165.4,74.9,164.4,74.9z"/>
				<path class="st7" d="M165.6,63.8H44.8v7.3h120.7c1,0,1.7-0.8,1.7-1.7v-3.9C167.3,64.5,166.5,63.8,165.6,63.8z"/>
				<path class="st8" d="M135.6,122.4H44.8v7.3l90.8,0c1,0,1.7-0.8,1.7-1.7v-3.9C137.3,123.2,136.6,122.4,135.6,122.4z"/>
				<path class="st8" d="M112.5,111.3H27.1v7.3h85.3c1,0,1.7-0.8,1.7-1.7V113C114.2,112.1,113.4,111.3,112.5,111.3z"/>
				<path class="st7" d="M156.2,155.7H58.4v7.3h97.8c1,0,1.7-0.8,1.7-1.7v-3.9C157.9,156.4,157.1,155.7,156.2,155.7z"/>
				<path class="st8" d="M141.1,133.5H44.8v7.3h96.3c1,0,1.7-0.8,1.7-1.7v-3.9C142.9,134.3,142.1,133.5,141.1,133.5z"/>
				<path class="st7" d="M141.1,188.9H44.8v7.3h96.3c1,0,1.7-0.8,1.7-1.7v-3.9C142.9,189.7,142.1,188.9,141.1,188.9z"/>
				<path class="st7" d="M141.1,200H44.8v7.3h96.3c1,0,1.7-0.8,1.7-1.7v-3.9C142.9,200.8,142.1,200,141.1,200z"/>
				<path class="st7" d="M141.1,211.1H44.8v7.3h96.3c1,0,1.7-0.8,1.7-1.7v-3.9C142.9,211.9,142.1,211.1,141.1,211.1z"/>
				<path class="st7" d="M141.1,236.7H44.8v7.3h96.3c1,0,1.7-0.8,1.7-1.7v-3.9C142.9,237.5,142.1,236.7,141.1,236.7z"/>
				<path class="st7" d="M141.1,247.8H44.8v7.3h96.3c1,0,1.7-0.8,1.7-1.7v-3.9C142.9,248.6,142.1,247.8,141.1,247.8z"/>
				<path class="st7" d="M141.1,258.9H44.8v7.3h96.3c1,0,1.7-0.8,1.7-1.7v-3.9C142.9,259.7,142.1,258.9,141.1,258.9z"/>
				<path class="st7" d="M148.2,144.6H58.7v7.3h89.5c1,0,1.7-0.8,1.7-1.7v-3.9C150,145.3,149.2,144.6,148.2,144.6z"/>
				<path class="st7" d="M156.2,177.8H58.4v7.3h97.8c1,0,1.7-0.8,1.7-1.7v-3.9C157.9,178.6,157.1,177.8,156.2,177.8z"/>
				<path class="st7" d="M162.4,166.7H58.7v7.3h103.7c1,0,1.7-0.8,1.7-1.7v-3.9C164.2,167.5,163.4,166.7,162.4,166.7z"/>
				<path class="st7" d="M156.2,270.7H58.4v7.3h97.8c1,0,1.7-0.8,1.7-1.7v-3.9C157.9,271.4,157.1,270.7,156.2,270.7z"/>
				<path class="st7" d="M156.2,292.8H58.4v7.3h97.8c1,0,1.7-0.8,1.7-1.7v-3.9C157.9,293.6,157.1,292.8,156.2,292.8z"/>
				<path class="st7" d="M162.4,281.7H58.7v7.3h103.7c1,0,1.7-0.8,1.7-1.7v-3.9C164.2,282.5,163.4,281.7,162.4,281.7z"/>
			</g>
			<ellipse class="st9" cx="21.9" cy="45.3" rx="2.8" ry="2.8"/>
			<ellipse class="st9" cx="40.2" cy="56.3" rx="2.8" ry="2.8"/>
			<ellipse class="st9" cx="40.2" cy="67.4" rx="2.8" ry="2.8"/>
			<ellipse class="st8" cx="21.9" cy="115" rx="2.8" ry="2.8"/>
			<ellipse class="st8" cx="40.2" cy="126.1" rx="2.8" ry="2.8"/>
			<ellipse class="st8" cx="40.2" cy="137.1" rx="2.8" ry="2.8"/>
			<ellipse class="st8" cx="40.2" cy="192.6" rx="2.8" ry="2.8"/>
			<ellipse class="st8" cx="40.2" cy="203.7" rx="2.8" ry="2.8"/>
			<ellipse class="st8" cx="40.2" cy="214.8" rx="2.8" ry="2.8"/>
			<ellipse class="st10" cx="21.9" cy="229" rx="2.8" ry="2.8"/>
			<ellipse class="st10" cx="40.2" cy="240.4" rx="2.8" ry="2.8"/>
			<ellipse class="st10" cx="40.2" cy="251.5" rx="2.8" ry="2.8"/>
			<ellipse class="st10" cx="40.2" cy="262.6" rx="2.8" ry="2.8"/>
			<ellipse class="st11" cx="21.9" cy="311.3" rx="2.8" ry="2.8"/>
			<ellipse class="st11" cx="40.2" cy="322.4" rx="2.8" ry="2.8"/>
			<ellipse class="st11" cx="40.2" cy="333.5" rx="2.8" ry="2.8"/>
		</g>
		<g class="st6">
			<path class="st7" d="M152.6,551.1H27.1v7.3h125.5c1,0,1.7-0.8,1.7-1.7v-3.9C154.3,551.8,153.6,551.1,152.6,551.1z"/>
			<path class="st7" d="M127,633.3H27.1v7.3H127c1,0,1.7-0.8,1.7-1.7V635C128.8,634.1,128,633.3,127,633.3z"/>
			<path class="st7" d="M144.8,644.4H44.8v7.3h99.9c1,0,1.7-0.8,1.7-1.7v-3.9C146.5,645.2,145.7,644.4,144.8,644.4z"/>
			<path class="st7" d="M144.8,655.5H44.8v7.3h99.9c1,0,1.7-0.8,1.7-1.7v-3.9C146.5,656.3,145.7,655.5,144.8,655.5z"/>
			<path class="st7" d="M158.3,666.6H58.4v7.3h99.9c1,0,1.7-0.8,1.7-1.7v-3.9C160,667.3,159.3,666.6,158.3,666.6z"/>
			<path class="st7" d="M158.3,677.7H58.4v7.3h99.9c1,0,1.7-0.8,1.7-1.7v-3.9C160,678.4,159.3,677.7,158.3,677.7z"/>
			<path class="st7" d="M173.8,411.6H58.4v7.3h115.4c1,0,1.7-0.8,1.7-1.7v-3.9C175.6,412.4,174.8,411.6,173.8,411.6z"/>
			<path class="st7" d="M142.6,367.3H27.1v7.3h115.4c1,0,1.7-0.8,1.7-1.7V369C144.3,368.1,143.5,367.3,142.6,367.3z"/>
			<path class="st7" d="M179.1,422.7H58.4v7.3h120.7c1,0,1.7-0.8,1.7-1.7v-3.9C180.8,423.5,180.1,422.7,179.1,422.7z"/>
			<path class="st7" d="M150.5,378.4H44.8v7.3h105.7c1,0,1.7-0.8,1.7-1.7v-3.9C152.3,379.2,151.5,378.4,150.5,378.4z"/>
			<path class="st7" d="M164.4,400.6H58.8v7.3h105.7c1,0,1.7-0.8,1.7-1.7v-3.9C166.2,401.3,165.4,400.6,164.4,400.6z"/>
			<path class="st7" d="M165.6,389.5H44.8v7.3h120.7c1,0,1.7-0.8,1.7-1.7v-3.9C167.3,390.2,166.5,389.5,165.6,389.5z"/>
			<path class="st8" d="M135.6,448.1H44.8v7.3h90.8c1,0,1.7-0.8,1.7-1.7v-3.9C137.3,448.9,136.6,448.1,135.6,448.1z"/>
			<path class="st8" d="M112.5,437H27.1v7.3h85.3c1,0,1.7-0.8,1.7-1.7v-3.9C114.2,437.8,113.4,437,112.5,437z"/>
			<path class="st7" d="M156.2,481.4H58.4v7.3h97.8c1,0,1.7-0.8,1.7-1.7v-3.9C157.9,482.1,157.1,481.4,156.2,481.4z"/>
			<path class="st8" d="M141.1,459.2H44.8v7.3h96.3c1,0,1.7-0.8,1.7-1.7v-3.9C142.9,460,142.1,459.2,141.1,459.2z"/>
			<path class="st7" d="M141.1,514.6H44.8v7.3h96.3c1,0,1.7-0.8,1.7-1.7v-3.9C142.9,515.4,142.1,514.6,141.1,514.6z"/>
			<path class="st7" d="M141.1,525.7H44.8v7.3h96.3c1,0,1.7-0.8,1.7-1.7v-3.9C142.9,526.5,142.1,525.7,141.1,525.7z"/>
			<path class="st7" d="M141.1,536.8H44.8v7.3h96.3c1,0,1.7-0.8,1.7-1.7v-3.9C142.9,537.6,142.1,536.8,141.1,536.8z"/>
			<path class="st7" d="M141.1,562.4H44.8v7.3h96.3c1,0,1.7-0.8,1.7-1.7v-3.9C142.9,563.2,142.1,562.4,141.1,562.4z"/>
			<path class="st7" d="M141.1,573.5H44.8v7.3h96.3c1,0,1.7-0.8,1.7-1.7v-3.9C142.9,574.3,142.1,573.5,141.1,573.5z"/>
			<path class="st7" d="M141.1,584.6H44.8v7.3h96.3c1,0,1.7-0.8,1.7-1.7v-3.9C142.9,585.4,142.1,584.6,141.1,584.6z"/>
			<path class="st7" d="M148.2,470.3H58.7v7.3h89.5c1,0,1.7-0.8,1.7-1.7V472C150,471,149.2,470.3,148.2,470.3z"/>
			<path class="st7" d="M156.2,503.5H58.4v7.3h97.8c1,0,1.7-0.8,1.7-1.7v-3.9C157.9,504.3,157.1,503.5,156.2,503.5z"/>
			<path class="st7" d="M162.4,492.4H58.7v7.3h103.7c1,0,1.7-0.8,1.7-1.7v-3.9C164.2,493.2,163.4,492.4,162.4,492.4z"/>
			<path class="st7" d="M156.2,596.4H58.4v7.3h97.8c1,0,1.7-0.8,1.7-1.7v-3.9C157.9,597.1,157.1,596.4,156.2,596.4z"/>
			<path class="st7" d="M156.2,618.5H58.4v7.3h97.8c1,0,1.7-0.8,1.7-1.7v-3.9C157.9,619.3,157.1,618.5,156.2,618.5z"/>
			<path class="st7" d="M162.4,607.4H58.7v7.3h103.7c1,0,1.7-0.8,1.7-1.7v-3.9C164.2,608.2,163.4,607.4,162.4,607.4z"/>
			<ellipse class="st9" cx="21.9" cy="371" rx="2.8" ry="2.8"/>
			<ellipse class="st9" cx="40.2" cy="382" rx="2.8" ry="2.8"/>
			<ellipse class="st9" cx="40.2" cy="393.1" rx="2.8" ry="2.8"/>
			<ellipse class="st12" cx="21.9" cy="440.7" rx="2.8" ry="2.8"/>
			<ellipse class="st12" cx="40.2" cy="451.8" rx="2.8" ry="2.8"/>
			<ellipse class="st12" cx="40.2" cy="462.8" rx="2.8" ry="2.8"/>
			<ellipse class="st12" cx="40.2" cy="518.3" rx="2.8" ry="2.8"/>
			<ellipse class="st12" cx="40.2" cy="529.4" rx="2.8" ry="2.8"/>
			<ellipse class="st12" cx="40.2" cy="540.5" rx="2.8" ry="2.8"/>
			<ellipse class="st10" cx="21.9" cy="554.7" rx="2.8" ry="2.8"/>
			<ellipse class="st10" cx="40.2" cy="566.1" rx="2.8" ry="2.8"/>
			<ellipse class="st10" cx="40.2" cy="577.2" rx="2.8" ry="2.8"/>
			<ellipse class="st10" cx="40.2" cy="588.3" rx="2.8" ry="2.8"/>
			<ellipse class="st11" cx="21.9" cy="637" rx="2.8" ry="2.8"/>
			<ellipse class="st11" cx="40.2" cy="648.1" rx="2.8" ry="2.8"/>
			<ellipse class="st11" cx="40.2" cy="659.2" rx="2.8" ry="2.8"/>
		</g>
		<g class="st6">
			<path class="st13" d="M886.2,85.8H665.4c-0.8,0-1.4-0.7-1.4-1.4V40.6c0-0.8,0.7-1.4,1.4-1.4h220.8c0.8,0,1.4,0.7,1.4,1.4v43.8
				C887.6,85.1,887,85.8,886.2,85.8z"/>
			<path class="st14" d="M886.2,140.5H665.4c-0.8,0-1.4-0.7-1.4-1.4V95.3c0-0.8,0.7-1.4,1.4-1.4h220.8c0.8,0,1.4,0.7,1.4,1.4v43.8
				C887.6,139.9,887,140.5,886.2,140.5z"/>
			<path class="st13" d="M886.2,195.2H665.4c-0.8,0-1.4-0.7-1.4-1.4V150c0-0.8,0.7-1.4,1.4-1.4h220.8c0.8,0,1.4,0.7,1.4,1.4v43.8
				C887.6,194.6,887,195.2,886.2,195.2z"/>
			<path class="st15" d="M886.2,249.9H665.4c-0.8,0-1.4-0.7-1.4-1.4v-43.8c0-0.8,0.7-1.4,1.4-1.4h220.8c0.8,0,1.4,0.7,1.4,1.4v43.8
				C887.6,249.3,887,249.9,886.2,249.9z"/>
			<path class="st16" d="M886.2,304.6H665.4c-0.8,0-1.4-0.7-1.4-1.4v-43.8c0-0.8,0.7-1.4,1.4-1.4h220.8c0.8,0,1.4,0.7,1.4,1.4v43.8
				C887.6,304,887,304.6,886.2,304.6z"/>
			<path class="st17" d="M886.2,359.4H665.4c-0.8,0-1.4-0.7-1.4-1.4v-43.8c0-0.8,0.7-1.4,1.4-1.4h220.8c0.8,0,1.4,0.7,1.4,1.4v43.8
				C887.6,358.7,887,359.4,886.2,359.4z"/>
			<path class="st17" d="M886.2,414.1H665.4c-0.8,0-1.4-0.7-1.4-1.4v-43.8c0-0.8,0.7-1.4,1.4-1.4h220.8c0.8,0,1.4,0.7,1.4,1.4v43.8
				C887.6,413.4,887,414.1,886.2,414.1z"/>
			<path class="st17" d="M886.2,468.8H665.4c-0.8,0-1.4-0.7-1.4-1.4v-43.8c0-0.8,0.7-1.4,1.4-1.4h220.8c0.8,0,1.4,0.7,1.4,1.4v43.8
				C887.6,468.1,887,468.8,886.2,468.8z"/>
			<path class="st14" d="M886.2,523.5H665.4c-0.8,0-1.4-0.7-1.4-1.4v-43.8c0-0.8,0.7-1.4,1.4-1.4h220.8c0.8,0,1.4,0.7,1.4,1.4V522
				C887.6,522.8,887,523.5,886.2,523.5z"/>
		</g>
		<rect x="276.5" y="578.6" class="st18" width="322" height="10.5"/>
		<rect x="276.5" y="561.1" class="st18" width="336.5" height="10.5"/>
		<g class="st6">
			<rect x="276.5" y="59.6" class="st19" width="336.5" height="10.5"/>
			<g>
				<rect x="276.5" y="112.1" class="st19" width="309.3" height="10.5"/>
				<rect x="276.5" y="147.1" class="st19" width="322" height="10.5"/>
				<rect x="276.5" y="42.1" class="st19" width="322" height="10.5"/>
				<rect x="276.5" y="129.6" class="st19" width="322" height="10.5"/>
				<rect x="276.5" y="94.6" class="st19" width="295.2" height="10.5"/>
				<rect x="276.5" y="77.1" class="st19" width="309.3" height="10.5"/>
				<rect x="276.5" y="216.4" class="st19" width="309.3" height="10.5"/>
				<rect x="276.5" y="251.4" class="st19" width="322" height="10.5"/>
				<rect x="276.5" y="233.9" class="st19" width="322" height="10.5"/>
				<rect x="276.5" y="164" class="st19" width="306.3" height="10.5"/>
				<rect x="276.5" y="198.9" class="st19" width="306.3" height="10.5"/>
				<rect x="276.5" y="181.5" class="st19" width="309.3" height="10.5"/>
				<rect x="276.5" y="320.8" class="st19" width="309.3" height="10.5"/>
				<rect x="276.5" y="355.7" class="st19" width="322" height="10.5"/>
				<rect x="276.5" y="338.2" class="st19" width="329" height="10.5"/>
				<rect x="276.5" y="268.3" class="st19" width="306.3" height="10.5"/>
				<rect x="276.5" y="303.3" class="st19" width="295.2" height="10.5"/>
				<rect x="276.5" y="285.8" class="st19" width="309.3" height="10.5"/>
				<rect x="276.5" y="425.1" class="st19" width="309.3" height="10.5"/>
				<rect x="276.5" y="460.1" class="st19" width="322" height="10.5"/>
				<rect x="276.5" y="442.6" class="st19" width="325.1" height="10.5"/>
				<rect x="276.5" y="372.6" class="st19" width="325.1" height="10.5"/>
				<rect x="276.5" y="407.6" class="st19" width="312.3" height="10.5"/>
				<rect x="276.5" y="390.1" class="st19" width="309.3" height="10.5"/>
				<rect x="276.5" y="477" class="st19" width="336.5" height="10.5"/>
				<rect x="276.5" y="494.5" class="st19" width="309.3" height="10.5"/>
			</g>
			<g>
				<g class="st20">
					<path class="st21" d="M505.8,105.5H399.2c-1.4,0-2.5-1.1-2.5-2.5v-5.5c0-1.4,1.1-2.5,2.5-2.5h106.6c1.4,0,2.5,1.1,2.5,2.5v5.5
						C508.3,104.4,507.2,105.5,505.8,105.5z"/>
				</g>
				<g>
					<path class="st14" d="M504.6,105.5H398c-1.4,0-2.5-1.1-2.5-2.5v-5.5c0-1.4,1.1-2.5,2.5-2.5h106.6c1.4,0,2.5,1.1,2.5,2.5v5.5
						C507.1,104.4,506,105.5,504.6,105.5z"/>
				</g>
			</g>
			<g>
				<g class="st20">
					<path class="st21" d="M590.4,418.5H275c-1.4,0-2.5-1.1-2.5-2.5v-5.5c0-1.4,1.1-2.5,2.5-2.5h315.4c1.4,0,2.5,1.1,2.5,2.5v5.5
						C592.9,417.4,591.8,418.5,590.4,418.5z"/>
				</g>
				<g>
					<path class="st14" d="M588.3,418.5H272.9c-1.4,0-2.5-1.1-2.5-2.5v-5.5c0-1.4,1.1-2.5,2.5-2.5h315.4c1.4,0,2.5,1.1,2.5,2.5v5.5
						C590.8,417.4,589.7,418.5,588.3,418.5z"/>
				</g>
			</g>
			<g>
				<g class="st20">
					<path class="st21" d="M594.3,401.4H275c-1.4,0-2.5-1.1-2.5-2.5l0-5.5c0-1.4,1.1-2.5,2.5-2.5h319.3c1.4,0,2.5,1.1,2.5,2.5v5.5
						C596.8,400.2,595.7,401.4,594.3,401.4z"/>
				</g>
				<g>
					<path class="st14" d="M592.3,401.4H272.9c-1.4,0-2.5-1.1-2.5-2.5v-5.5c0-1.4,1.1-2.5,2.5-2.5h319.3c1.4,0,2.5,1.1,2.5,2.5v5.5
						C594.8,400.2,593.6,401.4,592.3,401.4z"/>
				</g>
			</g>
			<g>
				<g class="st20">
					<path class="st21" d="M611.2,382.9H275c-1.4,0-2.5-1.1-2.5-2.5l0-5.5c0-1.4,1.1-2.5,2.5-2.5h336.2c1.4,0,2.5,1.1,2.5,2.5v5.5
						C613.7,381.8,612.6,382.9,611.2,382.9z"/>
				</g>
				<g>
					<path class="st14" d="M609.1,382.9H272.9c-1.4,0-2.5-1.1-2.5-2.5v-5.5c0-1.4,1.1-2.5,2.5-2.5h336.2c1.4,0,2.5,1.1,2.5,2.5v5.5
						C611.6,381.8,610.5,382.9,609.1,382.9z"/>
				</g>
			</g>
			<g>
				<g class="st20">
					<path class="st21" d="M605,157.7H432.6c-1.4,0-2.5-1.1-2.5-2.5v-5.5c0-1.4,1.1-2.5,2.5-2.5H605c1.4,0,2.5,1.1,2.5,2.5v5.5
						C607.5,156.6,606.4,157.7,605,157.7z"/>
				</g>
				<g>
					<path class="st14" d="M603.5,157.7H431.1c-1.4,0-2.5-1.1-2.5-2.5l0-5.5c0-1.4,1.1-2.5,2.5-2.5h172.4c1.4,0,2.5,1.1,2.5,2.5v5.5
						C605.9,156.6,604.8,157.7,603.5,157.7z"/>
				</g>
			</g>
			<g>
				<g class="st20">
					<path class="st21" d="M605,470.6H432.6c-1.4,0-2.5-1.1-2.5-2.5v-5.5c0-1.4,1.1-2.5,2.5-2.5H605c1.4,0,2.5,1.1,2.5,2.5v5.5
						C607.5,469.5,606.4,470.6,605,470.6z"/>
				</g>
				<g>
					<path class="st14" d="M603.5,470.6H431.1c-1.4,0-2.5-1.1-2.5-2.5l0-5.5c0-1.4,1.1-2.5,2.5-2.5h172.4c1.4,0,2.5,1.1,2.5,2.5v5.5
						C605.9,469.5,604.8,470.6,603.5,470.6z"/>
				</g>
			</g>
			<g>
				<g class="st20">
					<path class="st21" d="M619.2,488.4H273.8c-1.4,0-2.5-1.1-2.5-2.5l0-5.5c0-1.4,1.1-2.5,2.5-2.5h345.4c1.4,0,2.5,1.1,2.5,2.5v5.5
						C621.7,487.3,620.6,488.4,619.2,488.4z"/>
				</g>
				<g>
					<path class="st14" d="M617.1,488.4H271.6c-1.4,0-2.5-1.1-2.5-2.5v-5.5c0-1.4,1.1-2.5,2.5-2.5h345.4c1.4,0,2.5,1.1,2.5,2.5v5.5
						C619.6,487.3,618.4,488.4,617.1,488.4z"/>
				</g>
			</g>
			<g>
				<g class="st20">
					<path class="st21" d="M538.2,174.9H274c-1.4,0-2.5-1.1-2.5-2.5v-5.5c0-1.4,1.1-2.5,2.5-2.5h264.2c1.4,0,2.5,1.1,2.5,2.5v5.5
						C540.7,173.8,539.6,174.9,538.2,174.9z"/>
				</g>
				<g>
					<path class="st14" d="M536.3,174.9H272.1c-1.4,0-2.5-1.1-2.5-2.5v-5.5c0-1.4,1.1-2.5,2.5-2.5h264.2c1.4,0,2.5,1.1,2.5,2.5v5.5
						C538.8,173.8,537.7,174.9,536.3,174.9z"/>
				</g>
			</g>
			<g>
				<g class="st20">
					<path class="st21" d="M592.5,296.4H272.8c-1.4,0-2.5-1.1-2.5-2.5l0-5.5c0-1.4,1.1-2.5,2.5-2.5h319.6c1.4,0,2.5,1.1,2.5,2.5v5.5
						C594.9,295.3,593.8,296.4,592.5,296.4z"/>
				</g>
				<g>
					<path class="st16" d="M590.4,296.4H270.8c-1.4,0-2.5-1.1-2.5-2.5v-5.5c0-1.4,1.1-2.5,2.5-2.5h319.6c1.4,0,2.5,1.1,2.5,2.5v5.5
						C592.9,295.3,591.8,296.4,590.4,296.4z"/>
				</g>
			</g>
			<g>
				<g class="st20">
					<path class="st21" d="M500.2,139.6H272.5c-1.4,0-2.5-1.1-2.5-2.5l0-5.5c0-1.4,1.1-2.5,2.5-2.5h227.7c1.4,0,2.5,1.1,2.5,2.5v5.5
						C502.7,138.5,501.6,139.6,500.2,139.6z"/>
				</g>
				<g>
					<path class="st16" d="M498.5,139.6H270.8c-1.4,0-2.5-1.1-2.5-2.5v-5.5c0-1.4,1.1-2.5,2.5-2.5h227.7c1.4,0,2.5,1.1,2.5,2.5v5.5
						C501,138.5,499.9,139.6,498.5,139.6z"/>
				</g>
			</g>
			<g>
				<g class="st20">
					<path class="st21" d="M500.2,470.6H272.5c-1.4,0-2.5-1.1-2.5-2.5l0-5.5c0-1.4,1.1-2.5,2.5-2.5h227.7c1.4,0,2.5,1.1,2.5,2.5v5.5
						C502.7,469.5,501.6,470.6,500.2,470.6z"/>
				</g>
				<g>
					<path class="st16" d="M498.5,470.6H270.8c-1.4,0-2.5-1.1-2.5-2.5v-5.5c0-1.4,1.1-2.5,2.5-2.5h227.7c1.4,0,2.5,1.1,2.5,2.5v5.5
						C501,469.5,499.9,470.6,498.5,470.6z"/>
				</g>
			</g>
			<g>
				<g class="st20">
					<path class="st21" d="M578.2,313.9H272.8c-1.4,0-2.5-1.1-2.5-2.5l0-5.5c0-1.4,1.1-2.5,2.5-2.5h305.4c1.4,0,2.5,1.1,2.5,2.5v5.5
						C580.7,312.8,579.6,313.9,578.2,313.9z"/>
				</g>
				<g>
					<path class="st16" d="M576.2,313.9H270.8c-1.4,0-2.5-1.1-2.5-2.5v-5.5c0-1.4,1.1-2.5,2.5-2.5h305.4c1.4,0,2.5,1.1,2.5,2.5v5.5
						C578.7,312.8,577.5,313.9,576.2,313.9z"/>
				</g>
			</g>
			<g>
				<g class="st20">
					<path class="st21" d="M379,331.2H272c-1.4,0-2.5-1.1-2.5-2.5l0-5.5c0-1.4,1.1-2.5,2.5-2.5H379c1.4,0,2.5,1.1,2.5,2.5v5.5
						C381.5,330.1,380.4,331.2,379,331.2z"/>
				</g>
				<g>
					<path class="st16" d="M377.8,331.2H270.8c-1.4,0-2.5-1.1-2.5-2.5v-5.5c0-1.4,1.1-2.5,2.5-2.5h107.1c1.4,0,2.5,1.1,2.5,2.5v5.5
						C380.3,330.1,379.2,331.2,377.8,331.2z"/>
				</g>
			</g>
			<rect x="276.5" y="529.4" class="st19" width="309.3" height="10.5"/>
			<rect x="276.5" y="511.9" class="st19" width="295.2" height="10.5"/>
			<g>
				<g class="st20">
					<path class="st21" d="M425.7,129.6h-48.4c-1.4,0-2.5,1.1-2.5,2.5v5.5c0,1.4,1.1,2.5,2.5,2.5h48.4c1.4,0,2.5-1.1,2.5-2.5v-5.5
						C428.2,130.7,427.1,129.6,425.7,129.6z"/>
				</g>
				<g>
					<path class="st17" d="M424.5,129.6h-48.4c-1.4,0-2.5,1.1-2.5,2.5v5.5c0,1.4,1.1,2.5,2.5,2.5h48.4c1.4,0,2.5-1.1,2.5-2.5v-5.5
						C427,130.7,425.9,129.6,424.5,129.6z"/>
				</g>
			</g>
			<g>
				<g class="st20">
					<path class="st21" d="M379.8,147.2h-48.4c-1.4,0-2.5,1.1-2.5,2.5v5.5c0,1.4,1.1,2.5,2.5,2.5h48.4c1.4,0,2.5-1.1,2.5-2.5v-5.5
						C382.3,148.3,381.2,147.2,379.8,147.2z"/>
				</g>
				<g>
					<path class="st17" d="M378.6,147.2h-48.4c-1.4,0-2.5,1.1-2.5,2.5v5.5c0,1.4,1.1,2.5,2.5,2.5h48.4c1.4,0,2.5-1.1,2.5-2.5v-5.5
						C381.1,148.3,380,147.2,378.6,147.2z"/>
				</g>
			</g>
			<g>
				<g class="st20">
					<path class="st21" d="M551.4,425.2H274.2c-1.4,0-2.5,1.1-2.5,2.5v5.5c0,1.4,1.1,2.5,2.5,2.5h277.2c1.4,0,2.5-1.1,2.5-2.5v-5.5
						C553.9,426.3,552.8,425.2,551.4,425.2z"/>
				</g>
				<g>
					<path class="st17" d="M548.6,425.2H271.4c-1.4,0-2.5,1.1-2.5,2.5v5.5c0,1.4,1.1,2.5,2.5,2.5h277.2c1.4,0,2.5-1.1,2.5-2.5v-5.5
						C551.1,426.3,550,425.2,548.6,425.2z"/>
				</g>
			</g>
			<g>
				<g class="st20">
					<path class="st21" d="M449.2,147.2h-48.4c-1.4,0-2.5,1.1-2.5,2.5v5.5c0,1.4,1.1,2.5,2.5,2.5h48.4c1.4,0,2.5-1.1,2.5-2.5v-5.5
						C451.6,148.3,450.5,147.2,449.2,147.2z"/>
				</g>
				<g>
					<path class="st17" d="M447.9,147.2h-48.4c-1.4,0-2.5,1.1-2.5,2.5v5.5c0,1.4,1.1,2.5,2.5,2.5h48.4c1.4,0,2.5-1.1,2.5-2.5v-5.5
						C450.4,148.3,449.3,147.2,447.9,147.2z"/>
				</g>
			</g>
			<g>
				<g class="st20">
					<path class="st21" d="M355,122.9h-61c-1.4,0-2.5-1.1-2.5-2.5v-5.5c0-1.4,1.1-2.5,2.5-2.5h61c1.4,0,2.5,1.1,2.5,2.5v5.5
						C357.5,121.8,356.4,122.9,355,122.9z"/>
				</g>
				<g>
					<path class="st15" d="M353.8,122.9h-61c-1.4,0-2.5-1.1-2.5-2.5v-5.5c0-1.4,1.1-2.5,2.5-2.5h61c1.4,0,2.5,1.1,2.5,2.5v5.5
						C356.3,121.8,355.2,122.9,353.8,122.9z"/>
				</g>
			</g>
			<g>
				<g class="st20">
					<path class="st21" d="M496.9,262.3h-61c-1.4,0-2.5-1.1-2.5-2.5v-5.5c0-1.4,1.1-2.5,2.5-2.5h61c1.4,0,2.5,1.1,2.5,2.5v5.5
						C499.4,261.2,498.3,262.3,496.9,262.3z"/>
				</g>
				<g>
					<path class="st15" d="M495.7,262.3h-61c-1.4,0-2.5-1.1-2.5-2.5v-5.5c0-1.4,1.1-2.5,2.5-2.5h61c1.4,0,2.5,1.1,2.5,2.5v5.5
						C498.2,261.2,497.1,262.3,495.7,262.3z"/>
				</g>
			</g>
			<g>
				<g class="st20">
					<path class="st21" d="M556.1,244.4h-61c-1.4,0-2.5-1.1-2.5-2.5v-5.5c0-1.4,1.1-2.5,2.5-2.5h61c1.4,0,2.5,1.1,2.5,2.5v5.5
						C558.5,243.3,557.4,244.4,556.1,244.4z"/>
				</g>
				<g>
					<path class="st15" d="M554.8,244.4h-61c-1.4,0-2.5-1.1-2.5-2.5v-5.5c0-1.4,1.1-2.5,2.5-2.5h61c1.4,0,2.5,1.1,2.5,2.5v5.5
						C557.3,243.3,556.2,244.4,554.8,244.4z"/>
				</g>
			</g>
			<g>
				<g class="st20">
					<path class="st21" d="M604.3,366.8H436.7c-1.4,0-2.5-1.1-2.5-2.5v-5.5c0-1.4,1.1-2.5,2.5-2.5h167.6c1.4,0,2.5,1.1,2.5,2.5v5.5
						C606.8,365.7,605.6,366.8,604.3,366.8z"/>
				</g>
				<g>
					<path class="st15" d="M602.3,366.8H434.7c-1.4,0-2.5-1.1-2.5-2.5v-5.5c0-1.4,1.1-2.5,2.5-2.5h167.6c1.4,0,2.5,1.1,2.5,2.5v5.5
						C604.8,365.7,603.7,366.8,602.3,366.8z"/>
				</g>
			</g>
			<g>
				<g class="st20">
					<path class="st21" d="M441.2,382.9H273.6c-1.4,0-2.5-1.1-2.5-2.5v-5.5c0-1.4,1.1-2.5,2.5-2.5h167.6c1.4,0,2.5,1.1,2.5,2.5v5.5
						C443.7,381.8,442.6,382.9,441.2,382.9z"/>
				</g>
				<g>
					<path class="st15" d="M439.2,382.9H271.6c-1.4,0-2.5-1.1-2.5-2.5v-5.5c0-1.4,1.1-2.5,2.5-2.5h167.6c1.4,0,2.5,1.1,2.5,2.5v5.5
						C441.7,381.8,440.6,382.9,439.2,382.9z"/>
				</g>
			</g>
			<g>
				<g class="st20">
					<path class="st21" d="M467,70.2H274.3c-1.4,0-2.5-1.1-2.5-2.5v-5.5c0-1.4,1.1-2.5,2.5-2.5H467c1.4,0,2.5,1.1,2.5,2.5v5.5
						C469.5,69,468.4,70.2,467,70.2z"/>
				</g>
				<g>
					<path class="st13" d="M465.6,70.2H272.9c-1.4,0-2.5-1.1-2.5-2.5v-5.5c0-1.4,1.1-2.5,2.5-2.5h192.7c1.4,0,2.5,1.1,2.5,2.5v5.5
						C468.1,69,467,70.2,465.6,70.2z"/>
				</g>
			</g>
			<g>
				<g class="st20">
					<path class="st21" d="M549.6,105.5h-82.8c-1.4,0-2.5-1.1-2.5-2.5v-5.5c0-1.4,1.1-2.5,2.5-2.5h82.8c1.4,0,2.5,1.1,2.5,2.5v5.5
						C552.1,104.4,551,105.5,549.6,105.5z"/>
				</g>
				<g>
					<path class="st13" d="M548.6,105.5h-82.8c-1.4,0-2.5-1.1-2.5-2.5v-5.5c0-1.4,1.1-2.5,2.5-2.5h82.8c1.4,0,2.5,1.1,2.5,2.5v5.5
						C551.1,104.4,550,105.5,548.6,105.5z"/>
				</g>
			</g>
			<g>
				<g class="st20">
					<path class="st21" d="M608,52.7H274.6c-1.4,0-2.5-1.1-2.5-2.5v-5.5c0-1.4,1.1-2.5,2.5-2.5H608c1.4,0,2.5,1.1,2.5,2.5v5.5
						C610.5,51.6,609.4,52.7,608,52.7z"/>
				</g>
				<g>
					<path class="st13" d="M606.4,52.7H272.9c-1.4,0-2.5-1.1-2.5-2.5v-5.5c0-1.4,1.1-2.5,2.5-2.5h333.5c1.4,0,2.5,1.1,2.5,2.5v5.5
						C608.9,51.6,607.8,52.7,606.4,52.7z"/>
				</g>
			</g>
			<g>
				<g class="st20">
					<path class="st21" d="M424.1,382.9H370c-1.4,0-2.5-1.1-2.5-2.5v-5.5c0-1.4,1.1-2.5,2.5-2.5h54.1c1.4,0,2.5,1.1,2.5,2.5v5.5
						C426.6,381.8,425.5,382.9,424.1,382.9z"/>
				</g>
				<g>
					<path class="st13" d="M423.4,382.9h-54.1c-1.4,0-2.5-1.1-2.5-2.5l0-5.5c0-1.4,1.1-2.5,2.5-2.5h54.1c1.4,0,2.5,1.1,2.5,2.5v5.5
						C425.9,381.8,424.8,382.9,423.4,382.9z"/>
				</g>
			</g>
			<g>
				<g class="st20">
					<path class="st21" d="M522.5,401.4h-54.1c-1.4,0-2.5-1.1-2.5-2.5v-5.5c0-1.4,1.1-2.5,2.5-2.5h54.1c1.4,0,2.5,1.1,2.5,2.5v5.5
						C525,400.2,523.9,401.4,522.5,401.4z"/>
				</g>
				<g>
					<path class="st14" d="M521.8,401.4h-54.1c-1.4,0-2.5-1.1-2.5-2.5v-5.5c0-1.4,1.1-2.5,2.5-2.5h54.1c1.4,0,2.5,1.1,2.5,2.5v5.5
						C524.3,400.2,523.2,401.4,521.8,401.4z"/>
				</g>
			</g>
			<g>
				<g class="st20">
					<path class="st21" d="M591,226.7H446.7c-1.4,0-2.5-1.1-2.5-2.5v-5.5c0-1.4,1.1-2.5,2.5-2.5H591c1.4,0,2.5,1.1,2.5,2.5v5.5
						C593.5,225.6,592.4,226.7,591,226.7z"/>
				</g>
				<g>
					<path class="st13" d="M590,226.7H445.6c-1.4,0-2.5-1.1-2.5-2.5v-5.5c0-1.4,1.1-2.5,2.5-2.5H590c1.4,0,2.5,1.1,2.5,2.5v5.5
						C592.4,225.6,591.3,226.7,590,226.7z"/>
				</g>
			</g>
			<g>
				<g class="st20">
					<path class="st21" d="M342,226.7h-69.7c-1.4,0-2.5-1.1-2.5-2.5v-5.5c0-1.4,1.1-2.5,2.5-2.5H342c1.4,0,2.5,1.1,2.5,2.5v5.5
						C344.5,225.6,343.4,226.7,342,226.7z"/>
				</g>
				<g>
					<path class="st13" d="M341.2,226.7h-69.7c-1.4,0-2.5-1.1-2.5-2.5v-5.5c0-1.4,1.1-2.5,2.5-2.5h69.7c1.4,0,2.5,1.1,2.5,2.5v5.5
						C343.7,225.6,342.6,226.7,341.2,226.7z"/>
				</g>
			</g>
			<g>
				<g class="st20">
					<path class="st21" d="M587.9,209.5H273.2c-1.4,0-2.5-1.1-2.5-2.5v-5.5c0-1.4,1.1-2.5,2.5-2.5h314.7c1.4,0,2.5,1.1,2.5,2.5v5.5
						C590.3,208.3,589.2,209.5,587.9,209.5z"/>
				</g>
				<g>
					<path class="st13" d="M586.3,209.5H271.6c-1.4,0-2.5-1.1-2.5-2.5v-5.5c0-1.4,1.1-2.5,2.5-2.5h314.7c1.4,0,2.5,1.1,2.5,2.5v5.5
						C588.7,208.3,587.6,209.5,586.3,209.5z"/>
				</g>
			</g>
		</g>
		<g class="st22">
			<rect x="671" y="53.1" width="171.2" height="6.9"/>
			<rect x="671" y="64.2" width="68.9" height="6.9"/>
			<rect x="795.7" y="74" width="61.7" height="3.5"/>
		</g>
		<g class="st22">
			<rect x="671" y="106.8" width="171.2" height="6.9"/>
			<rect x="671" y="117.9" width="68.9" height="6.9"/>
			<rect x="795.7" y="127.7" width="61.7" height="3.5"/>
		</g>
		<g class="st22">
			<rect x="671" y="160.5" width="171.2" height="6.9"/>
			<rect x="671" y="171.6" width="68.9" height="6.9"/>
			<rect x="795.7" y="181.4" width="61.7" height="3.5"/>
		</g>
		<g class="st22">
			<rect x="671" y="214.2" width="171.2" height="6.9"/>
			<rect x="671" y="225.3" width="68.9" height="6.9"/>
			<rect x="795.7" y="235.1" width="61.7" height="3.5"/>
		</g>
		<g class="st22">
			<rect x="671" y="267.9" width="171.2" height="6.9"/>
			<rect x="671" y="278.9" width="68.9" height="6.9"/>
			<rect x="795.7" y="288.8" width="61.7" height="3.5"/>
		</g>
		<g class="st22">
			<rect x="671" y="321.5" width="171.2" height="6.9"/>
			<rect x="671" y="332.6" width="68.9" height="6.9"/>
			<rect x="795.7" y="342.4" width="61.7" height="3.5"/>
		</g>
		<g class="st22">
			<rect x="671" y="375.2" width="171.2" height="6.9"/>
			<rect x="671" y="386.3" width="68.9" height="6.9"/>
			<rect x="795.7" y="396.1" width="61.7" height="3.5"/>
		</g>
		<g class="st22">
			<rect x="671" y="428.9" width="171.2" height="6.9"/>
			<rect x="671" y="440" width="68.9" height="6.9"/>
			<rect x="795.7" y="449.8" width="61.7" height="3.5"/>
		</g>
		<g class="st22">
			<rect x="671" y="482.6" width="171.2" height="6.9"/>
			<rect x="671" y="493.7" width="68.9" height="6.9"/>
			<rect x="795.7" y="503.5" width="61.7" height="3.5"/>
		</g>
	</g>
</g>
</svg>
