<?xml version="1.0" encoding="utf-8"?>
<!-- Generator: Adobe Illustrator 19.1.0, SVG Export Plug-In . SVG Version: 6.00 Build 0)  -->
<!DOCTYPE svg PUBLIC "-//W3C//DTD SVG 1.1//EN" "http://www.w3.org/Graphics/SVG/1.1/DTD/svg11.dtd">
<svg version="1.1" id="Layer_1" xmlns="http://www.w3.org/2000/svg" xmlns:xlink="http://www.w3.org/1999/xlink" x="0px" y="0px"
	 viewBox="149 -273 425.2 878.6" style="enable-background:new 149 -273 425.2 878.6;" xml:space="preserve">
<style type="text/css">
	.st0{fill:#CAC9C9;}
	.st1{opacity:0.2;}
	.st2{fill:#231F20;}
	.st3{fill:#F1817D;}
	.st4{fill:#73C5A4;}
	.st5{opacity:0.5;}
	.st6{fill:#AA9CB5;}
	.st7{fill:#82B1D8;}
	.st8{fill:url(#SVGID_1_);}
	.st9{fill:#566E83;}
	.st10{fill:#CCCBCB;}
	.st11{fill:#F3837D;}
	.st12{fill:#DEB26F;}
	.st13{fill:#AC9EB7;}
	.st14{fill:#84B3DA;}
</style>
<g>
	<g>
		<rect x="169.8" y="191.8" class="st0" width="242.7" height="22.5"/>
		<rect x="169.8" y="79.7" class="st0" width="347.6" height="22.5"/>
		<rect x="169.8" y="154.4" class="st0" width="361.9" height="22.5"/>
		<rect x="169.8" y="-69.8" class="st0" width="361.9" height="22.5"/>
		<rect x="169.8" y="117" class="st0" width="378.2" height="22.5"/>
		<rect x="169.8" y="-32.4" class="st0" width="378.2" height="22.5"/>
		<rect x="169.8" y="42.3" class="st0" width="331.7" height="22.5"/>
		<rect x="169.8" y="5" class="st0" width="347.6" height="22.5"/>
		<g>
			<g class="st1">
				<path class="st2" d="M329.7,214.2H169c-4.8,0-8.6-3.9-8.6-8.6v-5.2c0-4.8,3.9-8.6,8.6-8.6h160.7c4.8,0,8.6,3.9,8.6,8.6v5.2
					C338.3,210.4,334.4,214.2,329.7,214.2z"/>
			</g>
			<g>
				<path class="st3" d="M327.1,214.2H166.4c-4.8,0-8.6-3.9-8.6-8.6v-5.2c0-4.8,3.9-8.6,8.6-8.6h160.7c4.8,0,8.6,3.9,8.6,8.6v5.2
					C335.7,210.4,331.8,214.2,327.1,214.2z"/>
			</g>
		</g>
		<g>
			<g class="st1">
				<path class="st2" d="M468,42.3H169c-4.8,0-8.6,3.9-8.6,8.6v5.2c0,4.8,3.9,8.6,8.6,8.6h299c4.8,0,8.6-3.9,8.6-8.6v-5.2
					C476.7,46.1,472.8,42.3,468,42.3z"/>
			</g>
			<g>
				<path class="st4" d="M465.4,42.3h-299c-4.8,0-8.6,3.9-8.6,8.6v5.2c0,4.8,3.9,8.6,8.6,8.6h299c4.8,0,8.6-3.9,8.6-8.6v-5.2
					C474.1,46.1,470.2,42.3,465.4,42.3z"/>
			</g>
		</g>
		<g>
			<g class="st1">
				<path class="st2" d="M530.4,5H165.5c-4.8,0-8.6,3.9-8.6,8.6v5.2c0,4.8,3.9,8.6,8.6,8.6h364.9c4.8,0,8.6-3.9,8.6-8.6v-5.2
					C539,8.8,535.2,5,530.4,5z"/>
			</g>
			<g>
				<path class="st4" d="M527.8,5H162.9c-4.8,0-8.6,3.9-8.6,8.6v5.2c0,4.8,3.9,8.6,8.6,8.6h364.9c4.8,0,8.6-3.9,8.6-8.6v-5.2
					C536.4,8.8,532.6,5,527.8,5z"/>
			</g>
		</g>
		<g>
			<g class="st1">
				<path class="st2" d="M560.3-32.4H165.5c-4.8,0-8.6,3.9-8.6,8.6v5.2c0,4.8,3.9,8.6,8.6,8.6h394.7c4.8,0,8.6-3.9,8.6-8.6v-5.2
					C568.9-28.6,565.1-32.4,560.3-32.4z"/>
			</g>
			<g>
				<path class="st4" d="M557.7-32.4H162.9c-4.8,0-8.6,3.9-8.6,8.6v5.2c0,4.8,3.9,8.6,8.6,8.6h394.7c4.8,0,8.6-3.9,8.6-8.6v-5.2
					C566.3-28.6,562.5-32.4,557.7-32.4z"/>
			</g>
		</g>
		<g>
			<g class="st1">
				<path class="st2" d="M560.3-69.8H165.5c-4.8,0-8.6,3.9-8.6,8.6v5.2c0,4.8,3.9,8.6,8.6,8.6h394.7c4.8,0,8.6-3.9,8.6-8.6v-5.2
					C568.9-65.9,565.1-69.8,560.3-69.8z"/>
			</g>
			<g>
				<path class="st4" d="M557.7-69.8H162.9c-4.8,0-8.6,3.9-8.6,8.6v5.2c0,4.8,3.9,8.6,8.6,8.6h394.7c4.8,0,8.6-3.9,8.6-8.6v-5.2
					C566.3-65.9,562.5-69.8,557.7-69.8z"/>
			</g>
		</g>
		<g class="st5">
			<path d="M164.2-64.9c-0.2-0.2-0.5-0.3-0.8-0.3c-0.3,0-0.6,0.1-0.8,0.3c-0.2,0.2-0.3,0.5-0.3,0.8c0,0.2,0.1,0.4,0.2,0.6
				c0.1,0.2,0.2,0.3,0.4,0.4V-52c0,0.1,0,0.1,0.1,0.2c0.1,0.1,0.1,0.1,0.2,0.1h0.6c0.1,0,0.1,0,0.2-0.1s0.1-0.1,0.1-0.2v-11.1
				c0.2-0.1,0.3-0.2,0.4-0.4s0.2-0.4,0.2-0.6C164.5-64.4,164.4-64.7,164.2-64.9z"/>
			<path d="M177.1-64.1c-0.2-0.1-0.4-0.1-0.5,0c-0.1,0-0.1,0.1-0.3,0.1c-1.1,0.7-2,1-2.7,1c-0.3,0-0.6-0.1-0.8-0.2
				c-0.7-0.3-1.3-0.6-1.8-0.8c-0.6-0.2-1.2-0.3-1.8-0.3c-0.4,0-0.9,0.1-1.4,0.2c-0.5,0.1-0.9,0.3-1.3,0.4c-0.4,0.2-0.7,0.3-1,0.5
				c0,0-0.1,0-0.1,0.1c-0.2,0.1-0.4,0.2-0.6,0.3s-0.3,0.3-0.3,0.5v6.5c0,0.2,0.1,0.4,0.3,0.5c0.1,0,0.2,0.1,0.3,0.1
				c0.1,0,0.2,0,0.3-0.1l0,0c0.6-0.3,1.2-0.6,2-0.9c0.8-0.3,1.5-0.4,2.1-0.4c0.3,0,0.7,0,1,0.1s0.6,0.2,0.8,0.3s0.5,0.2,0.9,0.4
				l0.2,0.1c0.4,0.2,0.9,0.3,1.4,0.3c0.9,0,2-0.3,3.2-1c0,0,0.1,0,0.1-0.1c0.2-0.1,0.3-0.3,0.3-0.5v-6.7
				C177.4-63.8,177.3-63.9,177.1-64.1z"/>
		</g>
		<g>
			<g class="st1">
				<path class="st2" d="M389.5-9.9h-224c-4.8,0-8.6-3.9-8.6-8.6v-5.2c0-4.8,3.9-8.6,8.6-8.6h224c4.8,0,8.6,3.9,8.6,8.6v5.2
					C398.2-13.8,394.3-9.9,389.5-9.9z"/>
			</g>
			<g>
				<path class="st6" d="M386.9-9.9h-224c-4.8,0-8.6-3.9-8.6-8.6v-5.2c0-4.8,3.9-8.6,8.6-8.6h224c4.8,0,8.6,3.9,8.6,8.6v5.2
					C395.6-13.8,391.7-9.9,386.9-9.9z"/>
			</g>
		</g>
		<g>
			<g class="st1">
				<path class="st2" d="M432.9,139.5H169c-4.8,0-8.6-3.9-8.6-8.6v-5.2c0-4.8,3.9-8.6,8.6-8.6h263.9c4.8,0,8.6,3.9,8.6,8.6v5.2
					C441.5,135.7,437.7,139.5,432.9,139.5z"/>
			</g>
			<g>
				<path class="st6" d="M430.3,139.5H166.4c-4.8,0-8.6-3.9-8.6-8.6v-5.2c0-4.8,3.9-8.6,8.6-8.6h263.9c4.8,0,8.6,3.9,8.6,8.6v5.2
					C438.9,135.7,435.1,139.5,430.3,139.5z"/>
			</g>
		</g>
		<g>
			<g class="st1">
				<path class="st2" d="M539.7,176.9H449c-4.8,0-8.6-3.9-8.6-8.6V163c0-4.8,3.9-8.6,8.6-8.6h90.7c4.8,0,8.6,3.9,8.6,8.6v5.2
					C548.3,173,544.4,176.9,539.7,176.9z"/>
			</g>
			<g>
				<path class="st7" d="M538.3,176.9h-90.7c-4.8,0-8.6-3.9-8.6-8.6V163c0-4.8,3.9-8.6,8.6-8.6h90.7c4.8,0,8.6,3.9,8.6,8.6v5.2
					C546.9,173,543.1,176.9,538.3,176.9z"/>
			</g>
		</g>
	</g>
	<rect x="167.7" y="-144.4" class="st0" width="242.7" height="22.5"/>
	<rect x="167.7" y="-181.8" class="st0" width="361.9" height="22.5"/>
	<rect x="167.7" y="-219.2" class="st0" width="378.2" height="22.5"/>
	<g>
		<g class="st1">
			<path class="st2" d="M523.5-196.7H166.9c-4.8,0-8.6-3.9-8.6-8.6v-5.2c0-4.8,3.9-8.6,8.6-8.6h356.6c4.8,0,8.6,3.9,8.6,8.6v5.2
				C532.2-200.5,528.3-196.7,523.5-196.7z"/>
		</g>
		<g>
			<path class="st6" d="M520.9-196.7H164.3c-4.8,0-8.6-3.9-8.6-8.6v-5.2c0-4.8,3.9-8.6,8.6-8.6h356.6c4.8,0,8.6,3.9,8.6,8.6v5.2
				C529.6-200.5,525.7-196.7,520.9-196.7z"/>
		</g>
	</g>
	<g>
		<g class="st1">
			<path class="st2" d="M317.6-159.3H166.9c-4.8,0-8.6-3.9-8.6-8.6v-5.2c0-4.8,3.9-8.6,8.6-8.6h150.7c4.8,0,8.6,3.9,8.6,8.6v5.2
				C326.2-163.2,322.3-159.3,317.6-159.3z"/>
		</g>
		<g>
			<path class="st6" d="M315-159.3H164.3c-4.8,0-8.6-3.9-8.6-8.6v-5.2c0-4.8,3.9-8.6,8.6-8.6H315c4.8,0,8.6,3.9,8.6,8.6v5.2
				C323.6-163.2,319.7-159.3,315-159.3z"/>
		</g>
	</g>
</g>
<g>
	
		<linearGradient id="SVGID_1_" gradientUnits="userSpaceOnUse" x1="361.6" y1="346.8" x2="361.6" y2="185.1" gradientTransform="matrix(1 0 0 -1 0 130)">
		<stop  offset="0" style="stop-color:#566E83"/>
		<stop  offset="1" style="stop-color:#546C80;stop-opacity:0"/>
	</linearGradient>
	<rect x="149" y="-216.8" class="st8" width="425.2" height="161.7"/>
	<rect x="149" y="-273" class="st9" width="425.2" height="57.1"/>
</g>
<g>
	<rect x="167.9" y="549.6" class="st10" width="250.3" height="23.2"/>
	<rect x="167.9" y="434" class="st10" width="358.6" height="23.2"/>
	<rect x="167.9" y="511.1" class="st10" width="373.3" height="23.2"/>
	<rect x="167.9" y="279.8" class="st10" width="373.3" height="23.2"/>
	<rect x="167.9" y="472.6" class="st10" width="390.1" height="23.2"/>
	<rect x="167.9" y="318.4" class="st10" width="390.1" height="23.2"/>
	<rect x="167.9" y="395.5" class="st10" width="342.2" height="23.2"/>
	<rect x="167.9" y="356.9" class="st10" width="358.6" height="23.2"/>
	<g>
		<g class="st1">
			<path class="st2" d="M443.4,341.6H166.8c-4.8,0-8.6-3.9-8.6-8.6V327c0-4.8,3.9-8.6,8.6-8.6h276.6c4.8,0,8.6,3.9,8.6,8.6v5.9
				C452,337.7,448.1,341.6,443.4,341.6z"/>
		</g>
		<g>
			<path class="st11" d="M440.7,341.6H164.1c-4.8,0-8.6-3.9-8.6-8.6V327c0-4.8,3.9-8.6,8.6-8.6h276.6c4.8,0,8.6,3.9,8.6,8.6v5.9
				C449.3,337.7,445.4,341.6,440.7,341.6z"/>
		</g>
	</g>
	<g>
		<g class="st1">
			<path class="st2" d="M475.8,395.9H374.3c-4.8,0-8.6,3.9-8.6,8.6v5.9c0,4.8,3.9,8.6,8.6,8.6h101.5c4.8,0,8.6-3.9,8.6-8.6v-5.9
				C484.4,399.7,480.5,395.9,475.8,395.9z"/>
		</g>
		<g>
			<path class="st12" d="M473.1,395.9H371.6c-4.8,0-8.6,3.9-8.6,8.6v5.9c0,4.8,3.9,8.6,8.6,8.6h101.5c4.8,0,8.6-3.9,8.6-8.6v-5.9
				C481.7,399.7,477.9,395.9,473.1,395.9z"/>
		</g>
	</g>
	<path d="M165.3,478.1c-0.2-0.2-0.5-0.3-0.8-0.3c-0.3,0-0.6,0.1-0.8,0.3c-0.2,0.2-0.3,0.5-0.3,0.8c0,0.2,0.1,0.4,0.2,0.6
		c0.1,0.2,0.2,0.3,0.4,0.4v11.4c0,0.1,0,0.2,0.1,0.2c0.1,0.1,0.1,0.1,0.2,0.1h0.6c0.1,0,0.2,0,0.2-0.1c0.1-0.1,0.1-0.1,0.1-0.2
		v-11.4c0.2-0.1,0.3-0.2,0.4-0.4c0.1-0.2,0.2-0.4,0.2-0.6C165.7,478.6,165.6,478.3,165.3,478.1z"/>
	<path d="M178.7,479c-0.2-0.1-0.4-0.1-0.6,0c-0.1,0-0.1,0.1-0.3,0.2c-1.1,0.7-2.1,1-2.8,1c-0.3,0-0.6-0.1-0.8-0.2
		c-0.7-0.3-1.3-0.6-1.9-0.8c-0.6-0.2-1.2-0.3-1.9-0.3c-0.4,0-0.9,0.1-1.4,0.2c-0.5,0.1-1,0.3-1.4,0.4c-0.4,0.2-0.8,0.3-1,0.5
		c0,0-0.1,0-0.1,0.1c-0.2,0.1-0.4,0.2-0.6,0.3c-0.2,0.1-0.3,0.3-0.3,0.5v6.7c0,0.2,0.1,0.4,0.3,0.5c0.1,0,0.2,0.1,0.3,0.1
		c0.1,0,0.2,0,0.3-0.1c0,0,0,0,0,0c0.6-0.3,1.3-0.7,2.1-0.9c0.8-0.3,1.5-0.4,2.1-0.4c0.3,0,0.7,0,1,0.1c0.3,0.1,0.6,0.2,0.8,0.3
		c0.2,0.1,0.5,0.2,0.9,0.4l0.3,0.1c0.4,0.2,0.9,0.3,1.4,0.3c0.9,0,2-0.3,3.3-1c0,0,0.1-0.1,0.2-0.1c0.2-0.1,0.3-0.3,0.3-0.5v-6.9
		C179,479.3,178.9,479.1,178.7,479z"/>
	<g>
		<g class="st1">
			<path class="st2" d="M535.2,495.7H166.8c-4.8,0-8.6-3.9-8.6-8.6v-5.9c0-4.8,3.9-8.6,8.6-8.6h368.5c4.8,0,8.6,3.9,8.6,8.6v5.9
				C543.9,491.9,540,495.7,535.2,495.7z"/>
		</g>
		<g>
			<path class="st13" d="M532.6,495.7H164.1c-4.8,0-8.6-3.9-8.6-8.6v-5.9c0-4.8,3.9-8.6,8.6-8.6h368.5c4.8,0,8.6,3.9,8.6,8.6v5.9
				C541.2,491.9,537.3,495.7,532.6,495.7z"/>
		</g>
	</g>
	<g>
		<g class="st1">
			<path class="st2" d="M322.8,534.3l-156,0c-4.8,0-8.6-3.9-8.6-8.6v-5.9c0-4.8,3.9-8.6,8.6-8.6h156c4.8,0,8.6,3.9,8.6,8.6v5.9
				C331.4,530.4,327.5,534.3,322.8,534.3z"/>
		</g>
		<g>
			<path class="st13" d="M320.1,534.3l-156,0c-4.8,0-8.6-3.9-8.6-8.6v-5.9c0-4.8,3.9-8.6,8.6-8.6h156c4.8,0,8.6,3.9,8.6,8.6v5.9
				C328.7,530.4,324.8,534.3,320.1,534.3z"/>
		</g>
	</g>
	<g>
		<g class="st1">
			<path class="st2" d="M377.2,534.3H283c-4.8,0-8.6-3.9-8.6-8.6v-5.9c0-4.8,3.9-8.6,8.6-8.6h94.2c4.8,0,8.6,3.9,8.6,8.6v5.9
				C385.8,530.4,382,534.3,377.2,534.3z"/>
		</g>
		<g>
			<path class="st14" d="M375.8,534.3h-94.2c-4.8,0-8.6-3.9-8.6-8.6v-5.9c0-4.8,3.9-8.6,8.6-8.6h94.2c4.8,0,8.6,3.9,8.6,8.6v5.9
				C384.4,530.4,380.5,534.3,375.8,534.3z"/>
		</g>
	</g>
	<g>
		<g class="st1">
			<path class="st2" d="M259.7,380.1h-94.2c-4.8,0-8.6-3.9-8.6-8.6v-5.9c0-4.8,3.9-8.6,8.6-8.6h94.2c4.8,0,8.6,3.9,8.6,8.6v5.9
				C268.3,376.3,264.4,380.1,259.7,380.1z"/>
		</g>
		<g>
			<path class="st14" d="M258.3,380.1h-94.2c-4.8,0-8.6-3.9-8.6-8.6v-5.9c0-4.8,3.9-8.6,8.6-8.6h94.2c4.8,0,8.6,3.9,8.6,8.6v5.9
				C266.9,376.3,263,380.1,258.3,380.1z"/>
		</g>
	</g>
</g>
</svg>
