<?xml version="1.0" encoding="utf-8"?>
<!-- Generator: Adobe Illustrator 19.1.0, SVG Export Plug-In . SVG Version: 6.00 Build 0)  -->
<!DOCTYPE svg PUBLIC "-//W3C//DTD SVG 1.1//EN" "http://www.w3.org/Graphics/SVG/1.1/DTD/svg11.dtd">
<svg version="1.1" id="Layer_1" xmlns="http://www.w3.org/2000/svg" xmlns:xlink="http://www.w3.org/1999/xlink" x="0px" y="0px"
	 viewBox="0 0 126.7 166.7" style="enable-background:new 0 0 126.7 166.7;" xml:space="preserve">
<style type="text/css">
	.st0{fill:#EBEBEB;}
	.st1{fill:#CACACA;}
	.st2{fill:none;}
	.st3{fill:#979797;}
	.st4{font-family:'DINAlternate-Bold';}
	.st5{font-size:31.1462px;}
	.st6{fill:none;stroke:#CACACA;stroke-width:0.8899;stroke-miterlimit:10;}
	.st7{opacity:0.2;}
	.st8{fill:#231F20;}
	.st9{fill:#F1817D;}
	.st10{fill:#DCB070;}
	.st11{fill:#73C5A4;}
	.st12{fill:#AA9CB5;}
	.st13{fill:#82B1D8;}
</style>
<g>
	<g>
		<path class="st0" d="M95.7,25.7V0H5.3C2.4,0,0,2.4,0,5.3v156c0,2.9,2.4,5.3,5.3,5.3h116c2.9,0,5.3-2.4,5.3-5.3V31h-25.6
			C98.1,31,95.7,28.6,95.7,25.7z"/>
		<path class="st1" d="M95.7,25.7c0,2.9,2.4,5.3,5.3,5.3h25.6L95.7,0V25.7z"/>
		<rect x="12.1" y="16.3" class="st2" width="83.6" height="32.9"/>
		<text transform="matrix(1 0 0 1 12.088 38.5181)" class="st3 st4 st5">CSV</text>
		<line class="st6" x1="0" y1="53.7" x2="126.7" y2="53.7"/>
	</g>
	<g>
		<g>
			<g class="st7">
				<path class="st8" d="M56.4,107.9h-39c-1.4,0-2.5-1.1-2.5-2.5v-0.2c0-1.4,1.1-2.5,2.5-2.5h39c1.4,0,2.5,1.1,2.5,2.5v0.2
					C59,106.7,57.9,107.9,56.4,107.9z"/>
			</g>
			<g>
				<path class="st9" d="M55.8,107.9h-39c-1.4,0-2.5-1.1-2.5-2.5v-0.2c0-1.4,1.1-2.5,2.5-2.5h39c1.4,0,2.5,1.1,2.5,2.5v0.2
					C58.3,106.7,57.2,107.9,55.8,107.9z"/>
			</g>
		</g>
		<g>
			<g class="st7">
				<path class="st8" d="M59.8,113.7H17.7c-1.4,0-2.5,1.1-2.5,2.5v0.2c0,1.4,1.1,2.5,2.5,2.5h42.1c1.4,0,2.5-1.1,2.5-2.5v-0.2
					C62.3,114.9,61.2,113.7,59.8,113.7z"/>
			</g>
			<g>
				<path class="st10" d="M59,113.7H16.8c-1.4,0-2.5,1.1-2.5,2.5v0.2c0,1.4,1.1,2.5,2.5,2.5H59c1.4,0,2.5-1.1,2.5-2.5v-0.2
					C61.5,114.9,60.4,113.7,59,113.7z"/>
			</g>
		</g>
		<g>
			<g>
				<g class="st7">
					<path class="st8" d="M110.5,130.3h-93c-1.4,0-2.5-1.1-2.5-2.5v-0.2c0-1.4,1.1-2.5,2.5-2.5h93c1.4,0,2.5,1.1,2.5,2.5v0.2
						C113,129.1,111.9,130.3,110.5,130.3z"/>
				</g>
				<g>
					<path class="st11" d="M109.8,130.3h-93c-1.4,0-2.5-1.1-2.5-2.5v-0.2c0-1.4,1.1-2.5,2.5-2.5h93c1.4,0,2.5,1.1,2.5,2.5v0.2
						C112.4,129.1,111.2,130.3,109.8,130.3z"/>
				</g>
			</g>
			<g>
				<g class="st7">
					<path class="st8" d="M110.5,139.1h-93c-1.4,0-2.5-1.1-2.5-2.5v-0.2c0-1.4,1.1-2.5,2.5-2.5h93c1.4,0,2.5,1.1,2.5,2.5v0.2
						C113,137.9,111.9,139.1,110.5,139.1z"/>
				</g>
				<g>
					<path class="st11" d="M109.8,139.1h-93c-1.4,0-2.5-1.1-2.5-2.5v-0.2c0-1.4,1.1-2.5,2.5-2.5h93c1.4,0,2.5,1.1,2.5,2.5v0.2
						C112.4,137.9,111.2,139.1,109.8,139.1z"/>
				</g>
			</g>
			<g>
				<g class="st7">
					<path class="st8" d="M46.3,147.9H17.5c-1.4,0-2.5-1.1-2.5-2.5v-0.2c0-1.4,1.1-2.5,2.5-2.5h28.8c1.4,0,2.5,1.1,2.5,2.5v0.2
						C48.9,146.8,47.7,147.9,46.3,147.9z"/>
				</g>
				<g>
					<path class="st11" d="M45.7,147.9H16.8c-1.4,0-2.5-1.1-2.5-2.5v-0.2c0-1.4,1.1-2.5,2.5-2.5h28.8c1.4,0,2.5,1.1,2.5,2.5v0.2
						C48.2,146.8,47.1,147.9,45.7,147.9z"/>
				</g>
			</g>
		</g>
		<g>
			<g class="st7">
				<path class="st8" d="M85.1,85.6H17.4c-1.4,0-2.5-1.1-2.5-2.5v-0.2c0-1.4,1.1-2.5,2.5-2.5h67.6c1.4,0,2.5,1.1,2.5,2.5v0.2
					C87.5,84.5,86.4,85.6,85.1,85.6z"/>
			</g>
			<g>
				<path class="st9" d="M84.4,85.6H16.8c-1.4,0-2.5-1.1-2.5-2.5v-0.2c0-1.4,1.1-2.5,2.5-2.5h67.6c1.4,0,2.5,1.1,2.5,2.5v0.2
					C86.9,84.5,85.8,85.6,84.4,85.6z"/>
			</g>
		</g>
		<g>
			<g class="st7">
				<path class="st8" d="M107.7,96.7H17.4c-1.4,0-2.5-1.1-2.5-2.5V94c0-1.4,1.1-2.5,2.5-2.5h90.3c1.4,0,2.5,1.1,2.5,2.5v0.2
					C110.2,95.6,109.1,96.7,107.7,96.7z"/>
			</g>
			<g>
				<path class="st12" d="M107.1,96.7H16.8c-1.4,0-2.5-1.1-2.5-2.5V94c0-1.4,1.1-2.5,2.5-2.5h90.3c1.4,0,2.5,1.1,2.5,2.5v0.2
					C109.6,95.6,108.5,96.7,107.1,96.7z"/>
			</g>
		</g>
		<g>
			<g>
				<g class="st7">
					<path class="st8" d="M111.9,66H17.4c-1.4,0-2.5-1.1-2.5-2.5l0-0.2c0-1.4,1.1-2.5,2.5-2.5h94.5c1.4,0,2.5,1.1,2.5,2.5v0.2
						C114.4,64.9,113.3,66,111.9,66z"/>
				</g>
				<g>
					<path class="st13" d="M111.3,66H16.8c-1.4,0-2.5-1.1-2.5-2.5v-0.2c0-1.4,1.1-2.5,2.5-2.5h94.5c1.4,0,2.5,1.1,2.5,2.5v0.2
						C113.7,64.9,112.6,66,111.3,66z"/>
				</g>
			</g>
			<g>
				<g class="st7">
					<path class="st8" d="M61.4,74.6H17.2c-1.4,0-2.5-1.1-2.5-2.5v-0.2c0-1.4,1.1-2.5,2.5-2.5h44.2c1.4,0,2.5,1.1,2.5,2.5v0.2
						C63.9,73.5,62.8,74.6,61.4,74.6z"/>
				</g>
				<g>
					<path class="st13" d="M61,74.6H16.8c-1.4,0-2.5-1.1-2.5-2.5v-0.2c0-1.4,1.1-2.5,2.5-2.5H61c1.4,0,2.5,1.1,2.5,2.5v0.2
						C63.5,73.5,62.4,74.6,61,74.6z"/>
				</g>
			</g>
		</g>
	</g>
</g>
</svg>
