<?xml version="1.0" encoding="utf-8"?>
<!-- Generator: Adobe Illustrator 19.1.0, SVG Export Plug-In . SVG Version: 6.00 Build 0)  -->
<!DOCTYPE svg PUBLIC "-//W3C//DTD SVG 1.1//EN" "http://www.w3.org/Graphics/SVG/1.1/DTD/svg11.dtd">
<svg version="1.1" id="Layer_1" xmlns="http://www.w3.org/2000/svg" xmlns:xlink="http://www.w3.org/1999/xlink" x="0px" y="0px"
	 viewBox="0 0 70 85" style="enable-background:new 0 0 70 85;" xml:space="preserve">
<style type="text/css">
	.st0{fill:#DCDCDC;}
	.st1{fill:#989898;}
	.st2{opacity:0.2;}
	.st3{fill:#231F20;}
	.st4{fill:#F1817D;}
	.st5{fill:#DCB070;}
	.st6{fill:#73C5A4;}
	.st7{fill:#82B1D8;}
	.st8{fill:#AA9CB5;}
</style>
<g>
	<path class="st0" d="M52.9,13.1V0H3C1.3,0,0,1.2,0,2.7v79.6C0,83.8,1.3,85,3,85H67c1.6,0,3-1.2,3-2.7V15.8H55.9
		C54.2,15.8,52.9,14.6,52.9,13.1z"/>
	<g>
		<rect x="10.6" y="73.5" class="st1" width="28.6" height="2.9"/>
		<rect x="10.6" y="59.1" class="st1" width="41" height="2.9"/>
		<rect x="10.6" y="68.7" class="st1" width="42.7" height="2.9"/>
		<rect x="10.6" y="40" class="st1" width="42.7" height="2.9"/>
		<rect x="10.6" y="63.9" class="st1" width="44.6" height="2.9"/>
		<rect x="10.6" y="44.7" class="st1" width="44.6" height="2.9"/>
		<rect x="10.6" y="54.3" class="st1" width="39.1" height="2.9"/>
		<rect x="10.6" y="49.5" class="st1" width="41" height="2.9"/>
		<g>
			<g class="st2">
				<path class="st3" d="M27.9,42.8H10.8c-0.7,0-1.3-0.6-1.3-1.3v-0.2c0-0.7,0.6-1.3,1.3-1.3h17.1c0.7,0,1.3,0.6,1.3,1.3v0.2
					C29.3,42.2,28.7,42.8,27.9,42.8z"/>
			</g>
			<g>
				<path class="st4" d="M27.6,42.8H10.5c-0.7,0-1.3-0.6-1.3-1.3v-0.2c0-0.7,0.6-1.3,1.3-1.3h17.1c0.7,0,1.3,0.6,1.3,1.3v0.2
					C28.9,42.2,28.3,42.8,27.6,42.8z"/>
			</g>
		</g>
		<g>
			<g class="st2">
				<path class="st3" d="M36.9,40H26.1c-0.7,0-1.3,0.6-1.3,1.3v0.2c0,0.7,0.6,1.3,1.3,1.3h10.9c0.7,0,1.3-0.6,1.3-1.3v-0.2
					C38.3,40.6,37.7,40,36.9,40z"/>
			</g>
			<g>
				<path class="st5" d="M36.6,40H25.7c-0.7,0-1.3,0.6-1.3,1.3v0.2c0,0.7,0.6,1.3,1.3,1.3h10.9c0.7,0,1.3-0.6,1.3-1.3v-0.2
					C38,40.6,37.4,40,36.6,40z"/>
			</g>
		</g>
		<g>
			<g class="st2">
				<path class="st3" d="M52.2,57.2H10.8c-0.7,0-1.3-0.6-1.3-1.3v-0.2c0-0.7,0.6-1.3,1.3-1.3h41.4c0.7,0,1.3,0.6,1.3,1.3v0.2
					C53.5,56.6,52.9,57.2,52.2,57.2z"/>
			</g>
			<g>
				<path class="st6" d="M51.9,57.2H10.5c-0.7,0-1.3-0.6-1.3-1.3v-0.2c0-0.7,0.6-1.3,1.3-1.3h41.4c0.7,0,1.3,0.6,1.3,1.3v0.2
					C53.2,56.6,52.6,57.2,51.9,57.2z"/>
			</g>
		</g>
		<g>
			<g class="st2">
				<path class="st3" d="M52.2,62H10.8c-0.7,0-1.3-0.6-1.3-1.3v-0.2c0-0.7,0.6-1.3,1.3-1.3h41.4c0.7,0,1.3,0.6,1.3,1.3v0.2
					C53.5,61.4,52.9,62,52.2,62z"/>
			</g>
			<g>
				<path class="st6" d="M51.9,62H10.5c-0.7,0-1.3-0.6-1.3-1.3v-0.2c0-0.7,0.6-1.3,1.3-1.3h41.4c0.7,0,1.3,0.6,1.3,1.3v0.2
					C53.2,61.4,52.6,62,51.9,62z"/>
			</g>
		</g>
		<g>
			<g class="st2">
				<path class="st3" d="M23.4,66.8H10.8c-0.7,0-1.3-0.6-1.3-1.3v-0.2c0-0.7,0.6-1.3,1.3-1.3h12.6c0.7,0,1.3,0.6,1.3,1.3v0.2
					C24.7,66.2,24.1,66.8,23.4,66.8z"/>
			</g>
			<g>
				<path class="st6" d="M23,66.8H10.5c-0.7,0-1.3-0.6-1.3-1.3v-0.2c0-0.7,0.6-1.3,1.3-1.3H23c0.7,0,1.3,0.6,1.3,1.3v0.2
					C24.4,66.2,23.8,66.8,23,66.8z"/>
			</g>
		</g>
		<g>
			<g class="st2">
				<path class="st3" d="M55.2,71.5H10.8c-0.7,0-1.3-0.6-1.3-1.3V70c0-0.7,0.6-1.3,1.3-1.3h44.4c0.7,0,1.3,0.6,1.3,1.3v0.2
					C56.6,70.9,56,71.5,55.2,71.5z"/>
			</g>
			<g>
				<path class="st7" d="M54.9,71.5H10.5c-0.7,0-1.3-0.6-1.3-1.3l0-0.2c0-0.7,0.6-1.3,1.3-1.3h44.4c0.7,0,1.3,0.6,1.3,1.3v0.2
					C56.3,70.9,55.7,71.5,54.9,71.5z"/>
			</g>
		</g>
		<g>
			<g class="st2">
				<path class="st3" d="M41.7,76.3H10.8c-0.7,0-1.3-0.6-1.3-1.3v-0.2c0-0.7,0.6-1.3,1.3-1.3h30.9c0.7,0,1.3,0.6,1.3,1.3V75
					C43,75.7,42.4,76.3,41.7,76.3z"/>
			</g>
			<g>
				<path class="st7" d="M41.4,76.3H10.5c-0.7,0-1.3-0.6-1.3-1.3l0-0.2c0-0.7,0.6-1.3,1.3-1.3h30.9c0.7,0,1.3,0.6,1.3,1.3V75
					C42.7,75.7,42.1,76.3,41.4,76.3z"/>
			</g>
		</g>
	</g>
	<g>
		<rect x="10.8" y="30" class="st1" width="39.8" height="2.8"/>
		<rect x="10.8" y="11.4" class="st1" width="35.8" height="2.8"/>
		<rect x="10.8" y="34.6" class="st1" width="43.3" height="2.8"/>
		<rect x="10.8" y="16" class="st1" width="36.4" height="2.8"/>
		<rect x="10.8" y="25.3" class="st1" width="38" height="2.8"/>
		<rect x="10.8" y="20.7" class="st1" width="39.8" height="2.8"/>
		<g>
			<g>
				<g class="st2">
					<path class="st3" d="M41,18.8H11c-0.7,0-1.3-0.6-1.3-1.3v-0.2c0-0.7,0.6-1.3,1.3-1.3h30c0.7,0,1.3,0.6,1.3,1.3v0.2
						C42.3,18.3,41.7,18.8,41,18.8z"/>
				</g>
				<g>
					<path class="st4" d="M40.7,18.8h-30c-0.7,0-1.3-0.6-1.3-1.3v-0.2c0-0.7,0.6-1.3,1.3-1.3h30c0.7,0,1.3,0.6,1.3,1.3v0.2
						C42,18.3,41.4,18.8,40.7,18.8z"/>
				</g>
			</g>
			<g>
				<g class="st2">
					<path class="st3" d="M44.6,25.4H34c-0.7,0-1.3,0.6-1.3,1.3v0.2c0,0.7,0.6,1.3,1.3,1.3h10.6c0.7,0,1.3-0.6,1.3-1.3v-0.2
						C45.9,26,45.3,25.4,44.6,25.4z"/>
				</g>
				<g>
					<path class="st5" d="M44.3,25.4H33.7c-0.7,0-1.3,0.6-1.3,1.3v0.2c0,0.7,0.6,1.3,1.3,1.3h10.6c0.7,0,1.3-0.6,1.3-1.3v-0.2
						C45.6,26,45,25.4,44.3,25.4z"/>
				</g>
			</g>
		</g>
		<g>
			<g class="st2">
				<path class="st3" d="M51.2,37.4H11c-0.7,0-1.3-0.6-1.3-1.3v-0.2c0-0.7,0.6-1.3,1.3-1.3h40.2c0.7,0,1.3,0.6,1.3,1.3v0.2
					C52.5,36.8,51.9,37.4,51.2,37.4z"/>
			</g>
			<g>
				<path class="st8" d="M50.9,37.4H10.7c-0.7,0-1.3-0.6-1.3-1.3v-0.2c0-0.7,0.6-1.3,1.3-1.3h40.2c0.7,0,1.3,0.6,1.3,1.3v0.2
					C52.2,36.8,51.6,37.4,50.9,37.4z"/>
			</g>
		</g>
		<g>
			<g class="st2">
				<path class="st3" d="M46.8,14.2H11c-0.7,0-1.3-0.6-1.3-1.3v-0.2c0-0.7,0.6-1.3,1.3-1.3h35.8c0.7,0,1.3,0.6,1.3,1.3v0.2
					C48.1,13.6,47.5,14.2,46.8,14.2z"/>
			</g>
			<g>
				<path class="st7" d="M46.5,14.2H10.7c-0.7,0-1.3-0.6-1.3-1.3v-0.2c0-0.7,0.6-1.3,1.3-1.3h35.8c0.7,0,1.3,0.6,1.3,1.3v0.2
					C47.8,13.6,47.2,14.2,46.5,14.2z"/>
			</g>
		</g>
		<g>
			<g class="st2">
				<path class="st3" d="M30.4,18.8H10.9c-0.7,0-1.3-0.6-1.3-1.3v-0.2c0-0.7,0.6-1.3,1.3-1.3h19.5c0.7,0,1.3,0.6,1.3,1.3v0.2
					C31.7,18.3,31.1,18.8,30.4,18.8z"/>
			</g>
			<g>
				<path class="st7" d="M30.2,18.8H10.7c-0.7,0-1.3-0.6-1.3-1.3v-0.2c0-0.7,0.6-1.3,1.3-1.3h19.5c0.7,0,1.3,0.6,1.3,1.3v0.2
					C31.5,18.3,30.9,18.8,30.2,18.8z"/>
			</g>
		</g>
	</g>
	<path class="st1" d="M52.9,13.1c0,1.5,1.3,2.7,3,2.7H70L52.9,0V13.1z"/>
</g>
</svg>
