<?xml version="1.0" encoding="utf-8"?>
<!-- Generator: Adobe Illustrator 19.1.0, SVG Export Plug-In . SVG Version: 6.00 Build 0)  -->
<!DOCTYPE svg PUBLIC "-//W3C//DTD SVG 1.1//EN" "http://www.w3.org/Graphics/SVG/1.1/DTD/svg11.dtd">
<svg version="1.1" id="Layer_1" xmlns="http://www.w3.org/2000/svg" xmlns:xlink="http://www.w3.org/1999/xlink" x="0px" y="0px"
	 viewBox="0 0 1032.6 147.8" style="enable-background:new 0 0 1032.6 147.8;" xml:space="preserve">
<style type="text/css">
	.st0{fill:#CAC9C9;}
	.st1{opacity:0.2;}
	.st2{fill:#231F20;}
	.st3{fill:#F1817D;}
	.st4{fill:#DCB070;}
	.st5{fill:#AA9CB5;}
	.st6{fill:#82B1D8;}
	.st7{fill:#73C5A4;}
	.st8{opacity:0.5;}
	.st9{fill:url(#SVGID_1_);}
	.st10{fill:#FFFFFF;}
	.st11{fill:url(#SVGID_2_);}
</style>
<rect x="26.2" y="129.3" class="st0" width="113" height="10.5"/>
<rect x="26.2" y="77.1" class="st0" width="161.9" height="10.5"/>
<rect x="26.2" y="111.9" class="st0" width="168.5" height="10.5"/>
<rect x="26.2" y="7.5" class="st0" width="168.5" height="10.5"/>
<rect x="26.2" y="94.5" class="st0" width="176.1" height="10.5"/>
<rect x="26.2" y="24.9" class="st0" width="176.1" height="10.5"/>
<rect x="26.2" y="59.7" class="st0" width="154.5" height="10.5"/>
<rect x="26.2" y="42.3" class="st0" width="161.9" height="10.5"/>
<g>
	<g>
		<g class="st1">
			<path class="st2" d="M149.2,35.4H27c-2.9,0-5.2-2.3-5.2-5.2v0c0-2.9,2.3-5.2,5.2-5.2h122.2c2.9,0,5.2,2.3,5.2,5.2v0
				C154.5,33,152.1,35.4,149.2,35.4z"/>
		</g>
		<g>
			<path class="st3" d="M148,35.4H25.8c-2.9,0-5.2-2.3-5.2-5.2v0c0-2.9,2.3-5.2,5.2-5.2H148c2.9,0,5.2,2.3,5.2,5.2v0
				C153.2,33,150.9,35.4,148,35.4z"/>
		</g>
	</g>
	<g>
		<g class="st1">
			<path class="st2" d="M163.9,59.9h-43.1c-2.9,0-5.2,2.3-5.2,5.2v0c0,2.9,2.3,5.2,5.2,5.2h43.1c2.9,0,5.2-2.3,5.2-5.2v0
				C169.1,62.2,166.7,59.9,163.9,59.9z"/>
		</g>
		<g>
			<path class="st4" d="M162.6,59.9h-43.1c-2.9,0-5.2,2.3-5.2,5.2v0c0,2.9,2.3,5.2,5.2,5.2h43.1c2.9,0,5.2-2.3,5.2-5.2v0
				C167.9,62.2,165.5,59.9,162.6,59.9z"/>
		</g>
	</g>
</g>
<g>
	<g class="st1">
		<path class="st2" d="M190.7,105H27c-2.9,0-5.2-2.3-5.2-5.2v0c0-2.9,2.3-5.2,5.2-5.2h163.7c2.9,0,5.2,2.3,5.2,5.2v0
			C195.9,102.6,193.6,105,190.7,105z"/>
	</g>
	<g>
		<path class="st5" d="M189.5,105H25.8c-2.9,0-5.2-2.3-5.2-5.2v0c0-2.9,2.3-5.2,5.2-5.2h163.7c2.9,0,5.2,2.3,5.2,5.2v0
			C194.7,102.6,192.4,105,189.5,105z"/>
	</g>
</g>
<g>
	<g class="st1">
		<path class="st2" d="M94.8,122.4H27c-2.9,0-5.2-2.3-5.2-5.2v0c0-2.9,2.3-5.2,5.2-5.2h67.7c2.9,0,5.2,2.3,5.2,5.2v0
			C100,120,97.7,122.4,94.8,122.4z"/>
	</g>
	<g>
		<path class="st5" d="M93.6,122.4H25.8c-2.9,0-5.2-2.3-5.2-5.2v0c0-2.9,2.3-5.2,5.2-5.2h67.7c2.9,0,5.2,2.3,5.2,5.2v0
			C98.8,120,96.5,122.4,93.6,122.4z"/>
	</g>
</g>
<g>
	<g class="st1">
		<path class="st2" d="M198.3,18H27c-2.9,0-5.2-2.3-5.2-5.2v0c0-2.9,2.3-5.2,5.2-5.2h171.3c2.9,0,5.2,2.3,5.2,5.2v0
			C203.5,15.6,201.2,18,198.3,18z"/>
	</g>
	<g>
		<path class="st6" d="M197.1,18H25.8c-2.9,0-5.2-2.3-5.2-5.2v0c0-2.9,2.3-5.2,5.2-5.2h171.3c2.9,0,5.2,2.3,5.2,5.2v0
			C202.3,15.6,200,18,197.1,18z"/>
	</g>
</g>
<g>
	<rect x="230.1" y="129.3" class="st0" width="113" height="10.5"/>
	<rect x="230.1" y="77.1" class="st0" width="161.9" height="10.5"/>
	<rect x="230.1" y="111.9" class="st0" width="168.5" height="10.5"/>
	<rect x="230.1" y="7.5" class="st0" width="168.5" height="10.5"/>
	<rect x="230.1" y="94.5" class="st0" width="176.1" height="10.5"/>
	<rect x="230.1" y="24.9" class="st0" width="176.1" height="10.5"/>
	<rect x="230.1" y="59.7" class="st0" width="154.5" height="10.5"/>
	<rect x="230.1" y="42.3" class="st0" width="161.9" height="10.5"/>
	<g>
		<g class="st1">
			<path class="st2" d="M298.6,18h-67.7c-2.9,0-5.2-2.3-5.2-5.2v0c0-2.9,2.3-5.2,5.2-5.2h67.7c2.9,0,5.2,2.3,5.2,5.2v0
				C303.9,15.6,301.5,18,298.6,18z"/>
		</g>
		<g>
			<path class="st3" d="M297.4,18h-67.7c-2.9,0-5.2-2.3-5.2-5.2v0c0-2.9,2.3-5.2,5.2-5.2h67.7c2.9,0,5.2,2.3,5.2,5.2v0
				C302.7,15.6,300.3,18,297.4,18z"/>
		</g>
	</g>
	<g>
		<g class="st1">
			<path class="st2" d="M334.3,7.5h-43.1c-2.9,0-5.2,2.3-5.2,5.2v0c0,2.9,2.3,5.2,5.2,5.2h43.1c2.9,0,5.2-2.3,5.2-5.2v0
				C339.5,9.9,337.2,7.5,334.3,7.5z"/>
		</g>
		<g>
			<path class="st4" d="M333.1,7.5H290c-2.9,0-5.2,2.3-5.2,5.2v0c0,2.9,2.3,5.2,5.2,5.2h43.1c2.9,0,5.2-2.3,5.2-5.2v0
				C338.3,9.9,336,7.5,333.1,7.5z"/>
		</g>
	</g>
	<g>
		<g class="st1">
			<path class="st2" d="M394.6,70.2H230.9c-2.9,0-5.2-2.3-5.2-5.2v0c0-2.9,2.3-5.2,5.2-5.2h163.7c2.9,0,5.2,2.3,5.2,5.2v0
				C399.8,67.8,397.5,70.2,394.6,70.2z"/>
		</g>
		<g>
			<path class="st7" d="M393.4,70.2H229.7c-2.9,0-5.2-2.3-5.2-5.2v0c0-2.9,2.3-5.2,5.2-5.2h163.7c2.9,0,5.2,2.3,5.2,5.2v0
				C398.6,67.8,396.2,70.2,393.4,70.2z"/>
		</g>
	</g>
	<g>
		<g class="st1">
			<path class="st2" d="M394.6,87.6H230.9c-2.9,0-5.2-2.3-5.2-5.2v0c0-2.9,2.3-5.2,5.2-5.2h163.7c2.9,0,5.2,2.3,5.2,5.2v0
				C399.8,85.2,397.5,87.6,394.6,87.6z"/>
		</g>
		<g>
			<path class="st7" d="M393.4,87.6H229.7c-2.9,0-5.2-2.3-5.2-5.2v0c0-2.9,2.3-5.2,5.2-5.2h163.7c2.9,0,5.2,2.3,5.2,5.2v0
				C398.6,85.2,396.2,87.6,393.4,87.6z"/>
		</g>
	</g>
	<g>
		<g class="st1">
			<path class="st2" d="M280.7,105h-49.8c-2.9,0-5.2-2.3-5.2-5.2v0c0-2.9,2.3-5.2,5.2-5.2h49.8c2.9,0,5.2,2.3,5.2,5.2v0
				C285.9,102.6,283.6,105,280.7,105z"/>
		</g>
		<g>
			<path class="st7" d="M279.5,105h-49.8c-2.9,0-5.2-2.3-5.2-5.2v0c0-2.9,2.3-5.2,5.2-5.2h49.8c2.9,0,5.2,2.3,5.2,5.2v0
				C284.7,102.6,282.4,105,279.5,105z"/>
		</g>
	</g>
	<g>
		<g class="st1">
			<path class="st2" d="M406.5,122.4H231c-2.9,0-5.2-2.3-5.2-5.2v0c0-2.9,2.3-5.2,5.2-5.2h175.6c2.9,0,5.2,2.3,5.2,5.2v0
				C411.8,120,409.4,122.4,406.5,122.4z"/>
		</g>
		<g>
			<path class="st6" d="M405.3,122.4H229.8c-2.9,0-5.2-2.3-5.2-5.2v0c0-2.9,2.3-5.2,5.2-5.2h175.6c2.9,0,5.2,2.3,5.2,5.2v0
				C410.5,120,408.2,122.4,405.3,122.4z"/>
		</g>
	</g>
	<g>
		<g class="st1">
			<path class="st2" d="M353,139.8H230.8c-2.9,0-5.2-2.3-5.2-5.2l0,0c0-2.9,2.3-5.2,5.2-5.2H353c2.9,0,5.2,2.3,5.2,5.2l0,0
				C358.2,137.4,355.8,139.8,353,139.8z"/>
		</g>
		<g>
			<path class="st6" d="M351.9,139.8H229.8c-2.9,0-5.2-2.3-5.2-5.2l0,0c0-2.9,2.3-5.2,5.2-5.2h122.2c2.9,0,5.2,2.3,5.2,5.2l0,0
				C357.2,137.4,354.8,139.8,351.9,139.8z"/>
		</g>
	</g>
</g>
<g>
	<g class="st1">
		<path class="st2" d="M106.1,35.4l-79.4,0c-2.9,0-5.2-2.3-5.2-5.2v0c0-2.9,2.3-5.2,5.2-5.2h79.4c2.9,0,5.2,2.3,5.2,5.2v0
			C111.3,33,109,35.4,106.1,35.4z"/>
	</g>
	<g>
		<path class="st6" d="M105.2,35.4l-79.4,0c-2.9,0-5.2-2.3-5.2-5.2v0c0-2.9,2.3-5.2,5.2-5.2h79.4c2.9,0,5.2,2.3,5.2,5.2v0
			C110.5,33,108.1,35.4,105.2,35.4z"/>
	</g>
</g>
<rect x="845" y="129.3" class="st0" width="113" height="10.5"/>
<rect x="845" y="77.1" class="st0" width="161.9" height="10.5"/>
<rect x="845" y="111.9" class="st0" width="168.5" height="10.5"/>
<rect x="845" y="7.5" class="st0" width="168.5" height="10.5"/>
<rect x="845" y="94.5" class="st0" width="176.1" height="10.5"/>
<rect x="845" y="24.9" class="st0" width="176.1" height="10.5"/>
<rect x="845" y="59.7" class="st0" width="154.5" height="10.5"/>
<rect x="845" y="42.3" class="st0" width="161.9" height="10.5"/>
<rect x="641.2" y="129.3" class="st0" width="113" height="10.5"/>
<rect x="641.2" y="77.1" class="st0" width="161.9" height="10.5"/>
<rect x="641.2" y="111.9" class="st0" width="168.5" height="10.5"/>
<rect x="641.2" y="7.5" class="st0" width="168.5" height="10.5"/>
<rect x="641.2" y="94.5" class="st0" width="176.1" height="10.5"/>
<rect x="641.2" y="24.9" class="st0" width="176.1" height="10.5"/>
<rect x="641.2" y="59.7" class="st0" width="154.5" height="10.5"/>
<rect x="641.2" y="42.3" class="st0" width="161.9" height="10.5"/>
<rect x="437.3" y="129.3" class="st0" width="113" height="10.5"/>
<rect x="437.3" y="77.1" class="st0" width="161.9" height="10.5"/>
<rect x="437.3" y="111.9" class="st0" width="168.5" height="10.5"/>
<rect x="437.3" y="7.5" class="st0" width="168.5" height="10.5"/>
<rect x="437.3" y="94.5" class="st0" width="176.1" height="10.5"/>
<rect x="437.3" y="24.9" class="st0" width="176.1" height="10.5"/>
<rect x="437.3" y="59.7" class="st0" width="154.5" height="10.5"/>
<rect x="437.3" y="42.3" class="st0" width="161.9" height="10.5"/>
<g>
	<g class="st1">
		<path class="st2" d="M947.5,87.6H845.9c-2.9,0-5.2-2.3-5.2-5.2v0c0-2.9,2.3-5.2,5.2-5.2h101.6c2.9,0,5.2,2.3,5.2,5.2v0
			C952.8,85.2,950.4,87.6,947.5,87.6z"/>
	</g>
	<g>
		<path class="st3" d="M946.3,87.6H844.7c-2.9,0-5.2-2.3-5.2-5.2v0c0-2.9,2.3-5.2,5.2-5.2h101.6c2.9,0,5.2,2.3,5.2,5.2v0
			C951.5,85.2,949.2,87.6,946.3,87.6z"/>
	</g>
</g>
<g>
	<g class="st1">
		<path class="st2" d="M982.7,111.9h-43.1c-2.9,0-5.2,2.3-5.2,5.2v0c0,2.9,2.3,5.2,5.2,5.2h43.1c2.9,0,5.2-2.3,5.2-5.2v0
			C987.9,114.3,985.6,111.9,982.7,111.9z"/>
	</g>
	<g>
		<path class="st7" d="M981.5,111.9h-43.1c-2.9,0-5.2,2.3-5.2,5.2v0c0,2.9,2.3,5.2,5.2,5.2h43.1c2.9,0,5.2-2.3,5.2-5.2v0
			C986.7,114.3,984.4,111.9,981.5,111.9z"/>
	</g>
</g>
<g>
	<g class="st1">
		<path class="st2" d="M982.7,35.4H845.9c-2.9,0-5.2-2.3-5.2-5.2v0c0-2.9,2.3-5.2,5.2-5.2h136.8c2.9,0,5.2,2.3,5.2,5.2v0
			C987.9,33,985.6,35.4,982.7,35.4z"/>
	</g>
	<g>
		<path class="st4" d="M981.5,35.4H844.7c-2.9,0-5.2-2.3-5.2-5.2v0c0-2.9,2.3-5.2,5.2-5.2h136.8c2.9,0,5.2,2.3,5.2,5.2v0
			C986.7,33,984.4,35.4,981.5,35.4z"/>
	</g>
</g>
<g>
	<g class="st1">
		<path class="st2" d="M1020.2,18H845.9c-2.9,0-5.2-2.3-5.2-5.2v0c0-2.9,2.3-5.2,5.2-5.2h174.3c2.9,0,5.2,2.3,5.2,5.2v0
			C1025.5,15.6,1023.1,18,1020.2,18z"/>
	</g>
	<g>
		<path class="st4" d="M1019,18H844.7c-2.9,0-5.2-2.3-5.2-5.2v0c0-2.9,2.3-5.2,5.2-5.2H1019c2.9,0,5.2,2.3,5.2,5.2v0
			C1024.2,15.6,1021.9,18,1019,18z"/>
	</g>
</g>
<g>
	<g class="st1">
		<path class="st2" d="M709.7,18H642c-2.9,0-5.2-2.3-5.2-5.2v0c0-2.9,2.3-5.2,5.2-5.2h67.7c2.9,0,5.2,2.3,5.2,5.2v0
			C715,15.6,712.6,18,709.7,18z"/>
	</g>
	<g>
		<path class="st3" d="M708.5,18h-67.7c-2.9,0-5.2-2.3-5.2-5.2v0c0-2.9,2.3-5.2,5.2-5.2h67.7c2.9,0,5.2,2.3,5.2,5.2v0
			C713.8,15.6,711.4,18,708.5,18z"/>
	</g>
</g>
<g>
	<g class="st1">
		<path class="st2" d="M745.4,7.5h-43.1c-2.9,0-5.2,2.3-5.2,5.2v0c0,2.9,2.3,5.2,5.2,5.2h43.1c2.9,0,5.2-2.3,5.2-5.2v0
			C750.6,9.9,748.3,7.5,745.4,7.5z"/>
	</g>
	<g>
		<path class="st4" d="M744.2,7.5h-43.1c-2.9,0-5.2,2.3-5.2,5.2v0c0,2.9,2.3,5.2,5.2,5.2h43.1c2.9,0,5.2-2.3,5.2-5.2v0
			C749.4,9.9,747.1,7.5,744.2,7.5z"/>
	</g>
</g>
<g>
	<g class="st1">
		<path class="st2" d="M805.7,70.2H642c-2.9,0-5.2-2.3-5.2-5.2v0c0-2.9,2.3-5.2,5.2-5.2h163.7c2.9,0,5.2,2.3,5.2,5.2v0
			C810.9,67.8,808.6,70.2,805.7,70.2z"/>
	</g>
	<g>
		<path class="st7" d="M804.5,70.2H640.8c-2.9,0-5.2-2.3-5.2-5.2v0c0-2.9,2.3-5.2,5.2-5.2h163.7c2.9,0,5.2,2.3,5.2,5.2v0
			C809.7,67.8,807.3,70.2,804.5,70.2z"/>
	</g>
</g>
<g>
	<g class="st1">
		<path class="st2" d="M805.7,87.6H642c-2.9,0-5.2-2.3-5.2-5.2v0c0-2.9,2.3-5.2,5.2-5.2h163.7c2.9,0,5.2,2.3,5.2,5.2v0
			C810.9,85.2,808.6,87.6,805.7,87.6z"/>
	</g>
	<g>
		<path class="st7" d="M804.5,87.6H640.8c-2.9,0-5.2-2.3-5.2-5.2v0c0-2.9,2.3-5.2,5.2-5.2h163.7c2.9,0,5.2,2.3,5.2,5.2v0
			C809.7,85.2,807.3,87.6,804.5,87.6z"/>
	</g>
</g>
<g>
	<g class="st1">
		<path class="st2" d="M691.8,105H642c-2.9,0-5.2-2.3-5.2-5.2v0c0-2.9,2.3-5.2,5.2-5.2h49.8c2.9,0,5.2,2.3,5.2,5.2v0
			C697,102.6,694.7,105,691.8,105z"/>
	</g>
	<g>
		<path class="st7" d="M690.6,105h-49.8c-2.9,0-5.2-2.3-5.2-5.2v0c0-2.9,2.3-5.2,5.2-5.2h49.8c2.9,0,5.2,2.3,5.2,5.2v0
			C695.8,102.6,693.5,105,690.6,105z"/>
	</g>
</g>
<g>
	<g>
		<g class="st1">
			<path class="st2" d="M560.3,35.4H438.1c-2.9,0-5.2-2.3-5.2-5.2v0c0-2.9,2.3-5.2,5.2-5.2h122.2c2.9,0,5.2,2.3,5.2,5.2v0
				C565.6,33,563.2,35.4,560.3,35.4z"/>
		</g>
		<g>
			<path class="st3" d="M559.1,35.4H436.9c-2.9,0-5.2-2.3-5.2-5.2v0c0-2.9,2.3-5.2,5.2-5.2h122.2c2.9,0,5.2,2.3,5.2,5.2v0
				C564.3,33,562,35.4,559.1,35.4z"/>
		</g>
	</g>
	<g>
		<g class="st1">
			<path class="st2" d="M575,59.9h-43.1c-2.9,0-5.2,2.3-5.2,5.2v0c0,2.9,2.3,5.2,5.2,5.2H575c2.9,0,5.2-2.3,5.2-5.2v0
				C580.2,62.2,577.8,59.9,575,59.9z"/>
		</g>
		<g>
			<path class="st4" d="M573.7,59.9h-43.1c-2.9,0-5.2,2.3-5.2,5.2v0c0,2.9,2.3,5.2,5.2,5.2h43.1c2.9,0,5.2-2.3,5.2-5.2v0
				C579,62.2,576.6,59.9,573.7,59.9z"/>
		</g>
	</g>
</g>
<g class="st8">
	<path d="M843.5,79.4c-0.1-0.1-0.2-0.2-0.4-0.2c-0.1,0-0.3,0.1-0.4,0.2c-0.1,0.1-0.2,0.2-0.2,0.4c0,0.1,0,0.2,0.1,0.3
		c0,0.1,0.1,0.1,0.2,0.2v5.2c0,0,0,0.1,0,0.1c0,0,0.1,0,0.1,0h0.3c0,0,0.1,0,0.1,0c0,0,0-0.1,0-0.1v-5.2c0.1,0,0.1-0.1,0.2-0.2
		c0-0.1,0.1-0.2,0.1-0.3C843.6,79.6,843.6,79.5,843.5,79.4z"/>
	<path d="M849.5,79.8c-0.1,0-0.2-0.1-0.3,0c0,0-0.1,0-0.1,0.1c-0.5,0.3-0.9,0.5-1.3,0.5c-0.1,0-0.3,0-0.4-0.1
		c-0.3-0.1-0.6-0.3-0.9-0.4c-0.3-0.1-0.5-0.1-0.9-0.1c-0.2,0-0.4,0-0.6,0.1c-0.2,0.1-0.4,0.1-0.6,0.2c-0.2,0.1-0.3,0.2-0.5,0.2
		c0,0,0,0-0.1,0c-0.1,0-0.2,0.1-0.3,0.1c-0.1,0.1-0.1,0.1-0.1,0.2v3c0,0.1,0,0.2,0.1,0.2c0,0,0.1,0,0.1,0c0,0,0.1,0,0.1,0
		c0,0,0,0,0,0c0.3-0.2,0.6-0.3,0.9-0.4c0.4-0.1,0.7-0.2,1-0.2c0.2,0,0.3,0,0.5,0.1c0.2,0,0.3,0.1,0.4,0.1c0.1,0,0.2,0.1,0.4,0.2
		l0.1,0.1c0.2,0.1,0.4,0.1,0.6,0.1c0.4,0,0.9-0.2,1.5-0.5c0,0,0,0,0.1,0c0.1,0,0.1-0.1,0.1-0.2V80C849.6,79.9,849.6,79.8,849.5,79.8
		z"/>
</g>
<g>
	<g class="st1">
		<path class="st2" d="M901.7,105h-55.9c-2.9,0-5.2-2.3-5.2-5.2v0c0-2.9,2.3-5.2,5.2-5.2h55.9c2.9,0,5.2,2.3,5.2,5.2v0
			C907,102.6,904.6,105,901.7,105z"/>
	</g>
	<g>
		<path class="st5" d="M900.5,105h-55.9c-2.9,0-5.2-2.3-5.2-5.2v0c0-2.9,2.3-5.2,5.2-5.2h55.9c2.9,0,5.2,2.3,5.2,5.2v0
			C905.8,102.6,903.4,105,900.5,105z"/>
	</g>
</g>
<g>
	<g class="st1">
		<path class="st2" d="M601.8,105H438.1c-2.9,0-5.2-2.3-5.2-5.2v0c0-2.9,2.3-5.2,5.2-5.2h163.7c2.9,0,5.2,2.3,5.2,5.2v0
			C607,102.6,604.7,105,601.8,105z"/>
	</g>
	<g>
		<path class="st5" d="M600.6,105H436.9c-2.9,0-5.2-2.3-5.2-5.2v0c0-2.9,2.3-5.2,5.2-5.2h163.7c2.9,0,5.2,2.3,5.2,5.2v0
			C605.8,102.6,603.5,105,600.6,105z"/>
	</g>
</g>
<g>
	<g class="st1">
		<path class="st2" d="M505.9,122.4h-67.7c-2.9,0-5.2-2.3-5.2-5.2v0c0-2.9,2.3-5.2,5.2-5.2h67.7c2.9,0,5.2,2.3,5.2,5.2v0
			C511.1,120,508.8,122.4,505.9,122.4z"/>
	</g>
	<g>
		<path class="st5" d="M504.7,122.4h-67.7c-2.9,0-5.2-2.3-5.2-5.2v0c0-2.9,2.3-5.2,5.2-5.2h67.7c2.9,0,5.2,2.3,5.2,5.2v0
			C509.9,120,507.6,122.4,504.7,122.4z"/>
	</g>
</g>
<g>
	<g class="st1">
		<path class="st2" d="M949.6,52.8H844.3c-2.9,0-5.2-2.3-5.2-5.2v0c0-2.9,2.3-5.2,5.2-5.2h105.3c2.9,0,5.2,2.3,5.2,5.2v0
			C954.9,50.4,952.5,52.8,949.6,52.8z"/>
	</g>
	<g>
		<path class="st6" d="M948.7,52.8H843.3c-2.9,0-5.2-2.3-5.2-5.2v0c0-2.9,2.3-5.2,5.2-5.2h105.3c2.9,0,5.2,2.3,5.2,5.2v0
			C953.9,50.4,951.6,52.8,948.7,52.8z"/>
	</g>
</g>
<g>
	<g class="st1">
		<path class="st2" d="M819.6,35.4H642c-2.9,0-5.2-2.3-5.2-5.2v0c0-2.9,2.3-5.2,5.2-5.2h177.6c2.9,0,5.2,2.3,5.2,5.2v0
			C824.9,33,822.5,35.4,819.6,35.4z"/>
	</g>
	<g>
		<path class="st6" d="M818.4,35.4H640.8c-2.9,0-5.2-2.3-5.2-5.2v0c0-2.9,2.3-5.2,5.2-5.2h177.6c2.9,0,5.2,2.3,5.2,5.2v0
			C823.7,33,821.3,35.4,818.4,35.4z"/>
	</g>
</g>
<g>
	<g class="st1">
		<path class="st2" d="M805.6,52.8H642c-2.9,0-5.2-2.3-5.2-5.2v0c0-2.9,2.3-5.2,5.2-5.2h163.7c2.9,0,5.2,2.3,5.2,5.2v0
			C810.9,50.4,808.5,52.8,805.6,52.8z"/>
	</g>
	<g>
		<path class="st6" d="M804.5,52.8H640.8c-2.9,0-5.2-2.3-5.2-5.2v0c0-2.9,2.3-5.2,5.2-5.2h163.7c2.9,0,5.2,2.3,5.2,5.2v0
			C809.7,50.4,807.3,52.8,804.5,52.8z"/>
	</g>
</g>
<g>
	<g class="st1">
		<path class="st2" d="M601.8,87.6H438.1c-2.9,0-5.2-2.3-5.2-5.2v0c0-2.9,2.3-5.2,5.2-5.2h163.7c2.9,0,5.2,2.3,5.2,5.2v0
			C607,85.2,604.7,87.6,601.8,87.6z"/>
	</g>
	<g>
		<path class="st6" d="M600.6,87.6H436.9c-2.9,0-5.2-2.3-5.2-5.2v0c0-2.9,2.3-5.2,5.2-5.2h163.7c2.9,0,5.2,2.3,5.2,5.2v0
			C605.8,85.2,603.5,87.6,600.6,87.6z"/>
	</g>
</g>
<g>
	<g class="st1">
		<path class="st2" d="M763.7,70.4H641.8c-2.9,0-5.2-2.3-5.2-5.2v0c0-2.9,2.3-5.2,5.2-5.2h121.9c2.9,0,5.2,2.3,5.2,5.2v0
			C768.9,68,766.6,70.4,763.7,70.4z"/>
	</g>
	<g>
		<path class="st6" d="M762.7,70.4H640.8c-2.9,0-5.2-2.3-5.2-5.2v0c0-2.9,2.3-5.2,5.2-5.2h121.9c2.9,0,5.2,2.3,5.2,5.2v0
			C767.9,68,765.6,70.4,762.7,70.4z"/>
	</g>
</g>
<linearGradient id="SVGID_1_" gradientUnits="userSpaceOnUse" x1="51.3308" y1="73.6528" x2="140.3209" y2="73.6528">
	<stop  offset="0" style="stop-color:#FFFFFF"/>
	<stop  offset="1" style="stop-color:#F7F7F7;stop-opacity:0"/>
</linearGradient>
<rect x="51.3" y="5.4" class="st9" width="89" height="136.6"/>
<rect x="6.8" y="5.4" class="st10" width="46.9" height="136.6"/>
<linearGradient id="SVGID_2_" gradientUnits="userSpaceOnUse" x1="-6817.3916" y1="1941.6527" x2="-6728.4014" y2="1941.6527" gradientTransform="matrix(-1 0 0 -1 -5835.2334 2015.3055)">
	<stop  offset="0" style="stop-color:#FFFFFF"/>
	<stop  offset="1" style="stop-color:#F7F7F7;stop-opacity:0"/>
</linearGradient>
<rect x="893.2" y="5.4" class="st11" width="89" height="136.6"/>
<rect x="979.8" y="5.4" class="st10" width="46.8" height="136.6"/>
</svg>
