<?xml version="1.0" encoding="utf-8"?>
<!-- Generator: Adobe Illustrator 19.1.0, SVG Export Plug-In . SVG Version: 6.00 Build 0)  -->
<!DOCTYPE svg PUBLIC "-//W3C//DTD SVG 1.1//EN" "http://www.w3.org/Graphics/SVG/1.1/DTD/svg11.dtd">
<svg version="1.1" id="Layer_1" xmlns="http://www.w3.org/2000/svg" xmlns:xlink="http://www.w3.org/1999/xlink" x="0px" y="0px"
	 viewBox="0 0 1444 166" style="enable-background:new 0 0 1444 166;" xml:space="preserve">
<style type="text/css">
	.st0{fill:#CAC9C9;}
	.st1{opacity:0.2;}
	.st2{fill:#231F20;}
	.st3{fill:#F1817D;}
	.st4{fill:#DCB070;}
	.st5{fill:#73C5A4;}
	.st6{opacity:0.5;}
	.st7{fill:#AA9CB5;}
	.st8{fill:#82B1D8;}
</style>
<rect x="224.9" y="140.4" class="st0" width="113" height="10.5"/>
<rect x="224.9" y="88.2" class="st0" width="161.9" height="10.5"/>
<rect x="224.9" y="123" class="st0" width="168.5" height="10.5"/>
<rect x="224.9" y="18.6" class="st0" width="168.5" height="10.5"/>
<rect x="224.9" y="105.6" class="st0" width="176.1" height="10.5"/>
<rect x="224.9" y="36" class="st0" width="176.1" height="10.5"/>
<rect x="224.9" y="70.8" class="st0" width="154.5" height="10.5"/>
<rect x="224.9" y="53.4" class="st0" width="161.9" height="10.5"/>
<rect x="21.1" y="140.4" class="st0" width="113" height="10.5"/>
<rect x="21.1" y="88.2" class="st0" width="161.9" height="10.5"/>
<rect x="21.1" y="123" class="st0" width="168.5" height="10.5"/>
<rect x="21.1" y="18.6" class="st0" width="168.5" height="10.5"/>
<rect x="21.1" y="105.6" class="st0" width="176.1" height="10.5"/>
<rect x="21.1" y="36" class="st0" width="176.1" height="10.5"/>
<rect x="21.1" y="70.8" class="st0" width="154.5" height="10.5"/>
<rect x="21.1" y="53.4" class="st0" width="161.9" height="10.5"/>
<rect x="428.9" y="140.4" class="st0" width="113" height="10.5"/>
<rect x="428.9" y="88.2" class="st0" width="161.9" height="10.5"/>
<rect x="428.9" y="123" class="st0" width="168.5" height="10.5"/>
<rect x="428.9" y="18.6" class="st0" width="168.5" height="10.5"/>
<rect x="428.9" y="105.6" class="st0" width="176.1" height="10.5"/>
<rect x="428.9" y="36" class="st0" width="176.1" height="10.5"/>
<rect x="428.9" y="70.8" class="st0" width="154.5" height="10.5"/>
<rect x="428.9" y="53.4" class="st0" width="161.9" height="10.5"/>
<g>
	<g>
		<g class="st1">
			<path class="st2" d="M347.9,46.5l-122.2,0c-2.9,0-5.2-2.3-5.2-5.2v0c0-2.9,2.3-5.2,5.2-5.2h122.2c2.9,0,5.2,2.3,5.2,5.2v0
				C353.2,44.2,350.8,46.5,347.9,46.5z"/>
		</g>
		<g>
			<path class="st3" d="M346.7,46.5l-122.2,0c-2.9,0-5.2-2.3-5.2-5.2v0c0-2.9,2.3-5.2,5.2-5.2h122.2c2.9,0,5.2,2.3,5.2,5.2v0
				C352,44.2,349.6,46.5,346.7,46.5z"/>
		</g>
	</g>
	<g>
		<g class="st1">
			<path class="st2" d="M362.6,71h-43.1c-2.9,0-5.2,2.3-5.2,5.2v0c0,2.9,2.3,5.2,5.2,5.2h43.1c2.9,0,5.2-2.3,5.2-5.2v0
				C367.8,73.4,365.5,71,362.6,71z"/>
		</g>
		<g>
			<path class="st4" d="M361.4,71h-43.1c-2.9,0-5.2,2.3-5.2,5.2v0c0,2.9,2.3,5.2,5.2,5.2h43.1c2.9,0,5.2-2.3,5.2-5.2v0
				C366.6,73.4,364.3,71,361.4,71z"/>
		</g>
	</g>
</g>
<g>
	<g class="st1">
		<path class="st2" d="M94.3,150.9H21.9c-2.9,0-5.2-2.3-5.2-5.2v0c0-2.9,2.3-5.2,5.2-5.2h72.4c2.9,0,5.2,2.3,5.2,5.2l0,0
			C99.5,148.6,97.2,150.9,94.3,150.9z"/>
	</g>
	<g>
		<path class="st3" d="M93.1,150.9H20.7c-2.9,0-5.2-2.3-5.2-5.2v0c0-2.9,2.3-5.2,5.2-5.2h72.4c2.9,0,5.2,2.3,5.2,5.2l0,0
			C98.3,148.6,96,150.9,93.1,150.9z"/>
	</g>
</g>
<g>
	<g class="st1">
		<path class="st2" d="M158.7,71H21.9c-2.9,0-5.2,2.3-5.2,5.2v0c0,2.9,2.3,5.2,5.2,5.2h136.8c2.9,0,5.2-2.3,5.2-5.2v0
			C163.9,73.4,161.6,71,158.7,71z"/>
	</g>
	<g>
		<path class="st5" d="M157.5,71H20.7c-2.9,0-5.2,2.3-5.2,5.2v0c0,2.9,2.3,5.2,5.2,5.2h136.8c2.9,0,5.2-2.3,5.2-5.2v0
			C162.7,73.4,160.4,71,157.5,71z"/>
	</g>
</g>
<g>
	<g class="st1">
		<path class="st2" d="M187.8,53.4H20.3c-2.9,0-5.2,2.3-5.2,5.2v0c0,2.9,2.3,5.2,5.2,5.2h167.5c2.9,0,5.2-2.3,5.2-5.2v0
			C193,55.8,190.6,53.4,187.8,53.4z"/>
	</g>
	<g>
		<path class="st5" d="M186.5,53.4H19.1c-2.9,0-5.2,2.3-5.2,5.2v0c0,2.9,2.3,5.2,5.2,5.2h167.5c2.9,0,5.2-2.3,5.2-5.2v0
			C191.8,55.8,189.4,53.4,186.5,53.4z"/>
	</g>
</g>
<g>
	<g class="st1">
		<path class="st2" d="M201.7,36H20.3c-2.9,0-5.2,2.3-5.2,5.2v0c0,2.9,2.3,5.2,5.2,5.2h181.4c2.9,0,5.2-2.3,5.2-5.2v0
			C206.9,38.4,204.6,36,201.7,36z"/>
	</g>
	<g>
		<path class="st5" d="M200.5,36H19.1c-2.9,0-5.2,2.3-5.2,5.2v0c0,2.9,2.3,5.2,5.2,5.2h181.4c2.9,0,5.2-2.3,5.2-5.2v0
			C205.7,38.4,203.3,36,200.5,36z"/>
	</g>
</g>
<g>
	<g class="st1">
		<path class="st2" d="M201.7,18.6H20.3c-2.9,0-5.2,2.3-5.2,5.2v0c0,2.9,2.3,5.2,5.2,5.2h181.4c2.9,0,5.2-2.3,5.2-5.2v0
			C206.9,21,204.6,18.6,201.7,18.6z"/>
	</g>
	<g>
		<path class="st5" d="M200.5,18.6H19.1c-2.9,0-5.2,2.3-5.2,5.2v0c0,2.9,2.3,5.2,5.2,5.2h181.4c2.9,0,5.2-2.3,5.2-5.2v0
			C205.7,21,203.3,18.6,200.5,18.6z"/>
	</g>
</g>
<g>
	<g>
		<g class="st1">
			<path class="st2" d="M551.9,46.5l-122.2,0c-2.9,0-5.2-2.3-5.2-5.2v0c0-2.9,2.3-5.2,5.2-5.2h122.2c2.9,0,5.2,2.3,5.2,5.2v0
				C557.2,44.2,554.8,46.5,551.9,46.5z"/>
		</g>
		<g>
			<path class="st3" d="M550.7,46.5l-122.2,0c-2.9,0-5.2-2.3-5.2-5.2v0c0-2.9,2.3-5.2,5.2-5.2h122.2c2.9,0,5.2,2.3,5.2,5.2v0
				C556,44.2,553.6,46.5,550.7,46.5z"/>
		</g>
	</g>
	<g>
		<g class="st1">
			<path class="st2" d="M566.6,71h-43.1c-2.9,0-5.2,2.3-5.2,5.2v0c0,2.9,2.3,5.2,5.2,5.2h43.1c2.9,0,5.2-2.3,5.2-5.2v0
				C571.8,73.4,569.5,71,566.6,71z"/>
		</g>
		<g>
			<path class="st4" d="M565.4,71h-43.1c-2.9,0-5.2,2.3-5.2,5.2v0c0,2.9,2.3,5.2,5.2,5.2h43.1c2.9,0,5.2-2.3,5.2-5.2v0
				C570.6,73.4,568.2,71,565.4,71z"/>
		</g>
	</g>
</g>
<g class="st6">
	<path d="M18.4,20.9c-0.1-0.1-0.2-0.2-0.4-0.2c-0.1,0-0.3,0.1-0.4,0.2c-0.1,0.1-0.2,0.2-0.2,0.4c0,0.1,0,0.2,0.1,0.3
		c0,0.1,0.1,0.1,0.2,0.2v5.2c0,0,0,0.1,0,0.1c0,0,0.1,0,0.1,0h0.3c0,0,0.1,0,0.1,0s0-0.1,0-0.1v-5.2c0.1,0,0.1-0.1,0.2-0.2
		c0-0.1,0.1-0.2,0.1-0.3C18.6,21.1,18.5,21,18.4,20.9z"/>
	<path d="M24.4,21.3c-0.1,0-0.2-0.1-0.3,0c0,0-0.1,0-0.1,0.1c-0.5,0.3-0.9,0.5-1.3,0.5c-0.1,0-0.3,0-0.4-0.1
		c-0.3-0.1-0.6-0.3-0.9-0.4c-0.3-0.1-0.5-0.1-0.9-0.1c-0.2,0-0.4,0-0.6,0.1c-0.2,0.1-0.4,0.1-0.6,0.2c-0.2,0.1-0.3,0.2-0.5,0.2
		c0,0,0,0-0.1,0c-0.1,0-0.2,0.1-0.3,0.1c-0.1,0.1-0.1,0.1-0.1,0.2v3c0,0.1,0,0.2,0.1,0.2c0,0,0.1,0,0.1,0c0,0,0.1,0,0.1,0
		c0,0,0,0,0,0c0.3-0.2,0.6-0.3,0.9-0.4c0.4-0.1,0.7-0.2,1-0.2c0.2,0,0.3,0,0.5,0.1c0.2,0,0.3,0.1,0.4,0.1c0.1,0,0.2,0.1,0.4,0.2
		l0.1,0.1c0.2,0.1,0.4,0.1,0.6,0.1c0.4,0,0.9-0.2,1.5-0.5c0,0,0,0,0.1,0c0.1,0,0.1-0.1,0.1-0.2v-3.1C24.6,21.4,24.5,21.4,24.4,21.3z
		"/>
</g>
<g class="st6">
	<path d="M223.8,108.1c-0.1-0.1-0.2-0.2-0.4-0.2c-0.1,0-0.3,0.1-0.4,0.2s-0.2,0.2-0.2,0.4c0,0.1,0,0.2,0.1,0.3
		c0,0.1,0.1,0.1,0.2,0.2v5.2c0,0,0,0.1,0,0.1c0,0,0.1,0,0.1,0h0.3c0,0,0.1,0,0.1,0c0,0,0-0.1,0-0.1V109c0.1,0,0.1-0.1,0.2-0.2
		c0-0.1,0.1-0.2,0.1-0.3C223.9,108.4,223.9,108.2,223.8,108.1z"/>
	<path d="M229.8,108.6c-0.1,0-0.2-0.1-0.3,0c0,0-0.1,0-0.1,0.1c-0.5,0.3-0.9,0.5-1.3,0.5c-0.1,0-0.3,0-0.4-0.1
		c-0.3-0.1-0.6-0.3-0.9-0.4c-0.3-0.1-0.5-0.1-0.9-0.1c-0.2,0-0.4,0-0.6,0.1c-0.2,0.1-0.4,0.1-0.6,0.2c-0.2,0.1-0.3,0.2-0.5,0.2
		c0,0,0,0-0.1,0c-0.1,0-0.2,0.1-0.3,0.1c-0.1,0.1-0.1,0.1-0.1,0.2v3c0,0.1,0,0.2,0.1,0.2c0,0,0.1,0,0.1,0c0,0,0.1,0,0.1,0
		c0,0,0,0,0,0c0.3-0.2,0.6-0.3,0.9-0.4c0.4-0.1,0.7-0.2,1-0.2c0.2,0,0.3,0,0.5,0.1c0.2,0,0.3,0.1,0.4,0.1c0.1,0,0.2,0.1,0.4,0.2
		l0.1,0.1c0.2,0.1,0.4,0.1,0.6,0.1c0.4,0,0.9-0.2,1.5-0.5c0,0,0,0,0.1,0c0.1,0,0.1-0.1,0.1-0.2v-3.1
		C229.9,108.7,229.9,108.6,229.8,108.6z"/>
</g>
<g>
	<g class="st1">
		<path class="st2" d="M389.4,116.1H225.8c-2.9,0-5.2-2.3-5.2-5.2v0c0-2.9,2.3-5.2,5.2-5.2h163.7c2.9,0,5.2,2.3,5.2,5.2v0
			C394.7,113.8,392.3,116.1,389.4,116.1z"/>
	</g>
	<g>
		<path class="st7" d="M388.2,116.1H224.5c-2.9,0-5.2-2.3-5.2-5.2v0c0-2.9,2.3-5.2,5.2-5.2h163.7c2.9,0,5.2,2.3,5.2,5.2v0
			C393.4,113.8,391.1,116.1,388.2,116.1z"/>
	</g>
</g>
<g>
	<g class="st1">
		<path class="st2" d="M293.5,133.5h-67.7c-2.9,0-5.2-2.3-5.2-5.2v0c0-2.9,2.3-5.2,5.2-5.2h67.7c2.9,0,5.2,2.3,5.2,5.2v0
			C298.7,131.2,296.4,133.5,293.5,133.5z"/>
	</g>
	<g>
		<path class="st7" d="M292.3,133.5h-67.7c-2.9,0-5.2-2.3-5.2-5.2v0c0-2.9,2.3-5.2,5.2-5.2h67.7c2.9,0,5.2,2.3,5.2,5.2v0
			C297.5,131.2,295.2,133.5,292.3,133.5z"/>
	</g>
</g>
<g>
	<g class="st1">
		<path class="st2" d="M122.1,46.5H20.3c-2.9,0-5.2-2.3-5.2-5.2v0c0-2.9,2.3-5.2,5.2-5.2h101.9c2.9,0,5.2,2.3,5.2,5.2v0
			C127.4,44.2,125,46.5,122.1,46.5z"/>
	</g>
	<g>
		<path class="st7" d="M120.9,46.5H19.1c-2.9,0-5.2-2.3-5.2-5.2v0c0-2.9,2.3-5.2,5.2-5.2h101.9c2.9,0,5.2,2.3,5.2,5.2v0
			C126.2,44.2,123.8,46.5,120.9,46.5z"/>
	</g>
</g>
<g>
	<g class="st1">
		<path class="st2" d="M142.3,116.1H21.9c-2.9,0-5.2-2.3-5.2-5.2v0c0-2.9,2.3-5.2,5.2-5.2h120.5c2.9,0,5.2,2.3,5.2,5.2v0
			C147.6,113.8,145.2,116.1,142.3,116.1z"/>
	</g>
	<g>
		<path class="st7" d="M141.1,116.1H20.7c-2.9,0-5.2-2.3-5.2-5.2v0c0-2.9,2.3-5.2,5.2-5.2h120.5c2.9,0,5.2,2.3,5.2,5.2v0
			C146.4,113.8,144,116.1,141.1,116.1z"/>
	</g>
</g>
<g>
	<g class="st1">
		<path class="st2" d="M593.4,116.1H429.8c-2.9,0-5.2-2.3-5.2-5.2v0c0-2.9,2.3-5.2,5.2-5.2h163.7c2.9,0,5.2,2.3,5.2,5.2v0
			C598.6,113.8,596.3,116.1,593.4,116.1z"/>
	</g>
	<g>
		<path class="st7" d="M592.2,116.1H428.5c-2.9,0-5.2-2.3-5.2-5.2v0c0-2.9,2.3-5.2,5.2-5.2h163.7c2.9,0,5.2,2.3,5.2,5.2v0
			C597.4,113.8,595.1,116.1,592.2,116.1z"/>
	</g>
</g>
<g>
	<g class="st1">
		<path class="st2" d="M497.5,133.5h-67.7c-2.9,0-5.2-2.3-5.2-5.2v0c0-2.9,2.3-5.2,5.2-5.2h67.7c2.9,0,5.2,2.3,5.2,5.2v0
			C502.7,131.2,500.4,133.5,497.5,133.5z"/>
	</g>
	<g>
		<path class="st7" d="M496.3,133.5h-67.7c-2.9,0-5.2-2.3-5.2-5.2v0c0-2.9,2.3-5.2,5.2-5.2h67.7c2.9,0,5.2,2.3,5.2,5.2v0
			C501.5,131.2,499.2,133.5,496.3,133.5z"/>
	</g>
</g>
<g>
	<g class="st1">
		<path class="st2" d="M601,29.1H429.7c-2.9,0-5.2-2.3-5.2-5.2v0c0-2.9,2.3-5.2,5.2-5.2H601c2.9,0,5.2,2.3,5.2,5.2v0
			C606.2,26.8,603.9,29.1,601,29.1z"/>
	</g>
	<g>
		<path class="st8" d="M599.8,29.1H428.5c-2.9,0-5.2-2.3-5.2-5.2v0c0-2.9,2.3-5.2,5.2-5.2h171.3c2.9,0,5.2,2.3,5.2,5.2v0
			C605,26.8,602.7,29.1,599.8,29.1z"/>
	</g>
</g>
<g>
	<rect x="632.8" y="140.4" class="st0" width="113" height="10.5"/>
	<rect x="632.8" y="88.2" class="st0" width="161.9" height="10.5"/>
	<rect x="632.8" y="123" class="st0" width="168.5" height="10.5"/>
	<rect x="632.8" y="18.6" class="st0" width="168.5" height="10.5"/>
	<rect x="632.8" y="105.6" class="st0" width="176.1" height="10.5"/>
	<rect x="632.8" y="36" class="st0" width="176.1" height="10.5"/>
	<rect x="632.8" y="70.8" class="st0" width="154.5" height="10.5"/>
	<rect x="632.8" y="53.4" class="st0" width="161.9" height="10.5"/>
	<g>
		<g class="st1">
			<path class="st2" d="M701.4,29.1h-67.7c-2.9,0-5.2-2.3-5.2-5.2v0c0-2.9,2.3-5.2,5.2-5.2h67.7c2.9,0,5.2,2.3,5.2,5.2v0
				C706.6,26.8,704.3,29.1,701.4,29.1z"/>
		</g>
		<g>
			<path class="st3" d="M700.2,29.1h-67.7c-2.9,0-5.2-2.3-5.2-5.2v0c0-2.9,2.3-5.2,5.2-5.2h67.7c2.9,0,5.2,2.3,5.2,5.2v0
				C705.4,26.8,703,29.1,700.2,29.1z"/>
		</g>
	</g>
	<g>
		<g class="st1">
			<path class="st2" d="M737,18.6h-43.1c-2.9,0-5.2,2.3-5.2,5.2v0c0,2.9,2.3,5.2,5.2,5.2H737c2.9,0,5.2-2.3,5.2-5.2v0
				C742.3,21,739.9,18.6,737,18.6z"/>
		</g>
		<g>
			<path class="st4" d="M735.8,18.6h-43.1c-2.9,0-5.2,2.3-5.2,5.2v0c0,2.9,2.3,5.2,5.2,5.2h43.1c2.9,0,5.2-2.3,5.2-5.2v0
				C741.1,21,738.7,18.6,735.8,18.6z"/>
		</g>
	</g>
	<g>
		<g class="st1">
			<path class="st2" d="M797.3,81.3H633.6c-2.9,0-5.2-2.3-5.2-5.2v0c0-2.9,2.3-5.2,5.2-5.2h163.7c2.9,0,5.2,2.3,5.2,5.2v0
				C802.5,79,800.2,81.3,797.3,81.3z"/>
		</g>
		<g>
			<path class="st5" d="M796.1,81.3H632.4c-2.9,0-5.2-2.3-5.2-5.2v0c0-2.9,2.3-5.2,5.2-5.2h163.7c2.9,0,5.2,2.3,5.2,5.2v0
				C801.3,79,799,81.3,796.1,81.3z"/>
		</g>
	</g>
	<g>
		<g class="st1">
			<path class="st2" d="M797.3,98.7H633.6c-2.9,0-5.2-2.3-5.2-5.2v0c0-2.9,2.3-5.2,5.2-5.2h163.7c2.9,0,5.2,2.3,5.2,5.2v0
				C802.5,96.4,800.2,98.7,797.3,98.7z"/>
		</g>
		<g>
			<path class="st5" d="M796.1,98.7H632.4c-2.9,0-5.2-2.3-5.2-5.2v0c0-2.9,2.3-5.2,5.2-5.2h163.7c2.9,0,5.2,2.3,5.2,5.2v0
				C801.3,96.4,799,98.7,796.1,98.7z"/>
		</g>
	</g>
	<g>
		<g class="st1">
			<path class="st2" d="M683.4,116.1h-49.8c-2.9,0-5.2-2.3-5.2-5.2v0c0-2.9,2.3-5.2,5.2-5.2h49.8c2.9,0,5.2,2.3,5.2,5.2v0
				C688.6,113.8,686.3,116.1,683.4,116.1z"/>
		</g>
		<g>
			<path class="st5" d="M682.2,116.1h-49.8c-2.9,0-5.2-2.3-5.2-5.2v0c0-2.9,2.3-5.2,5.2-5.2h49.8c2.9,0,5.2,2.3,5.2,5.2v0
				C687.4,113.8,685.1,116.1,682.2,116.1z"/>
		</g>
	</g>
	<g>
		<g class="st1">
			<path class="st2" d="M809.2,133.5H633.7c-2.9,0-5.2-2.3-5.2-5.2v0c0-2.9,2.3-5.2,5.2-5.2h175.6c2.9,0,5.2,2.3,5.2,5.2v0
				C814.5,131.2,812.1,133.5,809.2,133.5z"/>
		</g>
		<g>
			<path class="st8" d="M808,133.5H632.5c-2.9,0-5.2-2.3-5.2-5.2v0c0-2.9,2.3-5.2,5.2-5.2H808c2.9,0,5.2,2.3,5.2,5.2v0
				C813.3,131.2,810.9,133.5,808,133.5z"/>
		</g>
	</g>
	<g>
		<g class="st1">
			<path class="st2" d="M755.7,150.9H633.5c-2.9,0-5.2-2.3-5.2-5.2v0c0-2.9,2.3-5.2,5.2-5.2h122.2c2.9,0,5.2,2.3,5.2,5.2v0
				C760.9,148.6,758.6,150.9,755.7,150.9z"/>
		</g>
		<g>
			<path class="st8" d="M754.6,150.9H632.5c-2.9,0-5.2-2.3-5.2-5.2v0c0-2.9,2.3-5.2,5.2-5.2h122.2c2.9,0,5.2,2.3,5.2,5.2v0
				C759.9,148.6,757.5,150.9,754.6,150.9z"/>
		</g>
	</g>
</g>
<g>
	<g class="st1">
		<path class="st2" d="M318.1,133.5h-39.8c-2.9,0-5.2-2.3-5.2-5.2v0c0-2.9,2.3-5.2,5.2-5.2h39.8c2.9,0,5.2,2.3,5.2,5.2v0
			C323.3,131.2,321,133.5,318.1,133.5z"/>
	</g>
	<g>
		<path class="st8" d="M317.4,133.5h-39.8c-2.9,0-5.2-2.3-5.2-5.2v0c0-2.9,2.3-5.2,5.2-5.2h39.8c2.9,0,5.2,2.3,5.2,5.2v0
			C322.7,131.2,320.3,133.5,317.4,133.5z"/>
	</g>
</g>
<g>
	<g class="st1">
		<path class="st2" d="M265,63.9h-39.8c-2.9,0-5.2-2.3-5.2-5.2v0c0-2.9,2.3-5.2,5.2-5.2H265c2.9,0,5.2,2.3,5.2,5.2v0
			C270.2,61.6,267.9,63.9,265,63.9z"/>
	</g>
	<g>
		<path class="st8" d="M264.4,63.9h-39.8c-2.9,0-5.2-2.3-5.2-5.2v0c0-2.9,2.3-5.2,5.2-5.2h39.8c2.9,0,5.2,2.3,5.2,5.2v0
			C269.6,61.6,267.3,63.9,264.4,63.9z"/>
	</g>
</g>
<g>
	<g class="st1">
		<path class="st2" d="M192.1,133.5h-39.8c-2.9,0-5.2-2.3-5.2-5.2v0c0-2.9,2.3-5.2,5.2-5.2h39.8c2.9,0,5.2,2.3,5.2,5.2v0
			C197.3,131.2,194.9,133.5,192.1,133.5z"/>
	</g>
	<g>
		<path class="st8" d="M191.4,133.5h-39.8c-2.9,0-5.2-2.3-5.2-5.2v0c0-2.9,2.3-5.2,5.2-5.2h39.8c2.9,0,5.2,2.3,5.2,5.2v0
			C196.7,131.2,194.3,133.5,191.4,133.5z"/>
	</g>
</g>
<g>
	<g class="st1">
		<path class="st2" d="M508.8,46.5h-79.4c-2.9,0-5.2-2.3-5.2-5.2v0c0-2.9,2.3-5.2,5.2-5.2h79.4c2.9,0,5.2,2.3,5.2,5.2v0
			C514,44.2,511.7,46.5,508.8,46.5z"/>
	</g>
	<g>
		<path class="st8" d="M507.9,46.5h-79.4c-2.9,0-5.2-2.3-5.2-5.2v0c0-2.9,2.3-5.2,5.2-5.2h79.4c2.9,0,5.2,2.3,5.2,5.2v0
			C513.2,44.2,510.8,46.5,507.9,46.5z"/>
	</g>
</g>
<rect x="1247.8" y="140.4" class="st0" width="113" height="10.5"/>
<rect x="1247.8" y="88.2" class="st0" width="161.9" height="10.5"/>
<rect x="1247.8" y="123" class="st0" width="168.5" height="10.5"/>
<rect x="1247.8" y="18.6" class="st0" width="168.5" height="10.5"/>
<rect x="1247.8" y="105.6" class="st0" width="176.1" height="10.5"/>
<rect x="1247.8" y="36" class="st0" width="176.1" height="10.5"/>
<rect x="1247.8" y="70.8" class="st0" width="154.5" height="10.5"/>
<rect x="1247.8" y="53.4" class="st0" width="161.9" height="10.5"/>
<rect x="1043.9" y="140.4" class="st0" width="113" height="10.5"/>
<rect x="1043.9" y="88.2" class="st0" width="161.9" height="10.5"/>
<rect x="1043.9" y="123" class="st0" width="168.5" height="10.5"/>
<rect x="1043.9" y="18.6" class="st0" width="168.5" height="10.5"/>
<rect x="1043.9" y="105.6" class="st0" width="176.1" height="10.5"/>
<rect x="1043.9" y="36" class="st0" width="176.1" height="10.5"/>
<rect x="1043.9" y="70.8" class="st0" width="154.5" height="10.5"/>
<rect x="1043.9" y="53.4" class="st0" width="161.9" height="10.5"/>
<rect x="840" y="140.4" class="st0" width="113" height="10.5"/>
<rect x="840" y="88.2" class="st0" width="161.9" height="10.5"/>
<rect x="840" y="123" class="st0" width="168.5" height="10.5"/>
<rect x="840" y="18.6" class="st0" width="168.5" height="10.5"/>
<rect x="840" y="105.6" class="st0" width="176.1" height="10.5"/>
<rect x="840" y="36" class="st0" width="176.1" height="10.5"/>
<rect x="840" y="70.8" class="st0" width="154.5" height="10.5"/>
<rect x="840" y="53.4" class="st0" width="161.9" height="10.5"/>
<g>
	<g class="st1">
		<path class="st2" d="M1350.2,98.7h-101.6c-2.9,0-5.2-2.3-5.2-5.2v0c0-2.9,2.3-5.2,5.2-5.2h101.6c2.9,0,5.2,2.3,5.2,5.2v0
			C1355.5,96.4,1353.1,98.7,1350.2,98.7z"/>
	</g>
	<g>
		<path class="st3" d="M1349,98.7h-101.6c-2.9,0-5.2-2.3-5.2-5.2v0c0-2.9,2.3-5.2,5.2-5.2H1349c2.9,0,5.2,2.3,5.2,5.2v0
			C1354.3,96.4,1351.9,98.7,1349,98.7z"/>
	</g>
</g>
<g>
	<g class="st1">
		<path class="st2" d="M1385.4,123h-43.1c-2.9,0-5.2,2.3-5.2,5.2v0c0,2.9,2.3,5.2,5.2,5.2h43.1c2.9,0,5.2-2.3,5.2-5.2v0
			C1390.6,125.4,1388.3,123,1385.4,123z"/>
	</g>
	<g>
		<path class="st5" d="M1384.2,123h-43.1c-2.9,0-5.2,2.3-5.2,5.2v0c0,2.9,2.3,5.2,5.2,5.2h43.1c2.9,0,5.2-2.3,5.2-5.2v0
			C1389.4,125.4,1387.1,123,1384.2,123z"/>
	</g>
</g>
<g>
	<g class="st1">
		<path class="st2" d="M1385.4,46.5h-136.8c-2.9,0-5.2-2.3-5.2-5.2v0c0-2.9,2.3-5.2,5.2-5.2h136.8c2.9,0,5.2,2.3,5.2,5.2v0
			C1390.6,44.2,1388.3,46.5,1385.4,46.5z"/>
	</g>
	<g>
		<path class="st4" d="M1384.2,46.5h-136.8c-2.9,0-5.2-2.3-5.2-5.2v0c0-2.9,2.3-5.2,5.2-5.2h136.8c2.9,0,5.2,2.3,5.2,5.2v0
			C1389.4,44.2,1387.1,46.5,1384.2,46.5z"/>
	</g>
</g>
<g>
	<g class="st1">
		<path class="st2" d="M1422.9,29.1l-174.3,0c-2.9,0-5.2-2.3-5.2-5.2v0c0-2.9,2.3-5.2,5.2-5.2h174.3c2.9,0,5.2,2.3,5.2,5.2v0
			C1428.2,26.8,1425.8,29.1,1422.9,29.1z"/>
	</g>
	<g>
		<path class="st4" d="M1421.7,29.1l-174.3,0c-2.9,0-5.2-2.3-5.2-5.2v0c0-2.9,2.3-5.2,5.2-5.2h174.3c2.9,0,5.2,2.3,5.2,5.2v0
			C1427,26.8,1424.6,29.1,1421.7,29.1z"/>
	</g>
</g>
<g>
	<g class="st1">
		<path class="st2" d="M1112.5,29.1h-67.7c-2.9,0-5.2-2.3-5.2-5.2v0c0-2.9,2.3-5.2,5.2-5.2h67.7c2.9,0,5.2,2.3,5.2,5.2v0
			C1117.7,26.8,1115.4,29.1,1112.5,29.1z"/>
	</g>
	<g>
		<path class="st3" d="M1111.3,29.1h-67.7c-2.9,0-5.2-2.3-5.2-5.2v0c0-2.9,2.3-5.2,5.2-5.2h67.7c2.9,0,5.2,2.3,5.2,5.2v0
			C1116.5,26.8,1114.1,29.1,1111.3,29.1z"/>
	</g>
</g>
<g>
	<g class="st1">
		<path class="st2" d="M1148.1,18.6H1105c-2.9,0-5.2,2.3-5.2,5.2v0c0,2.9,2.3,5.2,5.2,5.2h43.1c2.9,0,5.2-2.3,5.2-5.2v0
			C1153.4,21,1151,18.6,1148.1,18.6z"/>
	</g>
	<g>
		<path class="st4" d="M1146.9,18.6h-43.1c-2.9,0-5.2,2.3-5.2,5.2v0c0,2.9,2.3,5.2,5.2,5.2h43.1c2.9,0,5.2-2.3,5.2-5.2v0
			C1152.2,21,1149.8,18.6,1146.9,18.6z"/>
	</g>
</g>
<g>
	<g class="st1">
		<path class="st2" d="M1208.4,81.3h-163.7c-2.9,0-5.2-2.3-5.2-5.2v0c0-2.9,2.3-5.2,5.2-5.2h163.7c2.9,0,5.2,2.3,5.2,5.2v0
			C1213.6,79,1211.3,81.3,1208.4,81.3z"/>
	</g>
	<g>
		<path class="st5" d="M1207.2,81.3h-163.7c-2.9,0-5.2-2.3-5.2-5.2v0c0-2.9,2.3-5.2,5.2-5.2h163.7c2.9,0,5.2,2.3,5.2,5.2v0
			C1212.4,79,1210.1,81.3,1207.2,81.3z"/>
	</g>
</g>
<g>
	<g class="st1">
		<path class="st2" d="M1208.4,98.7h-163.7c-2.9,0-5.2-2.3-5.2-5.2v0c0-2.9,2.3-5.2,5.2-5.2h163.7c2.9,0,5.2,2.3,5.2,5.2v0
			C1213.6,96.4,1211.3,98.7,1208.4,98.7z"/>
	</g>
	<g>
		<path class="st5" d="M1207.2,98.7h-163.7c-2.9,0-5.2-2.3-5.2-5.2v0c0-2.9,2.3-5.2,5.2-5.2h163.7c2.9,0,5.2,2.3,5.2,5.2v0
			C1212.4,96.4,1210.1,98.7,1207.2,98.7z"/>
	</g>
</g>
<g>
	<g class="st1">
		<path class="st2" d="M1094.5,116.1h-49.8c-2.9,0-5.2-2.3-5.2-5.2v0c0-2.9,2.3-5.2,5.2-5.2h49.8c2.9,0,5.2,2.3,5.2,5.2v0
			C1099.7,113.8,1097.4,116.1,1094.5,116.1z"/>
	</g>
	<g>
		<path class="st5" d="M1093.3,116.1h-49.8c-2.9,0-5.2-2.3-5.2-5.2v0c0-2.9,2.3-5.2,5.2-5.2h49.8c2.9,0,5.2,2.3,5.2,5.2v0
			C1098.5,113.8,1096.2,116.1,1093.3,116.1z"/>
	</g>
</g>
<g>
	<g>
		<g class="st1">
			<path class="st2" d="M963,46.5l-122.2,0c-2.9,0-5.2-2.3-5.2-5.2v0c0-2.9,2.3-5.2,5.2-5.2H963c2.9,0,5.2,2.3,5.2,5.2v0
				C968.3,44.2,965.9,46.5,963,46.5z"/>
		</g>
		<g>
			<path class="st3" d="M961.8,46.5l-122.2,0c-2.9,0-5.2-2.3-5.2-5.2v0c0-2.9,2.3-5.2,5.2-5.2h122.2c2.9,0,5.2,2.3,5.2,5.2v0
				C967.1,44.2,964.7,46.5,961.8,46.5z"/>
		</g>
	</g>
	<g>
		<g class="st1">
			<path class="st2" d="M977.7,71h-43.1c-2.9,0-5.2,2.3-5.2,5.2v0c0,2.9,2.3,5.2,5.2,5.2h43.1c2.9,0,5.2-2.3,5.2-5.2v0
				C982.9,73.4,980.6,71,977.7,71z"/>
		</g>
		<g>
			<path class="st4" d="M976.5,71h-43.1c-2.9,0-5.2,2.3-5.2,5.2v0c0,2.9,2.3,5.2,5.2,5.2h43.1c2.9,0,5.2-2.3,5.2-5.2v0
				C981.7,73.4,979.3,71,976.5,71z"/>
		</g>
	</g>
</g>
<g class="st6">
	<path d="M1246.2,90.5c-0.1-0.1-0.2-0.2-0.4-0.2c-0.1,0-0.3,0.1-0.4,0.2c-0.1,0.1-0.2,0.2-0.2,0.4c0,0.1,0,0.2,0.1,0.3
		c0,0.1,0.1,0.1,0.2,0.2v5.2c0,0,0,0.1,0,0.1s0.1,0,0.1,0h0.3c0,0,0.1,0,0.1,0c0,0,0-0.1,0-0.1v-5.2c0.1,0,0.1-0.1,0.2-0.2
		c0-0.1,0.1-0.2,0.1-0.3C1246.4,90.7,1246.3,90.6,1246.2,90.5z"/>
	<path d="M1252.2,90.9c-0.1,0-0.2-0.1-0.3,0c0,0-0.1,0-0.1,0.1c-0.5,0.3-0.9,0.5-1.3,0.5c-0.1,0-0.3,0-0.4-0.1
		c-0.3-0.1-0.6-0.3-0.9-0.4c-0.3-0.1-0.5-0.1-0.9-0.1c-0.2,0-0.4,0-0.6,0.1c-0.2,0.1-0.4,0.1-0.6,0.2c-0.2,0.1-0.3,0.2-0.5,0.2
		c0,0,0,0-0.1,0c-0.1,0-0.2,0.1-0.3,0.1c-0.1,0.1-0.1,0.1-0.1,0.2v3c0,0.1,0,0.2,0.1,0.2c0,0,0.1,0,0.1,0c0,0,0.1,0,0.1,0
		c0,0,0,0,0,0c0.3-0.2,0.6-0.3,0.9-0.4c0.4-0.1,0.7-0.2,1-0.2c0.2,0,0.3,0,0.5,0.1c0.2,0,0.3,0.1,0.4,0.1c0.1,0,0.2,0.1,0.4,0.2
		l0.1,0.1c0.2,0.1,0.4,0.1,0.6,0.1c0.4,0,0.9-0.2,1.5-0.5c0,0,0,0,0.1,0c0.1,0,0.1-0.1,0.1-0.2v-3.1
		C1252.4,91,1252.3,91,1252.2,90.9z"/>
</g>
<g>
	<g class="st1">
		<path class="st2" d="M1304.5,116.1h-55.9c-2.9,0-5.2-2.3-5.2-5.2v0c0-2.9,2.3-5.2,5.2-5.2h55.9c2.9,0,5.2,2.3,5.2,5.2v0
			C1309.7,113.8,1307.3,116.1,1304.5,116.1z"/>
	</g>
	<g>
		<path class="st7" d="M1303.2,116.1h-55.9c-2.9,0-5.2-2.3-5.2-5.2v0c0-2.9,2.3-5.2,5.2-5.2h55.9c2.9,0,5.2,2.3,5.2,5.2v0
			C1308.5,113.8,1306.1,116.1,1303.2,116.1z"/>
	</g>
</g>
<g>
	<g class="st1">
		<path class="st2" d="M1004.5,116.1H840.9c-2.9,0-5.2-2.3-5.2-5.2v0c0-2.9,2.3-5.2,5.2-5.2h163.7c2.9,0,5.2,2.3,5.2,5.2v0
			C1009.7,113.8,1007.4,116.1,1004.5,116.1z"/>
	</g>
	<g>
		<path class="st7" d="M1003.3,116.1H839.6c-2.9,0-5.2-2.3-5.2-5.2v0c0-2.9,2.3-5.2,5.2-5.2h163.7c2.9,0,5.2,2.3,5.2,5.2v0
			C1008.5,113.8,1006.2,116.1,1003.3,116.1z"/>
	</g>
</g>
<g>
	<g class="st1">
		<path class="st2" d="M908.6,133.5h-67.7c-2.9,0-5.2-2.3-5.2-5.2v0c0-2.9,2.3-5.2,5.2-5.2h67.7c2.9,0,5.2,2.3,5.2,5.2v0
			C913.8,131.2,911.5,133.5,908.6,133.5z"/>
	</g>
	<g>
		<path class="st7" d="M907.4,133.5h-67.7c-2.9,0-5.2-2.3-5.2-5.2v0c0-2.9,2.3-5.2,5.2-5.2h67.7c2.9,0,5.2,2.3,5.2,5.2v0
			C912.6,131.2,910.3,133.5,907.4,133.5z"/>
	</g>
</g>
<g>
	<g class="st1">
		<path class="st2" d="M1352.3,63.9H1247c-2.9,0-5.2-2.3-5.2-5.2v0c0-2.9,2.3-5.2,5.2-5.2h105.3c2.9,0,5.2,2.3,5.2,5.2v0
			C1357.6,61.6,1355.2,63.9,1352.3,63.9z"/>
	</g>
	<g>
		<path class="st8" d="M1351.4,63.9H1246c-2.9,0-5.2-2.3-5.2-5.2v0c0-2.9,2.3-5.2,5.2-5.2h105.3c2.9,0,5.2,2.3,5.2,5.2v0
			C1356.6,61.6,1354.3,63.9,1351.4,63.9z"/>
	</g>
</g>
<g>
	<g class="st1">
		<path class="st2" d="M1222.4,46.5h-177.6c-2.9,0-5.2-2.3-5.2-5.2v0c0-2.9,2.3-5.2,5.2-5.2h177.6c2.9,0,5.2,2.3,5.2,5.2v0
			C1227.6,44.2,1225.3,46.5,1222.4,46.5z"/>
	</g>
	<g>
		<path class="st8" d="M1221.1,46.5h-177.6c-2.9,0-5.2-2.3-5.2-5.2v0c0-2.9,2.3-5.2,5.2-5.2h177.6c2.9,0,5.2,2.3,5.2,5.2v0
			C1226.4,44.2,1224,46.5,1221.1,46.5z"/>
	</g>
</g>
<g>
	<g class="st1">
		<path class="st2" d="M1208.3,63.9h-163.7c-2.9,0-5.2-2.3-5.2-5.2v0c0-2.9,2.3-5.2,5.2-5.2h163.7c2.9,0,5.2,2.3,5.2,5.2v0
			C1213.6,61.6,1211.2,63.9,1208.3,63.9z"/>
	</g>
	<g>
		<path class="st8" d="M1207.2,63.9h-163.7c-2.9,0-5.2-2.3-5.2-5.2v0c0-2.9,2.3-5.2,5.2-5.2h163.7c2.9,0,5.2,2.3,5.2,5.2v0
			C1212.4,61.6,1210.1,63.9,1207.2,63.9z"/>
	</g>
</g>
<g>
	<g class="st1">
		<path class="st2" d="M1004.5,98.7l-163.7,0c-2.9,0-5.2-2.3-5.2-5.2v0c0-2.9,2.3-5.2,5.2-5.2h163.7c2.9,0,5.2,2.3,5.2,5.2v0
			C1009.7,96.4,1007.4,98.7,1004.5,98.7z"/>
	</g>
	<g>
		<path class="st8" d="M1003.3,98.7l-163.7,0c-2.9,0-5.2-2.3-5.2-5.2v0c0-2.9,2.3-5.2,5.2-5.2h163.7c2.9,0,5.2,2.3,5.2,5.2v0
			C1008.5,96.4,1006.2,98.7,1003.3,98.7z"/>
	</g>
</g>
<g>
	<g class="st1">
		<path class="st2" d="M1166.4,81.5h-121.9c-2.9,0-5.2-2.3-5.2-5.2v0c0-2.9,2.3-5.2,5.2-5.2h121.9c2.9,0,5.2,2.3,5.2,5.2v0
			C1171.6,79.2,1169.3,81.5,1166.4,81.5z"/>
	</g>
	<g>
		<path class="st8" d="M1165.4,81.5h-121.9c-2.9,0-5.2-2.3-5.2-5.2v0c0-2.9,2.3-5.2,5.2-5.2h121.9c2.9,0,5.2,2.3,5.2,5.2v0
			C1170.6,79.2,1168.3,81.5,1165.4,81.5z"/>
	</g>
</g>
</svg>
