<?xml version="1.0" encoding="utf-8"?>
<!-- Generator: Adobe Illustrator 19.1.0, SVG Export Plug-In . SVG Version: 6.00 Build 0)  -->
<!DOCTYPE svg PUBLIC "-//W3C//DTD SVG 1.1//EN" "http://www.w3.org/Graphics/SVG/1.1/DTD/svg11.dtd">
<svg version="1.1" id="Layer_1" xmlns="http://www.w3.org/2000/svg" xmlns:xlink="http://www.w3.org/1999/xlink" x="0px" y="0px"
	 viewBox="0 0 180.5 170.4" style="enable-background:new 0 0 180.5 170.4;" xml:space="preserve">
<style type="text/css">
	.st0{fill:#666666;}
	.st1{fill:#979797;}
	.st2{opacity:0.9;fill:#979797;}
	.st3{opacity:0.9;fill:#666666;}
</style>
<g>
	<g>
		<path class="st0" d="M146.2,0L0,0l0,9.4h146.2c2.6,0,4.7-2.1,4.7-4.7v0C150.9,2.1,148.8,0,146.2,0z"/>
		<path class="st1" d="M156.5,14.1H22.8v9.4h133.7c2.6,0,4.7-2.1,4.7-4.7v0C161.2,16.2,159.1,14.1,156.5,14.1z"/>
		<path class="st1" d="M175.8,28.3h-153v9.4h153c2.6,0,4.7-2.1,4.7-4.7v0C180.5,30.4,178.4,28.3,175.8,28.3z"/>
	</g>
	<g>
		<path class="st2" d="M137.3,66.2H22.8v9.4h114.4c2.6,0,4.7-2.1,4.7-4.7v0C141.9,68.3,139.8,66.2,137.3,66.2z"/>
		<path class="st3" d="M107.4,52.1H0l0,9.4h107.4c2.6,0,4.7-2.1,4.7-4.7v0C112.1,54.2,110,52.1,107.4,52.1z"/>
		<path class="st2" d="M121.5,80.4H22.8v9.4h98.7c2.6,0,4.7-2.1,4.7-4.7v0C126.2,82.5,124.1,80.4,121.5,80.4z"/>
		<path class="st1" d="M97,94.5H22.8v9.4H97c2.6,0,4.7-2.1,4.7-4.7v0C101.7,96.6,99.6,94.5,97,94.5z"/>
	</g>
	<g>
		<path class="st0" d="M159.1,118.3H0l0,9.4h159.2c2.6,0,4.7-2.1,4.7-4.7v0C163.8,120.4,161.7,118.3,159.1,118.3z"/>
		<path class="st1" d="M131.4,132.8H22.8v9.4h108.6c2.6,0,4.7-2.1,4.7-4.7l0,0C136.1,134.9,134,132.8,131.4,132.8z"/>
		<path class="st1" d="M116.8,146.9H22.8v9.4h93.9c2.6,0,4.7-2.1,4.7-4.7l0,0C121.4,149,119.3,146.9,116.8,146.9z"/>
		<path class="st1" d="M144.4,161.1H22.8v9.4h121.6c2.6,0,4.7-2.1,4.7-4.7v0C149.1,163.2,147,161.1,144.4,161.1z"/>
	</g>
</g>
</svg>
