<?xml version="1.0" encoding="utf-8"?>
<!-- Generator: Adobe Illustrator 19.1.0, SVG Export Plug-In . SVG Version: 6.00 Build 0)  -->
<!DOCTYPE svg PUBLIC "-//W3C//DTD SVG 1.1//EN" "http://www.w3.org/Graphics/SVG/1.1/DTD/svg11.dtd">
<svg version="1.1" id="Layer_1" xmlns="http://www.w3.org/2000/svg" xmlns:xlink="http://www.w3.org/1999/xlink" x="0px" y="0px"
	 viewBox="0 0 110.4 86.4" style="enable-background:new 0 0 110.4 86.4;" xml:space="preserve">
<style type="text/css">
	.st0{fill:#DEB26F;}
	.st1{fill:#AC9EB7;}
	.st2{fill:#84B3DA;}
	.st3{opacity:0.2;}
	.st4{fill:none;}
	.st5{fill:url(#SVGID_1_);}
	.st6{fill:url(#SVGID_2_);}
	.st7{opacity:0.3;}
	.st8{font-family:'FontAwesome';}
	.st9{font-size:5px;}
</style>
<path class="st0" d="M1.4,0.6C0.7,0.6,0,1.3,0,2v21.6c0,0.8,0.7,1.4,1.4,1.4h109V0.6H1.4z"/>
<path class="st1" d="M1.4,29.5c-0.8,0-1.4,0.7-1.4,1.7v24.7c0,0.9,0.7,1.7,1.4,1.7h109v-28H1.4z"/>
<path class="st2" d="M1.4,61.9c-0.8,0-1.4,0.7-1.4,1.4v21.6c0,0.8,0.7,1.4,1.4,1.4h109V61.9H1.4z"/>
<g class="st3">
	<rect x="3.7" y="7.4" width="90.6" height="3.6"/>
	<rect x="3.7" y="13.2" width="36.4" height="3.6"/>
	<rect x="69.7" y="18.3" width="32.7" height="1.8"/>
</g>
<g class="st3">
	<rect x="3.7" y="38" width="90.6" height="3.6"/>
	<rect x="3.7" y="43.8" width="36.4" height="3.6"/>
	<rect x="69.7" y="48.9" width="32.7" height="1.8"/>
</g>
<g class="st3">
	<rect x="3.7" y="68.6" width="90.6" height="3.6"/>
	<rect x="3.7" y="74.4" width="36.4" height="3.6"/>
	<rect x="69.7" y="79.5" width="32.7" height="1.8"/>
</g>
<rect x="50.7" y="-19.7" class="st4" width="27.2" height="22.2"/>
<linearGradient id="SVGID_1_" gradientUnits="userSpaceOnUse" x1="55.2083" y1="-2.422257e-08" x2="55.2083" y2="28.5096">
	<stop  offset="0" style="stop-color:#FFFFFF"/>
	<stop  offset="1" style="stop-color:#FFFFFF;stop-opacity:0"/>
</linearGradient>
<rect x="0" y="0" class="st5" width="110.4" height="28.5"/>
<linearGradient id="SVGID_2_" gradientUnits="userSpaceOnUse" x1="55.2083" y1="61.9693" x2="55.2083" y2="90.4789" gradientTransform="matrix(-1 0 0 -1 110.4167 148.3899)">
	<stop  offset="0" style="stop-color:#FFFFFF"/>
	<stop  offset="1" style="stop-color:#FFFFFF;stop-opacity:0"/>
</linearGradient>
<rect x="0" y="57.9" class="st6" width="110.4" height="28.5"/>
<rect x="3.7" y="30.6" class="st4" width="42.9" height="15.1"/>
<text transform="matrix(1 0 0 1 3.7292 35.0286)" class="st7 st8 st9"></text>
<rect x="103.2" y="31.2" class="st4" width="42.9" height="15.1"/>
<text transform="matrix(1 0 0 1 103.2292 35.5847)" class="st7 st8 st9"></text>
<rect x="3.7" y="49.9" class="st4" width="42.9" height="15.1"/>
<text transform="matrix(1 0 0 1 3.7292 54.2521)" class="st7 st8 st9"></text>
</svg>
