<?xml version="1.0" encoding="utf-8"?>
<!-- Generator: Adobe Illustrator 19.1.0, SVG Export Plug-In . SVG Version: 6.00 Build 0)  -->
<!DOCTYPE svg PUBLIC "-//W3C//DTD SVG 1.1//EN" "http://www.w3.org/Graphics/SVG/1.1/DTD/svg11.dtd">
<svg version="1.1" xmlns="http://www.w3.org/2000/svg" xmlns:xlink="http://www.w3.org/1999/xlink" x="0px" y="0px"
	 viewBox="0 0 456.9 253" style="enable-background:new 0 0 456.9 253;" xml:space="preserve">
<style type="text/css">
	.st0{display:none;}
	.st1{display:inline;fill:none;stroke:#CCCCCC;stroke-miterlimit:10;}
	.st2{display:inline;}
	.st3{clip-path:url(#SVGID_2_);}
	.st4{fill:#CCCCCC;}
	.st5{opacity:0.9;fill:#CCCCCC;}
	.st6{fill:#DFB36F;}
	.st7{fill:#72C7A6;}
	.st8{fill:#FB857C;}
	.st9{opacity:0.9;fill:#AD9FB8;}
	.st10{fill:#DEB26F;}
	.st11{fill:#F3837D;}
	.st12{fill:#AC9EB7;}
	.st13{fill:#84B3DA;}
	.st14{fill:#73C7A6;}
	.st15{clip-path:url(#SVGID_2_);fill:#CCCBCB;}
	.st16{fill:#CCCBCB;}
	.st17{opacity:0.2;}
	.st18{fill:#231F20;}
	.st19{opacity:0.2;clip-path:url(#SVGID_2_);}
	.st20{display:inline;opacity:0.35;}
	.st21{fill:none;stroke:#000000;stroke-width:0.1323;stroke-miterlimit:10;}
	.st22{clip-path:url(#SVGID_4_);}
	.st23{fill:#666666;}
	.st24{fill:#999999;}
	.st25{opacity:0.9;fill:#999999;}
	.st26{opacity:0.9;fill:#666666;}
	.st27{opacity:0.9;fill:#AC9EB7;}
	.st28{clip-path:url(#SVGID_4_);fill:none;stroke:#CCCCCC;stroke-miterlimit:10;}
	.st29{opacity:0.1;}
	.st30{fill:none;stroke:#E5E5E5;stroke-miterlimit:10;}
	.st31{fill:#E5E5E5;}
	.st32{fill:#E5574C;}
	.st33{fill:#E29823;}
	.st34{fill:#71C13D;}
</style>
<g id="Display">
</g>
<g id="Document" class="st0">
	<line class="st1" x1="112.8" y1="8.7" x2="112.8" y2="252"/>
	<line class="st1" x1="344" y1="8.7" x2="344" y2="252"/>
	<g class="st2">
		<defs>
			<path id="SVGID_1_" d="M452.8,252H4.1c-1.7,0-3.2-1.4-3.2-3.2V3.7c0-1.7,1.4-3.2,3.2-3.2h448.7c1.7,0,3.2,1.4,3.2,3.2v245.2
				C455.9,250.6,454.5,252,452.8,252z"/>
		</defs>
		<clipPath id="SVGID_2_">
			<use xlink:href="#SVGID_1_"  style="overflow:visible;"/>
		</clipPath>
		<g class="st3">
			<g>
				<path class="st4" d="M79.3,116.9H13.9v3.9h65.4c1.1,0,1.9-0.9,1.9-1.9l0,0C81.2,117.8,80.3,116.9,79.3,116.9z"/>
				<path class="st4" d="M65.7,160H13.9v3.9h51.8c1.1,0,1.9-0.9,1.9-1.9v0C67.7,160.9,66.8,160,65.7,160z"/>
				<path class="st4" d="M75.1,165.8H23.3v3.9h51.8c1.1,0,1.9-0.9,1.9-1.9l0,0C77,166.7,76.2,165.8,75.1,165.8z"/>
				<path class="st4" d="M75.1,171.6H23.3v3.9h51.8c1.1,0,1.9-0.9,1.9-1.9l0,0C77,172.5,76.2,171.6,75.1,171.6z"/>
				<path class="st4" d="M82.3,177.4H30.4v3.9h51.8c1.1,0,1.9-0.9,1.9-1.9l0,0C84.2,178.3,83.3,177.4,82.3,177.4z"/>
				<path class="st4" d="M82.3,183.2H30.4v3.9h51.8c1.1,0,1.9-0.9,1.9-1.9l0,0C84.2,184.1,83.3,183.2,82.3,183.2z"/>
				<path class="st4" d="M90.5,43.9H30.4v3.9h60.1c1.1,0,1.9-0.9,1.9-1.9v0C92.4,44.7,91.6,43.9,90.5,43.9z"/>
				<path class="st4" d="M74,20.6H13.9v3.9H74c1.1,0,1.9-0.9,1.9-1.9v0C75.9,21.5,75,20.6,74,20.6z"/>
				<path class="st4" d="M93.3,49.7H30.4v3.9h62.8c1.1,0,1.9-0.9,1.9-1.9v0C95.2,50.5,94.4,49.7,93.3,49.7z"/>
				<path class="st4" d="M78.2,26.4H23.3v3.9h54.9c1.1,0,1.9-0.9,1.9-1.9v0C80.1,27.3,79.2,26.4,78.2,26.4z"/>
				<path class="st4" d="M85.5,38H30.6v3.9h54.9c1.1,0,1.9-0.9,1.9-1.9v0C87.5,38.9,86.6,38,85.5,38z"/>
				<path class="st4" d="M86.1,32.2H23.3v3.9h62.8c1.1,0,1.9-0.9,1.9-1.9v0C88,33.1,87.2,32.2,86.1,32.2z"/>
				<path class="st5" d="M70.3,63h-47v3.9h47c1.1,0,1.9-0.9,1.9-1.9l0,0C72.2,63.8,71.3,63,70.3,63z"/>
				<path class="st5" d="M58,57.1H13.9V61H58c1.1,0,1.9-0.9,1.9-1.9v0C60,58,59.1,57.1,58,57.1z"/>
				<path class="st4" d="M81.2,80.4H30.4v3.9h50.7c1.1,0,1.9-0.9,1.9-1.9v0C83.1,81.2,82.2,80.4,81.2,80.4z"/>
				<path class="st5" d="M73.2,68.8H23.3v3.9h49.9c1.1,0,1.9-0.9,1.9-1.9l0,0C75.1,69.6,74.3,68.8,73.2,68.8z"/>
				<path class="st4" d="M73.2,97.8H23.3v3.9h49.9c1.1,0,1.9-0.9,1.9-1.9l0,0C75.1,98.7,74.3,97.8,73.2,97.8z"/>
				<path class="st4" d="M73.2,103.6H23.3v3.9h49.9c1.1,0,1.9-0.9,1.9-1.9v0C75.1,104.5,74.3,103.6,73.2,103.6z"/>
				<path class="st4" d="M73.2,109.4H23.3v3.9h49.9c1.1,0,1.9-0.9,1.9-1.9v0C75.1,110.3,74.3,109.4,73.2,109.4z"/>
				<path class="st4" d="M73.2,122.9H23.3v3.9h49.9c1.1,0,1.9-0.9,1.9-1.9l0,0C75.1,123.7,74.3,122.9,73.2,122.9z"/>
				<path class="st4" d="M73.2,128.7H23.3v3.9h49.9c1.1,0,1.9-0.9,1.9-1.9l0,0C75.1,129.5,74.3,128.7,73.2,128.7z"/>
				<path class="st4" d="M73.2,134.5H23.3v3.9h49.9c1.1,0,1.9-0.9,1.9-1.9l0,0C75.1,135.3,74.3,134.5,73.2,134.5z"/>
				<path class="st4" d="M76.9,74.6H30.6v3.9h46.3c1.1,0,1.9-0.9,1.9-1.9l0,0C78.9,75.4,78,74.6,76.9,74.6z"/>
				<path class="st4" d="M81.2,92H30.4v3.9h50.7c1.1,0,1.9-0.9,1.9-1.9v0C83.1,92.9,82.2,92,81.2,92z"/>
				<path class="st4" d="M84.5,86.2H30.6V90h53.9c1.1,0,1.9-0.9,1.9-1.9l0,0C86.4,87.1,85.5,86.2,84.5,86.2z"/>
				<path class="st4" d="M81.2,140.6H30.4v3.9h50.7c1.1,0,1.9-0.9,1.9-1.9l0,0C83.1,141.5,82.2,140.6,81.2,140.6z"/>
				<path class="st4" d="M81.2,152.3H30.4v3.9h50.7c1.1,0,1.9-0.9,1.9-1.9l0,0C83.1,153.1,82.2,152.3,81.2,152.3z"/>
				<path class="st4" d="M84.5,146.5H30.6v3.9h53.9c1.1,0,1.9-0.9,1.9-1.9v0C86.4,147.3,85.5,146.5,84.5,146.5z"/>
			</g>
			<circle class="st6" cx="11.2" cy="22.5" r="1.5"/>
			<circle class="st6" cx="20.8" cy="28.4" r="1.5"/>
			<circle class="st6" cx="20.8" cy="34.2" r="1.5"/>
			<circle class="st5" cx="11.2" cy="59.1" r="1.5"/>
			<circle class="st5" cx="20.8" cy="64.9" r="1.5"/>
			<circle class="st5" cx="20.8" cy="70.7" r="1.5"/>
			<circle class="st5" cx="20.8" cy="99.7" r="1.5"/>
			<circle class="st5" cx="20.8" cy="105.6" r="1.5"/>
			<circle class="st5" cx="20.8" cy="111.4" r="1.5"/>
			<circle class="st7" cx="11.2" cy="118.8" r="1.5"/>
			<circle class="st7" cx="20.8" cy="124.8" r="1.5"/>
			<circle class="st7" cx="20.8" cy="130.6" r="1.5"/>
			<circle class="st7" cx="20.8" cy="136.4" r="1.5"/>
			<circle class="st8" cx="11.2" cy="161.9" r="1.5"/>
			<circle class="st8" cx="20.8" cy="167.7" r="1.5"/>
			<circle class="st8" cx="20.8" cy="173.5" r="1.5"/>
		</g>
		<g class="st3">
			<path class="st4" d="M79.3,287.6H13.9v3.9h65.4c1.1,0,1.9-0.9,1.9-1.9l0,0C81.2,288.4,80.3,287.6,79.3,287.6z"/>
			<path class="st4" d="M65.7,330.7H13.9v3.9h51.8c1.1,0,1.9-0.9,1.9-1.9l0,0C67.7,331.5,66.8,330.7,65.7,330.7z"/>
			<path class="st4" d="M75.1,336.5H23.3v3.9h51.8c1.1,0,1.9-0.9,1.9-1.9l0,0C77,337.3,76.2,336.5,75.1,336.5z"/>
			<path class="st4" d="M75.1,342.3H23.3v3.9h51.8c1.1,0,1.9-0.9,1.9-1.9l0,0C77,343.1,76.2,342.3,75.1,342.3z"/>
			<path class="st4" d="M82.3,348.1H30.4v3.9h51.8c1.1,0,1.9-0.9,1.9-1.9l0,0C84.2,348.9,83.3,348.1,82.3,348.1z"/>
			<path class="st4" d="M82.3,353.9H30.4v3.9h51.8c1.1,0,1.9-0.9,1.9-1.9l0,0C84.2,354.8,83.3,353.9,82.3,353.9z"/>
			<path class="st4" d="M90.5,214.5H30.4v3.9h60.1c1.1,0,1.9-0.9,1.9-1.9l0,0C92.4,215.4,91.6,214.5,90.5,214.5z"/>
			<path class="st4" d="M74,191.3H13.9v3.9H74c1.1,0,1.9-0.9,1.9-1.9l0,0C75.9,192.1,75,191.3,74,191.3z"/>
			<path class="st4" d="M93.3,220.3H30.4v3.9h62.8c1.1,0,1.9-0.9,1.9-1.9v0C95.2,221.2,94.4,220.3,93.3,220.3z"/>
			<path class="st4" d="M78.2,197.1H23.3v3.9h54.9c1.1,0,1.9-0.9,1.9-1.9l0,0C80.1,197.9,79.2,197.1,78.2,197.1z"/>
			<path class="st4" d="M85.5,208.7H30.6v3.9h54.9c1.1,0,1.9-0.9,1.9-1.9l0,0C87.5,209.6,86.6,208.7,85.5,208.7z"/>
			<path class="st4" d="M86.1,202.9H23.3v3.9h62.8c1.1,0,1.9-0.9,1.9-1.9l0,0C88,203.8,87.2,202.9,86.1,202.9z"/>
			<path class="st5" d="M70.3,233.6h-47v3.9h47c1.1,0,1.9-0.9,1.9-1.9v0C72.2,234.5,71.3,233.6,70.3,233.6z"/>
			<path class="st5" d="M58,227.8H13.9v3.9H58c1.1,0,1.9-0.9,1.9-1.9l0,0C60,228.7,59.1,227.8,58,227.8z"/>
			<path class="st4" d="M81.2,251H30.4v3.9h50.7c1.1,0,1.9-0.9,1.9-1.9l0,0C83.1,251.9,82.2,251,81.2,251z"/>
			<path class="st5" d="M73.2,239.4H23.3v3.9h49.9c1.1,0,1.9-0.9,1.9-1.9l0,0C75.1,240.3,74.3,239.4,73.2,239.4z"/>
			<path class="st4" d="M73.2,268.5H23.3v3.9h49.9c1.1,0,1.9-0.9,1.9-1.9l0,0C75.1,269.3,74.3,268.5,73.2,268.5z"/>
			<path class="st4" d="M73.2,274.3H23.3v3.9h49.9c1.1,0,1.9-0.9,1.9-1.9l0,0C75.1,275.1,74.3,274.3,73.2,274.3z"/>
			<path class="st4" d="M73.2,280.1H23.3v3.9h49.9c1.1,0,1.9-0.9,1.9-1.9l0,0C75.1,281,74.3,280.1,73.2,280.1z"/>
			<path class="st4" d="M73.2,293.5H23.3v3.9h49.9c1.1,0,1.9-0.9,1.9-1.9l0,0C75.1,294.4,74.3,293.5,73.2,293.5z"/>
			<path class="st4" d="M73.2,299.3H23.3v3.9h49.9c1.1,0,1.9-0.9,1.9-1.9v0C75.1,300.2,74.3,299.3,73.2,299.3z"/>
			<path class="st4" d="M73.2,305.1H23.3v3.9h49.9c1.1,0,1.9-0.9,1.9-1.9v0C75.1,306,74.3,305.1,73.2,305.1z"/>
			<path class="st4" d="M76.9,245.2H30.6v3.9h46.3c1.1,0,1.9-0.9,1.9-1.9v0C78.9,246.1,78,245.2,76.9,245.2z"/>
			<path class="st4" d="M81.2,262.7H30.4v3.9h50.7c1.1,0,1.9-0.9,1.9-1.9l0,0C83.1,263.5,82.2,262.7,81.2,262.7z"/>
			<path class="st4" d="M84.5,256.8H30.6v3.9h53.9c1.1,0,1.9-0.9,1.9-1.9l0,0C86.4,257.7,85.5,256.8,84.5,256.8z"/>
			<path class="st4" d="M81.2,311.3H30.4v3.9h50.7c1.1,0,1.9-0.9,1.9-1.9l0,0C83.1,312.2,82.2,311.3,81.2,311.3z"/>
			<path class="st4" d="M81.2,322.9H30.4v3.9h50.7c1.1,0,1.9-0.9,1.9-1.9v0C83.1,323.8,82.2,322.9,81.2,322.9z"/>
			<path class="st4" d="M84.5,317.1H30.6v3.9h53.9c1.1,0,1.9-0.9,1.9-1.9l0,0C86.4,318,85.5,317.1,84.5,317.1z"/>
			<circle class="st6" cx="11.2" cy="193.2" r="1.5"/>
			<circle class="st6" cx="20.8" cy="199" r="1.5"/>
			<circle class="st6" cx="20.8" cy="204.8" r="1.5"/>
			<circle class="st9" cx="11.2" cy="229.7" r="1.5"/>
			<circle class="st9" cx="20.8" cy="235.5" r="1.5"/>
			<circle class="st9" cx="20.8" cy="241.3" r="1.5"/>
			<circle class="st9" cx="20.8" cy="270.4" r="1.5"/>
			<circle class="st9" cx="20.8" cy="276.2" r="1.5"/>
			<circle class="st9" cx="20.8" cy="282" r="1.5"/>
			<circle class="st7" cx="11.2" cy="289.5" r="1.5"/>
			<circle class="st7" cx="20.8" cy="295.4" r="1.5"/>
			<circle class="st7" cx="20.8" cy="301.2" r="1.5"/>
			<circle class="st7" cx="20.8" cy="307.1" r="1.5"/>
			<circle class="st8" cx="11.2" cy="332.6" r="1.5"/>
			<circle class="st8" cx="20.8" cy="338.4" r="1.5"/>
			<circle class="st8" cx="20.8" cy="344.2" r="1.5"/>
		</g>
		<g class="st3">
			<path class="st10" d="M467.6,43.8H352.2c-0.8,0-1.4-0.7-1.4-1.4V20.8c0-0.8,0.7-1.4,1.4-1.4h115.4c0.8,0,1.4,0.7,1.4,1.4v21.6
				C469.1,43.1,468.4,43.8,467.6,43.8z"/>
			<path class="st11" d="M467.6,72.4H352.2c-0.8,0-1.4-0.7-1.4-1.4V49.4c0-0.8,0.7-1.4,1.4-1.4h115.4c0.8,0,1.4,0.7,1.4,1.4V71
				C469.1,71.8,468.4,72.4,467.6,72.4z"/>
			<path class="st10" d="M467.6,101.1H352.2c-0.8,0-1.4-0.7-1.4-1.4V78.1c0-0.8,0.7-1.4,1.4-1.4h115.4c0.8,0,1.4,0.7,1.4,1.4v21.6
				C469.1,100.5,468.4,101.1,467.6,101.1z"/>
			<path class="st12" d="M467.6,129.8H352.2c-0.8,0-1.4-0.7-1.4-1.4v-21.6c0-0.8,0.7-1.4,1.4-1.4h115.4c0.8,0,1.4,0.7,1.4,1.4v21.6
				C469.1,129.1,468.4,129.8,467.6,129.8z"/>
			<path class="st13" d="M467.6,158.4H352.2c-0.8,0-1.4-0.7-1.4-1.4v-21.6c0-0.8,0.7-1.4,1.4-1.4h115.4c0.8,0,1.4,0.7,1.4,1.4V157
				C469.1,157.8,468.4,158.4,467.6,158.4z"/>
			<path class="st14" d="M467.6,187.1H352.2c-0.8,0-1.4-0.7-1.4-1.4v-21.6c0-0.8,0.7-1.4,1.4-1.4h115.4c0.8,0,1.4,0.7,1.4,1.4v21.6
				C469.1,186.5,468.4,187.1,467.6,187.1z"/>
			<path class="st14" d="M467.6,215.8H352.2c-0.8,0-1.4-0.7-1.4-1.4v-21.6c0-0.8,0.7-1.4,1.4-1.4h115.4c0.8,0,1.4,0.7,1.4,1.4v21.6
				C469.1,215.1,468.4,215.8,467.6,215.8z"/>
			<path class="st14" d="M467.6,244.4H352.2c-0.8,0-1.4-0.7-1.4-1.4v-21.6c0-0.8,0.7-1.4,1.4-1.4h115.4c0.8,0,1.4,0.7,1.4,1.4V243
				C469.1,243.8,468.4,244.4,467.6,244.4z"/>
			<path class="st11" d="M467.6,273.1H352.2c-0.8,0-1.4-0.7-1.4-1.4v-21.6c0-0.8,0.7-1.4,1.4-1.4h115.4c0.8,0,1.4,0.7,1.4,1.4v21.6
				C469.1,272.5,468.4,273.1,467.6,273.1z"/>
		</g>
		<rect x="145.8" y="302" class="st15" width="170.3" height="5.5"/>
		<rect x="145.8" y="292.8" class="st15" width="178" height="5.5"/>
		<g class="st3">
			<rect x="145.8" y="30.1" class="st16" width="178" height="5.5"/>
			<g>
				<rect x="145.8" y="57.6" class="st16" width="163.6" height="5.5"/>
				<rect x="145.8" y="75.9" class="st16" width="170.3" height="5.5"/>
				<rect x="145.8" y="20.9" class="st16" width="170.3" height="5.5"/>
				<rect x="145.8" y="66.7" class="st16" width="170.3" height="5.5"/>
				<rect x="145.8" y="48.4" class="st16" width="156.1" height="5.5"/>
				<rect x="145.8" y="39.2" class="st16" width="163.6" height="5.5"/>
				<rect x="145.8" y="112.2" class="st16" width="163.6" height="5.5"/>
				<rect x="145.8" y="130.5" class="st16" width="170.3" height="5.5"/>
				<rect x="145.8" y="121.4" class="st16" width="170.3" height="5.5"/>
				<rect x="145.8" y="84.7" class="st16" width="162" height="5.5"/>
				<rect x="145.8" y="103.1" class="st16" width="162" height="5.5"/>
				<rect x="145.8" y="93.9" class="st16" width="163.6" height="5.5"/>
				<rect x="145.8" y="166.9" class="st16" width="163.6" height="5.5"/>
				<rect x="145.8" y="185.2" class="st16" width="170.3" height="5.5"/>
				<rect x="145.8" y="176.1" class="st16" width="174.1" height="5.5"/>
				<rect x="145.8" y="139.4" class="st16" width="162" height="5.5"/>
				<rect x="145.8" y="157.7" class="st16" width="156.1" height="5.5"/>
				<rect x="145.8" y="148.6" class="st16" width="163.6" height="5.5"/>
				<rect x="145.8" y="221.6" class="st16" width="163.6" height="5.5"/>
				<rect x="145.8" y="239.9" class="st16" width="170.3" height="5.5"/>
				<rect x="145.8" y="230.7" class="st16" width="172" height="5.5"/>
				<rect x="145.8" y="194.1" class="st16" width="172" height="5.5"/>
				<rect x="145.8" y="212.4" class="st16" width="165.2" height="5.5"/>
				<rect x="145.8" y="203.2" class="st16" width="163.6" height="5.5"/>
				<rect x="145.8" y="248.7" class="st16" width="178" height="5.5"/>
				<rect x="145.8" y="257.9" class="st16" width="163.6" height="5.5"/>
			</g>
			<g>
				<g class="st17">
					<path class="st18" d="M265.7,54.1h-53.5c-1.5,0-2.8-1.2-2.8-2.8v0c0-1.5,1.2-2.8,2.8-2.8h53.5c1.5,0,2.8,1.2,2.8,2.8v0
						C268.4,52.9,267.2,54.1,265.7,54.1z"/>
				</g>
				<g>
					<path class="st11" d="M265,54.1h-53.5c-1.5,0-2.8-1.2-2.8-2.8v0c0-1.5,1.2-2.8,2.8-2.8H265c1.5,0,2.8,1.2,2.8,2.8v0
						C267.8,52.9,266.5,54.1,265,54.1z"/>
				</g>
			</g>
			<g>
				<g class="st17">
					<path class="st18" d="M310.4,218.1h-164c-1.5,0-2.8-1.2-2.8-2.8l0,0c0-1.5,1.2-2.8,2.8-2.8h164c1.5,0,2.8,1.2,2.8,2.8v0
						C313.2,216.9,311.9,218.1,310.4,218.1z"/>
				</g>
				<g>
					<path class="st11" d="M309.3,218.1h-164c-1.5,0-2.8-1.2-2.8-2.8l0,0c0-1.5,1.2-2.8,2.8-2.8h164c1.5,0,2.8,1.2,2.8,2.8v0
						C312.1,216.9,310.8,218.1,309.3,218.1z"/>
				</g>
			</g>
			<g>
				<g class="st17">
					<path class="st18" d="M312.5,209.1h-166c-1.5,0-2.8-1.2-2.8-2.8l0,0c0-1.5,1.2-2.8,2.8-2.8h166c1.5,0,2.8,1.2,2.8,2.8v0
						C315.2,207.9,314,209.1,312.5,209.1z"/>
				</g>
				<g>
					<path class="st11" d="M311.4,209.1h-166c-1.5,0-2.8-1.2-2.8-2.8l0,0c0-1.5,1.2-2.8,2.8-2.8h166c1.5,0,2.8,1.2,2.8,2.8v0
						C314.2,207.9,312.9,209.1,311.4,209.1z"/>
				</g>
			</g>
			<g>
				<g class="st17">
					<path class="st18" d="M321.4,199.5H146.5c-1.5,0-2.8-1.2-2.8-2.8l0,0c0-1.5,1.2-2.8,2.8-2.8h174.9c1.5,0,2.8,1.2,2.8,2.8l0,0
						C324.2,198.2,322.9,199.5,321.4,199.5z"/>
				</g>
				<g>
					<path class="st11" d="M320.3,199.5H145.4c-1.5,0-2.8-1.2-2.8-2.8l0,0c0-1.5,1.2-2.8,2.8-2.8h174.9c1.5,0,2.8,1.2,2.8,2.8l0,0
						C323.1,198.2,321.8,199.5,320.3,199.5z"/>
				</g>
			</g>
			<g>
				<g class="st17">
					<path class="st18" d="M318.1,81.5h-88.3c-1.5,0-2.8-1.2-2.8-2.8v0c0-1.5,1.2-2.8,2.8-2.8h88.3c1.5,0,2.8,1.2,2.8,2.8v0
						C320.9,80.2,319.6,81.5,318.1,81.5z"/>
				</g>
				<g>
					<path class="st11" d="M317.3,81.5H229c-1.5,0-2.8-1.2-2.8-2.8v0c0-1.5,1.2-2.8,2.8-2.8h88.3c1.5,0,2.8,1.2,2.8,2.8v0
						C320.1,80.2,318.8,81.5,317.3,81.5z"/>
				</g>
			</g>
			<g>
				<g class="st17">
					<path class="st18" d="M318.1,245.4h-88.3c-1.5,0-2.8-1.2-2.8-2.8v0c0-1.5,1.2-2.8,2.8-2.8h88.3c1.5,0,2.8,1.2,2.8,2.8v0
						C320.9,244.2,319.6,245.4,318.1,245.4z"/>
				</g>
				<g>
					<path class="st11" d="M317.3,245.4H229c-1.5,0-2.8-1.2-2.8-2.8v0c0-1.5,1.2-2.8,2.8-2.8h88.3c1.5,0,2.8,1.2,2.8,2.8v0
						C320.1,244.2,318.8,245.4,317.3,245.4z"/>
				</g>
			</g>
			<g>
				<g class="st17">
					<path class="st18" d="M325.7,254.8H145.8c-1.5,0-2.8-1.2-2.8-2.8l0,0c0-1.5,1.2-2.8,2.8-2.8h179.9c1.5,0,2.8,1.2,2.8,2.8l0,0
						C328.4,253.5,327.2,254.8,325.7,254.8z"/>
				</g>
				<g>
					<path class="st11" d="M324.5,254.8H144.7c-1.5,0-2.8-1.2-2.8-2.8l0,0c0-1.5,1.2-2.8,2.8-2.8h179.9c1.5,0,2.8,1.2,2.8,2.8l0,0
						C327.3,253.5,326,254.8,324.5,254.8z"/>
				</g>
			</g>
			<g>
				<g class="st17">
					<path class="st18" d="M282.8,90.5H145.9c-1.5,0-2.8-1.2-2.8-2.8l0,0c0-1.5,1.2-2.8,2.8-2.8h136.9c1.5,0,2.8,1.2,2.8,2.8v0
						C285.6,89.2,284.3,90.5,282.8,90.5z"/>
				</g>
				<g>
					<path class="st11" d="M281.8,90.5H144.9c-1.5,0-2.8-1.2-2.8-2.8l0,0c0-1.5,1.2-2.8,2.8-2.8h136.9c1.5,0,2.8,1.2,2.8,2.8v0
						C284.6,89.2,283.3,90.5,281.8,90.5z"/>
				</g>
			</g>
			<g>
				<g class="st17">
					<path class="st18" d="M311.5,154.1H145.3c-1.5,0-2.8-1.2-2.8-2.8v0c0-1.5,1.2-2.8,2.8-2.8h166.2c1.5,0,2.8,1.2,2.8,2.8v0
						C314.3,152.9,313,154.1,311.5,154.1z"/>
				</g>
				<g>
					<path class="st13" d="M310.4,154.1H144.2c-1.5,0-2.8-1.2-2.8-2.8v0c0-1.5,1.2-2.8,2.8-2.8h166.2c1.5,0,2.8,1.2,2.8,2.8v0
						C313.2,152.9,311.9,154.1,310.4,154.1z"/>
				</g>
			</g>
			<g>
				<g class="st17">
					<path class="st18" d="M262.7,72H145.1c-1.5,0-2.8-1.2-2.8-2.8v0c0-1.5,1.2-2.8,2.8-2.8h117.6c1.5,0,2.8,1.2,2.8,2.8v0
						C265.5,70.7,264.2,72,262.7,72z"/>
				</g>
				<g>
					<path class="st13" d="M261.8,72H144.2c-1.5,0-2.8-1.2-2.8-2.8v0c0-1.5,1.2-2.8,2.8-2.8h117.6c1.5,0,2.8,1.2,2.8,2.8v0
						C264.5,70.7,263.3,72,261.8,72z"/>
				</g>
			</g>
			<g>
				<g class="st17">
					<path class="st18" d="M262.7,245.4H145.1c-1.5,0-2.8-1.2-2.8-2.8v0c0-1.5,1.2-2.8,2.8-2.8h117.6c1.5,0,2.8,1.2,2.8,2.8l0,0
						C265.5,244.2,264.2,245.4,262.7,245.4z"/>
				</g>
				<g>
					<path class="st13" d="M261.8,245.4H144.2c-1.5,0-2.8-1.2-2.8-2.8v0c0-1.5,1.2-2.8,2.8-2.8h117.6c1.5,0,2.8,1.2,2.8,2.8l0,0
						C264.5,244.2,263.3,245.4,261.8,245.4z"/>
				</g>
			</g>
			<g>
				<g class="st17">
					<path class="st18" d="M304,163.3H145.3c-1.5,0-2.8-1.2-2.8-2.8v0c0-1.5,1.2-2.8,2.8-2.8H304c1.5,0,2.8,1.2,2.8,2.8l0,0
						C306.7,162.1,305.5,163.3,304,163.3z"/>
				</g>
				<g>
					<path class="st13" d="M302.9,163.3H144.2c-1.5,0-2.8-1.2-2.8-2.8v0c0-1.5,1.2-2.8,2.8-2.8h158.7c1.5,0,2.8,1.2,2.8,2.8l0,0
						C305.6,162.1,304.4,163.3,302.9,163.3z"/>
				</g>
			</g>
			<g>
				<g class="st17">
					<path class="st18" d="M198.6,172.4h-53.7c-1.5,0-2.8-1.2-2.8-2.8l0,0c0-1.5,1.2-2.8,2.8-2.8h53.7c1.5,0,2.8,1.2,2.8,2.8l0,0
						C201.4,171.1,200.1,172.4,198.6,172.4z"/>
				</g>
				<g>
					<path class="st13" d="M198,172.4h-53.7c-1.5,0-2.8-1.2-2.8-2.8l0,0c0-1.5,1.2-2.8,2.8-2.8H198c1.5,0,2.8,1.2,2.8,2.8l0,0
						C200.7,171.1,199.5,172.4,198,172.4z"/>
				</g>
			</g>
			<rect x="145.8" y="276.2" class="st16" width="163.6" height="5.5"/>
			<rect x="145.8" y="267.1" class="st16" width="156.1" height="5.5"/>
			<g>
				<g class="st17">
					<path class="st18" d="M223.3,66.7h-22.7c-1.5,0-2.8,1.2-2.8,2.8l0,0c0,1.5,1.2,2.8,2.8,2.8h22.7c1.5,0,2.8-1.2,2.8-2.8l0,0
						C226.1,68,224.8,66.7,223.3,66.7z"/>
				</g>
				<g>
					<path class="st14" d="M222.7,66.7h-22.7c-1.5,0-2.8,1.2-2.8,2.8l0,0c0,1.5,1.2,2.8,2.8,2.8h22.7c1.5,0,2.8-1.2,2.8-2.8l0,0
						C225.4,68,224.2,66.7,222.7,66.7z"/>
				</g>
			</g>
			<g>
				<g class="st17">
					<path class="st18" d="M199,75.9h-22.7c-1.5,0-2.8,1.2-2.8,2.8l0,0c0,1.5,1.2,2.8,2.8,2.8H199c1.5,0,2.8-1.2,2.8-2.8l0,0
						C201.8,77.2,200.5,75.9,199,75.9z"/>
				</g>
				<g>
					<path class="st14" d="M198.4,75.9h-22.7c-1.5,0-2.8,1.2-2.8,2.8l0,0c0,1.5,1.2,2.8,2.8,2.8h22.7c1.5,0,2.8-1.2,2.8-2.8l0,0
						C201.1,77.2,199.9,75.9,198.4,75.9z"/>
				</g>
			</g>
			<g>
				<g class="st17">
					<path class="st18" d="M289.8,221.6H146c-1.5,0-2.8,1.2-2.8,2.8l0,0c0,1.5,1.2,2.8,2.8,2.8h143.8c1.5,0,2.8-1.2,2.8-2.8l0,0
						C292.6,222.8,291.3,221.6,289.8,221.6z"/>
				</g>
				<g>
					<path class="st14" d="M288.3,221.6H144.6c-1.5,0-2.8,1.2-2.8,2.8l0,0c0,1.5,1.2,2.8,2.8,2.8h143.8c1.5,0,2.8-1.2,2.8-2.8l0,0
						C291.1,222.8,289.8,221.6,288.3,221.6z"/>
				</g>
			</g>
			<g>
				<g class="st17">
					<path class="st18" d="M235.7,75.9H213c-1.5,0-2.8,1.2-2.8,2.8l0,0c0,1.5,1.2,2.8,2.8,2.8h22.7c1.5,0,2.8-1.2,2.8-2.8l0,0
						C238.4,77.2,237.2,75.9,235.7,75.9z"/>
				</g>
				<g>
					<path class="st14" d="M235.1,75.9h-22.7c-1.5,0-2.8,1.2-2.8,2.8l0,0c0,1.5,1.2,2.8,2.8,2.8h22.7c1.5,0,2.8-1.2,2.8-2.8l0,0
						C237.8,77.2,236.6,75.9,235.1,75.9z"/>
				</g>
			</g>
			<g>
				<g class="st17">
					<path class="st18" d="M185.9,63.2h-29.4c-1.5,0-2.8-1.2-2.8-2.8v0c0-1.5,1.2-2.8,2.8-2.8h29.4c1.5,0,2.8,1.2,2.8,2.8v0
						C188.7,62,187.4,63.2,185.9,63.2z"/>
				</g>
				<g>
					<path class="st12" d="M185.3,63.2h-29.4c-1.5,0-2.8-1.2-2.8-2.8v0c0-1.5,1.2-2.8,2.8-2.8h29.4c1.5,0,2.8,1.2,2.8,2.8v0
						C188,62,186.8,63.2,185.3,63.2z"/>
				</g>
			</g>
			<g>
				<g class="st17">
					<path class="st18" d="M261,136.3h-29.4c-1.5,0-2.8-1.2-2.8-2.8v0c0-1.5,1.2-2.8,2.8-2.8H261c1.5,0,2.8,1.2,2.8,2.8v0
						C263.7,135.1,262.5,136.3,261,136.3z"/>
				</g>
				<g>
					<path class="st12" d="M260.3,136.3h-29.4c-1.5,0-2.8-1.2-2.8-2.8v0c0-1.5,1.2-2.8,2.8-2.8h29.4c1.5,0,2.8,1.2,2.8,2.8v0
						C263.1,135.1,261.9,136.3,260.3,136.3z"/>
				</g>
			</g>
			<g>
				<g class="st17">
					<path class="st18" d="M292.2,126.9h-29.4c-1.5,0-2.8-1.2-2.8-2.8l0,0c0-1.5,1.2-2.8,2.8-2.8h29.4c1.5,0,2.8,1.2,2.8,2.8l0,0
						C295,125.7,293.8,126.9,292.2,126.9z"/>
				</g>
				<g>
					<path class="st12" d="M291.6,126.9h-29.4c-1.5,0-2.8-1.2-2.8-2.8l0,0c0-1.5,1.2-2.8,2.8-2.8h29.4c1.5,0,2.8,1.2,2.8,2.8l0,0
						C294.4,125.7,293.1,126.9,291.6,126.9z"/>
				</g>
			</g>
			<g>
				<g class="st17">
					<path class="st18" d="M317.7,191H232c-1.5,0-2.8-1.2-2.8-2.8v0c0-1.5,1.2-2.8,2.8-2.8h85.8c1.5,0,2.8,1.2,2.8,2.8v0
						C320.5,189.8,319.3,191,317.7,191z"/>
				</g>
				<g>
					<path class="st12" d="M316.7,191h-85.8c-1.5,0-2.8-1.2-2.8-2.8v0c0-1.5,1.2-2.8,2.8-2.8h85.8c1.5,0,2.8,1.2,2.8,2.8v0
						C319.5,189.8,318.2,191,316.7,191z"/>
				</g>
			</g>
			<g>
				<g class="st17">
					<path class="st18" d="M231.5,199.5h-85.8c-1.5,0-2.8-1.2-2.8-2.8l0,0c0-1.5,1.2-2.8,2.8-2.8h85.8c1.5,0,2.8,1.2,2.8,2.8l0,0
						C234.2,198.2,233,199.5,231.5,199.5z"/>
				</g>
				<g>
					<path class="st12" d="M230.5,199.5h-85.8c-1.5,0-2.8-1.2-2.8-2.8l0,0c0-1.5,1.2-2.8,2.8-2.8h85.8c1.5,0,2.8,1.2,2.8,2.8l0,0
						C233.2,198.2,232,199.5,230.5,199.5z"/>
				</g>
			</g>
			<g>
				<g class="st17">
					<path class="st18" d="M245.2,35.6h-99.1c-1.5,0-2.8-1.2-2.8-2.8v0c0-1.5,1.2-2.8,2.8-2.8h99.1c1.5,0,2.8,1.2,2.8,2.8v0
						C247.9,34.4,246.7,35.6,245.2,35.6z"/>
				</g>
				<g>
					<path class="st10" d="M244.4,35.6h-99.1c-1.5,0-2.8-1.2-2.8-2.8v0c0-1.5,1.2-2.8,2.8-2.8h99.1c1.5,0,2.8,1.2,2.8,2.8v0
						C247.2,34.4,245.9,35.6,244.4,35.6z"/>
				</g>
			</g>
			<g>
				<g class="st17">
					<path class="st18" d="M288.8,54.1h-40.9c-1.5,0-2.8-1.2-2.8-2.8v0c0-1.5,1.2-2.8,2.8-2.8h40.9c1.5,0,2.8,1.2,2.8,2.8v0
						C291.6,52.9,290.3,54.1,288.8,54.1z"/>
				</g>
				<g>
					<path class="st10" d="M288.3,54.1h-40.9c-1.5,0-2.8-1.2-2.8-2.8v0c0-1.5,1.2-2.8,2.8-2.8h40.9c1.5,0,2.8,1.2,2.8,2.8v0
						C291.1,52.9,289.8,54.1,288.3,54.1z"/>
				</g>
			</g>
			<g>
				<g class="st17">
					<path class="st18" d="M319.7,26.4H146.2c-1.5,0-2.8-1.2-2.8-2.8v0c0-1.5,1.2-2.8,2.8-2.8h173.5c1.5,0,2.8,1.2,2.8,2.8v0
						C322.5,25.2,321.3,26.4,319.7,26.4z"/>
				</g>
				<g>
					<path class="st10" d="M318.9,26.4H145.4c-1.5,0-2.8-1.2-2.8-2.8v0c0-1.5,1.2-2.8,2.8-2.8h173.5c1.5,0,2.8,1.2,2.8,2.8v0
						C321.6,25.2,320.4,26.4,318.9,26.4z"/>
				</g>
			</g>
			<g>
				<g class="st17">
					<path class="st18" d="M222.5,199.5h-25.8c-1.5,0-2.8-1.2-2.8-2.8l0,0c0-1.5,1.2-2.8,2.8-2.8h25.8c1.5,0,2.8,1.2,2.8,2.8l0,0
						C225.2,198.2,224,199.5,222.5,199.5z"/>
				</g>
				<g>
					<path class="st10" d="M222.1,199.5h-25.8c-1.5,0-2.8-1.2-2.8-2.8l0,0c0-1.5,1.2-2.8,2.8-2.8h25.8c1.5,0,2.8,1.2,2.8,2.8l0,0
						C224.9,198.2,223.6,199.5,222.1,199.5z"/>
				</g>
			</g>
			<g>
				<g class="st17">
					<path class="st18" d="M274.5,209.1h-25.8c-1.5,0-2.8-1.2-2.8-2.8v0c0-1.5,1.2-2.8,2.8-2.8h25.8c1.5,0,2.8,1.2,2.8,2.8v0
						C277.3,207.9,276,209.1,274.5,209.1z"/>
				</g>
				<g>
					<path class="st11" d="M274.1,209.1h-25.8c-1.5,0-2.8-1.2-2.8-2.8v0c0-1.5,1.2-2.8,2.8-2.8h25.8c1.5,0,2.8,1.2,2.8,2.8v0
						C276.9,207.9,275.7,209.1,274.1,209.1z"/>
				</g>
			</g>
			<g>
				<g class="st17">
					<path class="st18" d="M310.8,117.6h-73.5c-1.5,0-2.8-1.2-2.8-2.8v0c0-1.5,1.2-2.8,2.8-2.8h73.5c1.5,0,2.8,1.2,2.8,2.8v0
						C313.5,116.4,312.3,117.6,310.8,117.6z"/>
				</g>
				<g>
					<path class="st10" d="M310.2,117.6h-73.5c-1.5,0-2.8-1.2-2.8-2.8v0c0-1.5,1.2-2.8,2.8-2.8h73.5c1.5,0,2.8,1.2,2.8,2.8v0
						C312.9,116.4,311.7,117.6,310.2,117.6z"/>
				</g>
			</g>
			<g>
				<g class="st17">
					<path class="st18" d="M179,117.6h-34c-1.5,0-2.8-1.2-2.8-2.8v0c0-1.5,1.2-2.8,2.8-2.8h34c1.5,0,2.8,1.2,2.8,2.8v0
						C181.8,116.4,180.5,117.6,179,117.6z"/>
				</g>
				<g>
					<path class="st10" d="M178.6,117.6h-34c-1.5,0-2.8-1.2-2.8-2.8v0c0-1.5,1.2-2.8,2.8-2.8h34c1.5,0,2.8,1.2,2.8,2.8v0
						C181.4,116.4,180.1,117.6,178.6,117.6z"/>
				</g>
			</g>
			<g>
				<g class="st17">
					<path class="st18" d="M309.1,108.6H145.5c-1.5,0-2.8-1.2-2.8-2.8v0c0-1.5,1.2-2.8,2.8-2.8h163.6c1.5,0,2.8,1.2,2.8,2.8v0
						C311.8,107.3,310.6,108.6,309.1,108.6z"/>
				</g>
				<g>
					<path class="st10" d="M308.2,108.6H144.6c-1.5,0-2.8-1.2-2.8-2.8v0c0-1.5,1.2-2.8,2.8-2.8h163.6c1.5,0,2.8,1.2,2.8,2.8v0
						C311,107.3,309.7,108.6,308.2,108.6z"/>
				</g>
			</g>
		</g>
		<g class="st19">
			<rect x="354.5" y="26.7" width="90.6" height="3.6"/>
			<rect x="354.5" y="32.5" width="36.4" height="3.6"/>
			<rect x="420.4" y="37.6" width="32.7" height="1.8"/>
		</g>
		<g class="st19">
			<rect x="354.5" y="54.8" width="90.6" height="3.6"/>
			<rect x="354.5" y="60.6" width="36.4" height="3.6"/>
			<rect x="420.4" y="65.8" width="32.7" height="1.8"/>
		</g>
		<g class="st19">
			<rect x="354.5" y="83.4" width="90.6" height="3.6"/>
			<rect x="354.5" y="89.2" width="36.4" height="3.6"/>
			<rect x="420.4" y="94.4" width="32.7" height="1.8"/>
		</g>
		<g class="st19">
			<rect x="354.5" y="111.5" width="90.6" height="3.6"/>
			<rect x="354.5" y="117.4" width="36.4" height="3.6"/>
			<rect x="420.4" y="122.5" width="32.7" height="1.8"/>
		</g>
		<g class="st19">
			<rect x="354.5" y="140.2" width="90.6" height="3.6"/>
			<rect x="354.5" y="146" width="36.4" height="3.6"/>
			<rect x="420.4" y="151.1" width="32.7" height="1.8"/>
		</g>
		<g class="st19">
			<rect x="354.5" y="168.8" width="90.6" height="3.6"/>
			<rect x="354.5" y="174.6" width="36.4" height="3.6"/>
			<rect x="420.4" y="179.7" width="32.7" height="1.8"/>
		</g>
		<g class="st19">
			<rect x="354.5" y="197.4" width="90.6" height="3.6"/>
			<rect x="354.5" y="203.2" width="36.4" height="3.6"/>
			<rect x="420.4" y="208.4" width="32.7" height="1.8"/>
		</g>
		<g class="st19">
			<rect x="354.5" y="225.5" width="90.6" height="3.6"/>
			<rect x="354.5" y="231.3" width="36.4" height="3.6"/>
			<rect x="420.4" y="236.5" width="32.7" height="1.8"/>
		</g>
		<g class="st19">
			<rect x="354.5" y="251.7" width="90.6" height="3.6"/>
			<rect x="354.5" y="257.5" width="36.4" height="3.6"/>
			<rect x="420.4" y="262.6" width="32.7" height="1.8"/>
		</g>
	</g>
	<g class="st20">
		<path d="M355.6,95.3c-0.1-0.1-0.1-0.1-0.2-0.1c-0.1,0-0.1,0-0.2,0.1c-0.1,0.1-0.1,0.1-0.1,0.2c0,0.1,0,0.1,0,0.1
			c0,0,0.1,0.1,0.1,0.1v2.7c0,0,0,0,0,0s0,0,0,0h0.1c0,0,0,0,0,0s0,0,0,0v-2.7c0,0,0.1-0.1,0.1-0.1c0,0,0-0.1,0-0.1
			C355.7,95.4,355.6,95.4,355.6,95.3z"/>
		<path class="st21" d="M358.9,95.5c0,0-0.1,0-0.1,0c0,0,0,0-0.1,0c-0.3,0.2-0.5,0.2-0.7,0.2c-0.1,0-0.1,0-0.2,0
			c-0.2-0.1-0.3-0.1-0.4-0.2c-0.1,0-0.3-0.1-0.4-0.1c-0.1,0-0.2,0-0.3,0c-0.1,0-0.2,0.1-0.3,0.1c-0.1,0-0.2,0.1-0.2,0.1c0,0,0,0,0,0
			c0,0-0.1,0-0.1,0.1c0,0-0.1,0.1-0.1,0.1v1.6c0,0.1,0,0.1,0.1,0.1c0,0,0,0,0.1,0c0,0,0,0,0.1,0c0,0,0,0,0,0
			c0.1-0.1,0.3-0.2,0.5-0.2c0.2-0.1,0.4-0.1,0.5-0.1c0.1,0,0.2,0,0.2,0c0.1,0,0.1,0,0.2,0.1s0.1,0.1,0.2,0.1l0.1,0
			c0.1,0.1,0.2,0.1,0.3,0.1c0.2,0,0.5-0.1,0.8-0.2c0,0,0,0,0,0c0.1,0,0.1-0.1,0.1-0.1v-1.6C358.9,95.6,358.9,95.5,358.9,95.5z"/>
	</g>
	<g class="st20">
		<path d="M355.6,208.9c-0.1-0.1-0.1-0.1-0.2-0.1c-0.1,0-0.1,0-0.2,0.1s-0.1,0.1-0.1,0.2c0,0.1,0,0.1,0,0.1c0,0,0.1,0.1,0.1,0.1v2.7
			c0,0,0,0,0,0s0,0,0,0h0.1c0,0,0,0,0,0s0,0,0,0v-2.7c0,0,0.1-0.1,0.1-0.1c0,0,0-0.1,0-0.1C355.7,209,355.6,208.9,355.6,208.9z"/>
		<path class="st21" d="M358.9,209.1c0,0-0.1,0-0.1,0c0,0,0,0-0.1,0c-0.3,0.2-0.5,0.2-0.7,0.2c-0.1,0-0.1,0-0.2,0
			c-0.2-0.1-0.3-0.1-0.4-0.2c-0.1,0-0.3-0.1-0.4-0.1c-0.1,0-0.2,0-0.3,0c-0.1,0-0.2,0.1-0.3,0.1c-0.1,0-0.2,0.1-0.2,0.1c0,0,0,0,0,0
			c0,0-0.1,0-0.1,0.1c0,0-0.1,0.1-0.1,0.1v1.6c0,0.1,0,0.1,0.1,0.1c0,0,0,0,0.1,0c0,0,0,0,0.1,0c0,0,0,0,0,0
			c0.1-0.1,0.3-0.2,0.5-0.2c0.2-0.1,0.4-0.1,0.5-0.1c0.1,0,0.2,0,0.2,0c0.1,0,0.1,0,0.2,0.1c0.1,0,0.1,0.1,0.2,0.1l0.1,0
			c0.1,0.1,0.2,0.1,0.3,0.1c0.2,0,0.5-0.1,0.8-0.2c0,0,0,0,0,0c0.1,0,0.1-0.1,0.1-0.1v-1.6C358.9,209.1,358.9,209.1,358.9,209.1z"/>
	</g>
</g>
<g id="Annotations">
	<g>
		<defs>
			<path id="SVGID_3_" d="M452.8,252H4.1c-1.7,0-3.2-1.4-3.2-3.2V3.7c0-1.7,1.4-3.2,3.2-3.2h448.7c1.7,0,3.2,1.4,3.2,3.2v245.2
				C455.9,250.6,454.5,252,452.8,252z"/>
		</defs>
		<clipPath id="SVGID_4_">
			<use xlink:href="#SVGID_3_"  style="overflow:visible;"/>
		</clipPath>
		<g class="st22">
			<g>
				<path class="st23" d="M66.6,113H14.3v3.9h52.3c1.1,0,1.9-0.9,1.9-1.9l0,0C68.5,113.8,67.7,113,66.6,113z"/>
				<path class="st24" d="M76,118.8H23.8v3.9H76c1.1,0,1.9-0.9,1.9-1.9v0C78,119.7,77.1,118.8,76,118.8z"/>
				<path class="st24" d="M61.1,124.7H23.8v3.9h37.3c1.1,0,1.9-0.9,1.9-1.9l0,0C63,125.5,62.2,124.7,61.1,124.7z"/>
			</g>
			<g>
				<path class="st23" d="M74.9,21.4H14.3v3.9h60.6c1.1,0,1.9-0.9,1.9-1.9v0C76.8,22.3,75.9,21.4,74.9,21.4z"/>
				<path class="st24" d="M79.1,27.3H23.8v3.9h55.4c1.1,0,1.9-0.9,1.9-1.9v0C81.1,28.1,80.2,27.3,79.1,27.3z"/>
				<path class="st24" d="M87.1,33.1H23.8V37h63.4c1.1,0,1.9-0.9,1.9-1.9v0C89.1,34,88.2,33.1,87.1,33.1z"/>
			</g>
			<g>
				<path class="st25" d="M71.2,49.9H23.8v3.9h47.4c1.1,0,1.9-0.9,1.9-1.9v0C73.1,50.8,72.2,49.9,71.2,49.9z"/>
				<path class="st26" d="M58.8,44.1H14.3V48h44.5c1.1,0,1.9-0.9,1.9-1.9v0C60.8,44.9,59.9,44.1,58.8,44.1z"/>
				<path class="st25" d="M64.6,55.8H23.8v3.9h40.9c1.1,0,1.9-0.9,1.9-1.9v0C66.6,56.7,65.7,55.8,64.6,55.8z"/>
				<path class="st24" d="M54.5,61.6H23.8v3.9h30.7c1.1,0,1.9-0.9,1.9-1.9v0C56.4,62.5,55.6,61.6,54.5,61.6z"/>
				<path class="st24" d="M74.1,67.5H23.8v3.9h50.4c1.1,0,1.9-0.9,1.9-1.9v0C76.1,68.4,75.2,67.5,74.1,67.5z"/>
				<path class="st24" d="M64.6,73.4H23.8v3.9h40.9c1.1,0,1.9-0.9,1.9-1.9l0,0C66.6,74.2,65.7,73.4,64.6,73.4z"/>
			</g>
			<g>
				<path class="st23" d="M80.2,84.3H14.3v3.9h65.9c1.1,0,1.9-0.9,1.9-1.9v0C82.2,85.2,81.3,84.3,80.2,84.3z"/>
				<path class="st24" d="M68.8,90.3h-45v3.9h45c1.1,0,1.9-0.9,1.9-1.9v0C70.7,91.2,69.8,90.3,68.8,90.3z"/>
				<path class="st24" d="M62.7,96.2H23.8v3.9h38.9c1.1,0,1.9-0.9,1.9-1.9v0C64.6,97,63.7,96.2,62.7,96.2z"/>
				<path class="st24" d="M74.1,102H23.8v3.9h50.4c1.1,0,1.9-0.9,1.9-1.9l0,0C76.1,102.9,75.2,102,74.1,102z"/>
			</g>
			<g>
				<path class="st23" d="M48.9,135.6H14.3v3.9h34.6c1.1,0,1.9-0.9,1.9-1.9l0,0C50.9,136.5,50,135.6,48.9,135.6z"/>
				<path class="st24" d="M68.8,141.6h-45v3.9h45c1.1,0,1.9-0.9,1.9-1.9v0C70.7,142.5,69.8,141.6,68.8,141.6z"/>
				<path class="st24" d="M62.7,147.9H23.8v3.9h38.9c1.1,0,1.9-0.9,1.9-1.9l0,0C64.6,148.8,63.7,147.9,62.7,147.9z"/>
				<path class="st24" d="M55.2,154.2H23.8v3.9h31.4c1.1,0,1.9-0.9,1.9-1.9l0,0C57.1,155.1,56.3,154.2,55.2,154.2z"/>
				<path class="st24" d="M68.8,160.5h-45v3.9h45c1.1,0,1.9-0.9,1.9-1.9l0,0C70.7,161.3,69.8,160.5,68.8,160.5z"/>
				<path class="st24" d="M66.6,166.8H23.8v3.9h42.8c1.1,0,1.9-0.9,1.9-1.9l0,0C68.5,167.6,67.7,166.8,66.6,166.8z"/>
				<path class="st24" d="M79,173H23.8v3.9H79c1.1,0,1.9-0.9,1.9-1.9v0C80.9,173.9,80.1,173,79,173z"/>
				<path class="st24" d="M86.3,179.3H23.8v3.9h62.5c1.1,0,1.9-0.9,1.9-1.9l0,0C88.2,180.2,87.4,179.3,86.3,179.3z"/>
				<path class="st24" d="M62.7,185.6H23.8v3.9h38.9c1.1,0,1.9-0.9,1.9-1.9v0C64.6,186.5,63.7,185.6,62.7,185.6z"/>
			</g>
		</g>
		<g class="st22">
			<g>
				<path class="st4" d="M430.3,119h-65.4v3.9h65.4c1.1,0,1.9-0.9,1.9-1.9v0C432.2,119.8,431.3,119,430.3,119z"/>
				<path class="st4" d="M416.7,162h-51.8v3.9h51.8c1.1,0,1.9-0.9,1.9-1.9l0,0C418.7,162.9,417.8,162,416.7,162z"/>
				<path class="st4" d="M426.1,167.9h-51.8v3.9h51.8c1.1,0,1.9-0.9,1.9-1.9v0C428,168.7,427.2,167.9,426.1,167.9z"/>
				<path class="st4" d="M426.1,173.7h-51.8v3.9h51.8c1.1,0,1.9-0.9,1.9-1.9v0C428,174.5,427.2,173.7,426.1,173.7z"/>
				<path class="st4" d="M433.3,179.5h-51.8v3.9h51.8c1.1,0,1.9-0.9,1.9-1.9l0,0C435.2,180.3,434.3,179.5,433.3,179.5z"/>
				<path class="st4" d="M433.3,185.3h-51.8v3.9h51.8c1.1,0,1.9-0.9,1.9-1.9l0,0C435.2,186.1,434.3,185.3,433.3,185.3z"/>
				<path class="st4" d="M441.5,45.9h-60.1v3.9h60.1c1.1,0,1.9-0.9,1.9-1.9v0C443.4,46.8,442.6,45.9,441.5,45.9z"/>
				<path class="st4" d="M425,22.7h-60.1v3.9H425c1.1,0,1.9-0.9,1.9-1.9v0C426.9,23.5,426,22.7,425,22.7z"/>
				<path class="st4" d="M444.3,51.7h-62.8v3.9h62.8c1.1,0,1.9-0.9,1.9-1.9v0C446.2,52.6,445.4,51.7,444.3,51.7z"/>
				<path class="st4" d="M429.2,28.5h-54.9v3.9h54.9c1.1,0,1.9-0.9,1.9-1.9v0C431.1,29.3,430.2,28.5,429.2,28.5z"/>
				<path class="st4" d="M436.5,40.1h-54.9v3.9h54.9c1.1,0,1.9-0.9,1.9-1.9v0C438.5,41,437.6,40.1,436.5,40.1z"/>
				<path class="st4" d="M437.1,34.3h-62.8v3.9h62.8c1.1,0,1.9-0.9,1.9-1.9v0C439,35.1,438.2,34.3,437.1,34.3z"/>
				<path class="st5" d="M421.3,65h-47v3.9h47c1.1,0,1.9-0.9,1.9-1.9v0C423.2,65.9,422.3,65,421.3,65z"/>
				<path class="st5" d="M409,59.2h-44.1V63H409c1.1,0,1.9-0.9,1.9-1.9v0C411,60,410.1,59.2,409,59.2z"/>
				<path class="st4" d="M432.2,82.4h-50.7v3.9h50.7c1.1,0,1.9-0.9,1.9-1.9l0,0C434.1,83.3,433.2,82.4,432.2,82.4z"/>
				<path class="st5" d="M424.2,70.8h-49.9v3.9h49.9c1.1,0,1.9-0.9,1.9-1.9v0C426.1,71.7,425.3,70.8,424.2,70.8z"/>
				<path class="st4" d="M424.2,99.9h-49.9v3.9h49.9c1.1,0,1.9-0.9,1.9-1.9v0C426.1,100.7,425.3,99.9,424.2,99.9z"/>
				<path class="st4" d="M424.2,105.7h-49.9v3.9h49.9c1.1,0,1.9-0.9,1.9-1.9l0,0C426.1,106.5,425.3,105.7,424.2,105.7z"/>
				<path class="st4" d="M424.2,111.5h-49.9v3.9h49.9c1.1,0,1.9-0.9,1.9-1.9l0,0C426.1,112.3,425.3,111.5,424.2,111.5z"/>
				<path class="st4" d="M424.2,124.9h-49.9v3.9h49.9c1.1,0,1.9-0.9,1.9-1.9v0C426.1,125.8,425.3,124.9,424.2,124.9z"/>
				<path class="st4" d="M424.2,130.7h-49.9v3.9h49.9c1.1,0,1.9-0.9,1.9-1.9l0,0C426.1,131.6,425.3,130.7,424.2,130.7z"/>
				<path class="st4" d="M424.2,136.5h-49.9v3.9h49.9c1.1,0,1.9-0.9,1.9-1.9l0,0C426.1,137.4,425.3,136.5,424.2,136.5z"/>
				<path class="st4" d="M427.9,76.6h-46.3v3.9h46.3c1.1,0,1.9-0.9,1.9-1.9v0C429.9,77.5,429,76.6,427.9,76.6z"/>
				<path class="st4" d="M432.2,94h-50.7v3.9h50.7c1.1,0,1.9-0.9,1.9-1.9l0,0C434.1,94.9,433.2,94,432.2,94z"/>
				<path class="st4" d="M435.5,88.2h-53.9v3.9h53.9c1.1,0,1.9-0.9,1.9-1.9v0C437.4,89.1,436.5,88.2,435.5,88.2z"/>
				<path class="st4" d="M432.2,142.7h-50.7v3.9h50.7c1.1,0,1.9-0.9,1.9-1.9v0C434.1,143.5,433.2,142.7,432.2,142.7z"/>
				<path class="st4" d="M432.2,154.3h-50.7v3.9h50.7c1.1,0,1.9-0.9,1.9-1.9l0,0C434.1,155.2,433.2,154.3,432.2,154.3z"/>
				<path class="st4" d="M435.5,148.5h-53.9v3.9h53.9c1.1,0,1.9-0.9,1.9-1.9l0,0C437.4,149.4,436.5,148.5,435.5,148.5z"/>
			</g>
			<circle class="st6" cx="362.2" cy="24.6" r="1.5"/>
			<circle class="st6" cx="371.8" cy="30.4" r="1.5"/>
			<circle class="st6" cx="371.8" cy="36.2" r="1.5"/>
			<circle class="st27" cx="362.2" cy="61.1" r="1.5"/>
			<circle class="st27" cx="371.8" cy="66.9" r="1.5"/>
			<circle class="st27" cx="371.8" cy="72.7" r="1.5"/>
			<circle class="st27" cx="371.8" cy="101.8" r="1.5"/>
			<circle class="st27" cx="371.8" cy="107.6" r="1.5"/>
			<circle class="st27" cx="371.8" cy="113.4" r="1.5"/>
			<circle class="st7" cx="362.2" cy="120.9" r="1.5"/>
			<circle class="st7" cx="371.8" cy="126.8" r="1.5"/>
			<circle class="st7" cx="371.8" cy="132.6" r="1.5"/>
			<circle class="st7" cx="371.8" cy="138.4" r="1.5"/>
			<circle class="st8" cx="362.2" cy="164" r="1.5"/>
			<circle class="st8" cx="371.8" cy="169.8" r="1.5"/>
			<circle class="st8" cx="371.8" cy="175.6" r="1.5"/>
		</g>
		<g class="st22">
			<path class="st4" d="M430.3,289.6h-65.4v3.9h65.4c1.1,0,1.9-0.9,1.9-1.9l0,0C432.2,290.5,431.3,289.6,430.3,289.6z"/>
			<path class="st4" d="M416.7,332.7h-51.8v3.9h51.8c1.1,0,1.9-0.9,1.9-1.9l0,0C418.7,333.6,417.8,332.7,416.7,332.7z"/>
			<path class="st4" d="M426.1,338.5h-51.8v3.9h51.8c1.1,0,1.9-0.9,1.9-1.9l0,0C428,339.4,427.2,338.5,426.1,338.5z"/>
			<path class="st4" d="M426.1,344.3h-51.8v3.9h51.8c1.1,0,1.9-0.9,1.9-1.9l0,0C428,345.2,427.2,344.3,426.1,344.3z"/>
			<path class="st4" d="M433.3,350.1h-51.8v3.9h51.8c1.1,0,1.9-0.9,1.9-1.9l0,0C435.2,351,434.3,350.1,433.3,350.1z"/>
			<path class="st4" d="M433.3,355.9h-51.8v3.9h51.8c1.1,0,1.9-0.9,1.9-1.9l0,0C435.2,356.8,434.3,355.9,433.3,355.9z"/>
			<path class="st4" d="M441.5,216.6h-60.1v3.9h60.1c1.1,0,1.9-0.9,1.9-1.9v0C443.4,217.4,442.6,216.6,441.5,216.6z"/>
			<path class="st4" d="M425,193.3h-60.1v3.9H425c1.1,0,1.9-0.9,1.9-1.9v0C426.9,194.2,426,193.3,425,193.3z"/>
			<path class="st4" d="M444.3,222.4h-62.8v3.9h62.8c1.1,0,1.9-0.9,1.9-1.9l0,0C446.2,223.2,445.4,222.4,444.3,222.4z"/>
			<path class="st4" d="M429.2,199.1h-54.9v3.9h54.9c1.1,0,1.9-0.9,1.9-1.9v0C431.1,200,430.2,199.1,429.2,199.1z"/>
			<path class="st4" d="M436.5,210.7h-54.9v3.9h54.9c1.1,0,1.9-0.9,1.9-1.9l0,0C438.5,211.6,437.6,210.7,436.5,210.7z"/>
			<path class="st4" d="M437.1,204.9h-62.8v3.9h62.8c1.1,0,1.9-0.9,1.9-1.9l0,0C439,205.8,438.2,204.9,437.1,204.9z"/>
			<path class="st5" d="M421.3,235.7h-47v3.9h47c1.1,0,1.9-0.9,1.9-1.9l0,0C423.2,236.5,422.3,235.7,421.3,235.7z"/>
			<path class="st5" d="M409,229.8h-44.1v3.9H409c1.1,0,1.9-0.9,1.9-1.9v0C411,230.7,410.1,229.8,409,229.8z"/>
			<path class="st4" d="M432.2,253.1h-50.7v3.9h50.7c1.1,0,1.9-0.9,1.9-1.9l0,0C434.1,253.9,433.2,253.1,432.2,253.1z"/>
			<path class="st5" d="M424.2,241.5h-49.9v3.9h49.9c1.1,0,1.9-0.9,1.9-1.9l0,0C426.1,242.3,425.3,241.5,424.2,241.5z"/>
			<path class="st4" d="M424.2,270.5h-49.9v3.9h49.9c1.1,0,1.9-0.9,1.9-1.9l0,0C426.1,271.4,425.3,270.5,424.2,270.5z"/>
			<path class="st4" d="M424.2,276.3h-49.9v3.9h49.9c1.1,0,1.9-0.9,1.9-1.9l0,0C426.1,277.2,425.3,276.3,424.2,276.3z"/>
			<path class="st4" d="M424.2,282.1h-49.9v3.9h49.9c1.1,0,1.9-0.9,1.9-1.9l0,0C426.1,283,425.3,282.1,424.2,282.1z"/>
			<path class="st4" d="M424.2,295.6h-49.9v3.9h49.9c1.1,0,1.9-0.9,1.9-1.9l0,0C426.1,296.4,425.3,295.6,424.2,295.6z"/>
			<path class="st4" d="M424.2,301.4h-49.9v3.9h49.9c1.1,0,1.9-0.9,1.9-1.9l0,0C426.1,302.2,425.3,301.4,424.2,301.4z"/>
			<path class="st4" d="M424.2,307.2h-49.9v3.9h49.9c1.1,0,1.9-0.9,1.9-1.9l0,0C426.1,308,425.3,307.2,424.2,307.2z"/>
			<path class="st4" d="M427.9,247.3h-46.3v3.9h46.3c1.1,0,1.9-0.9,1.9-1.9l0,0C429.9,248.1,429,247.3,427.9,247.3z"/>
			<path class="st4" d="M432.2,264.7h-50.7v3.9h50.7c1.1,0,1.9-0.9,1.9-1.9l0,0C434.1,265.6,433.2,264.7,432.2,264.7z"/>
			<path class="st4" d="M435.5,258.9h-53.9v3.9h53.9c1.1,0,1.9-0.9,1.9-1.9l0,0C437.4,259.8,436.5,258.9,435.5,258.9z"/>
			<path class="st4" d="M432.2,313.3h-50.7v3.9h50.7c1.1,0,1.9-0.9,1.9-1.9l0,0C434.1,314.2,433.2,313.3,432.2,313.3z"/>
			<path class="st4" d="M432.2,325h-50.7v3.9h50.7c1.1,0,1.9-0.9,1.9-1.9l0,0C434.1,325.8,433.2,325,432.2,325z"/>
			<path class="st4" d="M435.5,319.1h-53.9v3.9h53.9c1.1,0,1.9-0.9,1.9-1.9v0C437.4,320,436.5,319.1,435.5,319.1z"/>
			<circle class="st6" cx="362.2" cy="195.2" r="1.5"/>
			<circle class="st6" cx="371.8" cy="201.1" r="1.5"/>
			<circle class="st6" cx="371.8" cy="206.9" r="1.5"/>
			<circle class="st9" cx="362.2" cy="231.8" r="1.5"/>
			<circle class="st9" cx="371.8" cy="237.6" r="1.5"/>
			<circle class="st9" cx="371.8" cy="243.4" r="1.5"/>
			<circle class="st9" cx="371.8" cy="272.4" r="1.5"/>
			<circle class="st9" cx="371.8" cy="278.2" r="1.5"/>
			<circle class="st9" cx="371.8" cy="284.1" r="1.5"/>
			<circle class="st7" cx="362.2" cy="291.5" r="1.5"/>
			<circle class="st7" cx="371.8" cy="297.5" r="1.5"/>
			<circle class="st7" cx="371.8" cy="303.3" r="1.5"/>
			<circle class="st7" cx="371.8" cy="309.1" r="1.5"/>
			<circle class="st8" cx="362.2" cy="334.6" r="1.5"/>
			<circle class="st8" cx="371.8" cy="340.4" r="1.5"/>
			<circle class="st8" cx="371.8" cy="346.2" r="1.5"/>
		</g>
		<line class="st28" x1="112.8" y1="8.7" x2="112.8" y2="252"/>
		<line class="st28" x1="344" y1="8.7" x2="344" y2="252"/>
		<g class="st22">
			<g>
				<rect x="112.7" y="20" class="st6" width="231.2" height="28.5"/>
				<rect x="119.8" y="25.4" class="st17" width="197.8" height="4.3"/>
				<rect x="119.8" y="32.9" class="st17" width="144.2" height="4.3"/>
				<rect x="119.8" y="41.8" class="st29" width="44.1" height="2.2"/>
				<rect x="293.1" y="41.8" class="st29" width="44.1" height="2.2"/>
			</g>
			<g>
				<rect x="112.7" y="54.1" class="st12" width="231.2" height="28.5"/>
				<rect x="119.8" y="59.5" class="st17" width="197.8" height="4.3"/>
				<rect x="119.8" y="67" class="st17" width="144.2" height="4.3"/>
				<rect x="119.8" y="75.9" class="st29" width="44.1" height="2.2"/>
				<rect x="293.1" y="75.9" class="st29" width="44.1" height="2.2"/>
			</g>
			<g>
				<rect x="112.7" y="88.3" class="st12" width="231.2" height="28.5"/>
				<rect x="119.8" y="93.7" class="st17" width="197.8" height="4.3"/>
				<rect x="119.8" y="101.2" class="st17" width="144.2" height="4.3"/>
				<rect x="119.8" y="110.1" class="st29" width="44.1" height="2.2"/>
				<rect x="293.1" y="110.1" class="st29" width="44.1" height="2.2"/>
			</g>
			<g>
				<rect x="112.7" y="122.4" class="st13" width="231.2" height="28.5"/>
				<rect x="119.8" y="127.8" class="st17" width="197.8" height="4.3"/>
				<rect x="119.8" y="135.3" class="st17" width="144.2" height="4.3"/>
				<rect x="119.8" y="144.2" class="st29" width="44.1" height="2.2"/>
				<rect x="293.1" y="144.2" class="st29" width="44.1" height="2.2"/>
			</g>
			<g>
				<rect x="112.7" y="156.5" class="st11" width="231.2" height="28.5"/>
				<rect x="119.8" y="161.9" class="st17" width="197.8" height="4.3"/>
				<rect x="119.8" y="169.4" class="st17" width="144.2" height="4.3"/>
				<rect x="119.8" y="178.3" class="st29" width="44.1" height="2.2"/>
				<rect x="293.1" y="178.3" class="st29" width="44.1" height="2.2"/>
			</g>
			<g>
				<rect x="112.7" y="190.7" class="st14" width="231.2" height="28.5"/>
				<rect x="119.8" y="196.1" class="st17" width="197.8" height="4.3"/>
				<rect x="119.8" y="203.6" class="st17" width="144.2" height="4.3"/>
				<rect x="119.8" y="212.5" class="st29" width="44.1" height="2.2"/>
				<rect x="293.1" y="212.5" class="st29" width="44.1" height="2.2"/>
			</g>
			<g>
				<rect x="112.7" y="224.8" class="st13" width="231.2" height="28.5"/>
				<rect x="119.8" y="230.2" class="st17" width="197.8" height="4.3"/>
				<rect x="119.8" y="237.7" class="st17" width="144.2" height="4.3"/>
				<rect x="119.8" y="246.6" class="st29" width="44.1" height="2.2"/>
				<rect x="293.1" y="246.6" class="st29" width="44.1" height="2.2"/>
			</g>
			<g>
				<rect x="112.7" y="258.9" class="st13" width="231.2" height="28.5"/>
				<rect x="119.8" y="264.3" class="st17" width="197.8" height="4.3"/>
				<rect x="119.8" y="271.8" class="st17" width="144.2" height="4.3"/>
				<rect x="119.8" y="280.7" class="st29" width="44.1" height="2.2"/>
				<rect x="293.1" y="280.7" class="st29" width="44.1" height="2.2"/>
			</g>
			<g>
				<rect x="112.7" y="293.1" class="st13" width="231.2" height="28.5"/>
				<rect x="119.8" y="298.5" class="st17" width="197.8" height="4.3"/>
				<rect x="119.8" y="306" class="st17" width="144.2" height="4.3"/>
				<rect x="119.8" y="314.9" class="st29" width="44.1" height="2.2"/>
				<rect x="293.1" y="314.9" class="st29" width="44.1" height="2.2"/>
			</g>
			<g>
				<rect x="112.7" y="327.2" class="st10" width="231.2" height="28.5"/>
				<rect x="119.8" y="332.6" class="st17" width="197.8" height="4.3"/>
				<rect x="119.8" y="340.1" class="st17" width="144.2" height="4.3"/>
				<rect x="119.8" y="349" class="st29" width="44.1" height="2.2"/>
				<rect x="293.1" y="349" class="st29" width="44.1" height="2.2"/>
			</g>
			<g>
				<rect x="112.7" y="361.3" class="st14" width="231.2" height="28.5"/>
				<rect x="119.8" y="366.7" class="st17" width="197.8" height="4.3"/>
				<rect x="119.8" y="374.2" class="st17" width="144.2" height="4.3"/>
				<rect x="119.8" y="383.1" class="st29" width="44.1" height="2.2"/>
				<rect x="293.1" y="383.1" class="st29" width="44.1" height="2.2"/>
			</g>
			<g>
				<rect x="112.7" y="395.5" class="st11" width="231.2" height="28.5"/>
				<rect x="119.8" y="400.9" class="st17" width="197.8" height="4.3"/>
				<rect x="119.8" y="408.4" class="st17" width="144.2" height="4.3"/>
				<rect x="119.8" y="417.3" class="st29" width="44.1" height="2.2"/>
				<rect x="293.1" y="417.3" class="st29" width="44.1" height="2.2"/>
			</g>
			<g>
				<rect x="112.7" y="429.6" class="st11" width="231.2" height="28.5"/>
				<rect x="119.8" y="435" class="st17" width="197.8" height="4.3"/>
				<rect x="119.8" y="442.5" class="st17" width="144.2" height="4.3"/>
				<rect x="119.8" y="451.4" class="st29" width="44.1" height="2.2"/>
				<rect x="293.1" y="451.4" class="st29" width="44.1" height="2.2"/>
			</g>
			<g>
				<rect x="112.7" y="463.7" class="st12" width="231.2" height="28.5"/>
				<rect x="119.8" y="469.1" class="st17" width="197.8" height="4.3"/>
				<rect x="119.8" y="476.6" class="st17" width="144.2" height="4.3"/>
				<rect x="119.8" y="485.5" class="st29" width="44.1" height="2.2"/>
				<rect x="293.1" y="485.5" class="st29" width="44.1" height="2.2"/>
			</g>
		</g>
	</g>
</g>
<g id="Window">
	<path class="st30" d="M452.8,252H4.1c-1.7,0-3.2-1.4-3.2-3.2V3.7c0-1.7,1.4-3.2,3.2-3.2h448.7c1.7,0,3.2,1.4,3.2,3.2v245.2
		C455.9,250.6,454.5,252,452.8,252z"/>
	<path class="st31" d="M455.9,8.7H0.9V2.9c0-1.3,1.1-2.4,2.4-2.4h449.8c1.6,0,2.8,1.3,2.8,2.8V8.7z"/>
	<circle class="st32" cx="5.8" cy="4.6" r="2.3"/>
	<circle class="st33" cx="12.6" cy="4.6" r="2.3"/>
	<circle class="st34" cx="19.4" cy="4.6" r="2.3"/>
</g>
</svg>
