<?xml version="1.0" encoding="utf-8"?>
<!-- Generator: Adobe Illustrator 19.1.0, SVG Export Plug-In . SVG Version: 6.00 Build 0)  -->
<!DOCTYPE svg PUBLIC "-//W3C//DTD SVG 1.1//EN" "http://www.w3.org/Graphics/SVG/1.1/DTD/svg11.dtd">
<svg version="1.1" xmlns="http://www.w3.org/2000/svg" xmlns:xlink="http://www.w3.org/1999/xlink" x="0px" y="0px"
	 viewBox="0 0 456.8 253.4" style="enable-background:new 0 0 456.8 253.4;" xml:space="preserve">
<style type="text/css">
	.st0{fill:none;stroke:#E5E5E5;stroke-miterlimit:10;}
	.st1{fill:#E5E5E5;}
	.st2{fill:#E5574C;}
	.st3{fill:#E29823;}
	.st4{fill:#71C13D;}
	.st5{clip-path:url(#SVGID_2_);}
	.st6{fill:#CCCCCC;}
	.st7{opacity:0.9;fill:#CCCCCC;}
	.st8{fill:#DFB36F;}
	.st9{fill:#72C7A6;}
	.st10{fill:#FB857C;}
	.st11{opacity:0.9;fill:#AD9FB8;}
	.st12{fill:#DEB26F;}
	.st13{fill:#F3837D;}
	.st14{fill:#AC9EB7;}
	.st15{fill:#84B3DA;}
	.st16{fill:#73C7A6;}
	.st17{clip-path:url(#SVGID_2_);fill:#CCCBCB;}
	.st18{fill:#CCCBCB;}
	.st19{opacity:0.2;}
	.st20{fill:#231F20;}
	.st21{opacity:0.2;clip-path:url(#SVGID_2_);}
	.st22{fill:none;stroke:#CCCCCC;stroke-miterlimit:10;}
	.st23{opacity:0.35;}
	.st24{fill:none;stroke:#000000;stroke-width:0.1323;stroke-miterlimit:10;}
</style>
<g id="Display">
</g>
<g id="Window">
	<path class="st0" d="M452.7,252.4H4c-1.7,0-3.2-1.4-3.2-3.2V4.1c0-1.7,1.4-3.2,3.2-3.2h448.7c1.7,0,3.2,1.4,3.2,3.2v245.2
		C455.9,251,454.5,252.4,452.7,252.4z"/>
	<path class="st1" d="M455.9,9.1H0.9V3.3c0-1.3,1.1-2.4,2.4-2.4H453c1.6,0,2.8,1.3,2.8,2.8V9.1z"/>
	<circle class="st2" cx="5.7" cy="5" r="2.3"/>
	<circle class="st3" cx="12.5" cy="5" r="2.3"/>
	<circle class="st4" cx="19.4" cy="5" r="2.3"/>
</g>
<g id="Layer_1">
	<g>
		<defs>
			<path id="SVGID_1_" d="M452.7,252.4H4c-1.7,0-3.2-1.4-3.2-3.2V4.1c0-1.7,1.4-3.2,3.2-3.2h448.7c1.7,0,3.2,1.4,3.2,3.2v245.2
				C455.9,251,454.5,252.4,452.7,252.4z"/>
		</defs>
		<clipPath id="SVGID_2_">
			<use xlink:href="#SVGID_1_"  style="overflow:visible;"/>
		</clipPath>
		<g class="st5">
			<g>
				<path class="st6" d="M79.2,117.3H13.9v3.9h65.4c1.1,0,1.9-0.9,1.9-1.9v0C81.1,118.2,80.3,117.3,79.2,117.3z"/>
				<path class="st6" d="M65.7,160.4H13.9v3.9h51.8c1.1,0,1.9-0.9,1.9-1.9l0,0C67.6,161.3,66.8,160.4,65.7,160.4z"/>
				<path class="st6" d="M75.1,166.2H23.2v3.9h51.8c1.1,0,1.9-0.9,1.9-1.9v0C77,167.1,76.1,166.2,75.1,166.2z"/>
				<path class="st6" d="M75.1,172H23.2v3.9h51.8c1.1,0,1.9-0.9,1.9-1.9v0C77,172.9,76.1,172,75.1,172z"/>
				<path class="st6" d="M82.2,177.8H30.4v3.9h51.8c1.1,0,1.9-0.9,1.9-1.9v0C84.2,178.7,83.3,177.8,82.2,177.8z"/>
				<path class="st6" d="M82.2,183.7H30.4v3.9h51.8c1.1,0,1.9-0.9,1.9-1.9l0,0C84.2,184.5,83.3,183.7,82.2,183.7z"/>
				<path class="st6" d="M90.5,44.3H30.4v3.9h60.1c1.1,0,1.9-0.9,1.9-1.9v0C92.4,45.1,91.5,44.3,90.5,44.3z"/>
				<path class="st6" d="M73.9,21H13.9v3.9h60.1c1.1,0,1.9-0.9,1.9-1.9v0C75.8,21.9,75,21,73.9,21z"/>
				<path class="st6" d="M93.2,50.1H30.4v3.9h62.8c1.1,0,1.9-0.9,1.9-1.9v0C95.2,50.9,94.3,50.1,93.2,50.1z"/>
				<path class="st6" d="M78.1,26.8H23.2v3.9h54.9c1.1,0,1.9-0.9,1.9-1.9v0C80,27.7,79.2,26.8,78.1,26.8z"/>
				<path class="st6" d="M85.5,38.5H30.6v3.9h54.9c1.1,0,1.9-0.9,1.9-1.9v0C87.4,39.3,86.6,38.5,85.5,38.5z"/>
				<path class="st6" d="M86.1,32.7H23.2v3.9h62.8c1.1,0,1.9-0.9,1.9-1.9v0C88,33.5,87.1,32.7,86.1,32.7z"/>
				<path class="st7" d="M70.2,63.4h-47v3.9h47c1.1,0,1.9-0.9,1.9-1.9v0C72.2,64.2,71.3,63.4,70.2,63.4z"/>
				<path class="st7" d="M58,57.6H13.9v3.9H58c1.1,0,1.9-0.9,1.9-1.9v0C59.9,58.4,59,57.6,58,57.6z"/>
				<path class="st6" d="M81.1,80.8H30.4v3.9h50.7c1.1,0,1.9-0.9,1.9-1.9l0,0C83,81.7,82.2,80.8,81.1,80.8z"/>
				<path class="st7" d="M73.2,69.2H23.2V73h49.9c1.1,0,1.9-0.9,1.9-1.9l0,0C75.1,70,74.2,69.2,73.2,69.2z"/>
				<path class="st6" d="M73.2,98.2H23.2v3.9h49.9c1.1,0,1.9-0.9,1.9-1.9v0C75.1,99.1,74.2,98.2,73.2,98.2z"/>
				<path class="st6" d="M73.2,104H23.2v3.9h49.9c1.1,0,1.9-0.9,1.9-1.9v0C75.1,104.9,74.2,104,73.2,104z"/>
				<path class="st6" d="M73.2,109.9H23.2v3.9h49.9c1.1,0,1.9-0.9,1.9-1.9l0,0C75.1,110.7,74.2,109.9,73.2,109.9z"/>
				<path class="st6" d="M73.2,123.3H23.2v3.9h49.9c1.1,0,1.9-0.9,1.9-1.9l0,0C75.1,124.1,74.2,123.3,73.2,123.3z"/>
				<path class="st6" d="M73.2,129.1H23.2v3.9h49.9c1.1,0,1.9-0.9,1.9-1.9l0,0C75.1,129.9,74.2,129.1,73.2,129.1z"/>
				<path class="st6" d="M73.2,134.9H23.2v3.9h49.9c1.1,0,1.9-0.9,1.9-1.9l0,0C75.1,135.8,74.2,134.9,73.2,134.9z"/>
				<path class="st6" d="M76.9,75H30.6v3.9h46.3c1.1,0,1.9-0.9,1.9-1.9v0C78.8,75.9,78,75,76.9,75z"/>
				<path class="st6" d="M81.1,92.4H30.4v3.9h50.7c1.1,0,1.9-0.9,1.9-1.9l0,0C83,93.3,82.2,92.4,81.1,92.4z"/>
				<path class="st6" d="M84.4,86.6H30.6v3.9h53.9c1.1,0,1.9-0.9,1.9-1.9v0C86.4,87.5,85.5,86.6,84.4,86.6z"/>
				<path class="st6" d="M81.1,141.1H30.4v3.9h50.7c1.1,0,1.9-0.9,1.9-1.9l0,0C83,141.9,82.2,141.1,81.1,141.1z"/>
				<path class="st6" d="M81.1,152.7H30.4v3.9h50.7c1.1,0,1.9-0.9,1.9-1.9l0,0C83,153.5,82.2,152.7,81.1,152.7z"/>
				<path class="st6" d="M84.4,146.9H30.6v3.9h53.9c1.1,0,1.9-0.9,1.9-1.9l0,0C86.4,147.7,85.5,146.9,84.4,146.9z"/>
			</g>
			<circle class="st8" cx="11.1" cy="23" r="1.5"/>
			<circle class="st8" cx="20.7" cy="28.8" r="1.5"/>
			<circle class="st8" cx="20.7" cy="34.6" r="1.5"/>
			<circle class="st7" cx="11.1" cy="59.5" r="1.5"/>
			<circle class="st7" cx="20.7" cy="65.3" r="1.5"/>
			<circle class="st7" cx="20.7" cy="71.1" r="1.5"/>
			<circle class="st7" cx="20.7" cy="100.2" r="1.5"/>
			<circle class="st7" cx="20.7" cy="106" r="1.5"/>
			<circle class="st7" cx="20.7" cy="111.8" r="1.5"/>
			<circle class="st9" cx="11.1" cy="119.3" r="1.5"/>
			<circle class="st9" cx="20.7" cy="125.2" r="1.5"/>
			<circle class="st9" cx="20.7" cy="131" r="1.5"/>
			<circle class="st9" cx="20.7" cy="136.8" r="1.5"/>
			<circle class="st10" cx="11.1" cy="162.3" r="1.5"/>
			<circle class="st10" cx="20.7" cy="168.2" r="1.5"/>
			<circle class="st10" cx="20.7" cy="174" r="1.5"/>
		</g>
		<g class="st5">
			<path class="st6" d="M79.2,288H13.9v3.9h65.4c1.1,0,1.9-0.9,1.9-1.9l0,0C81.1,288.8,80.3,288,79.2,288z"/>
			<path class="st6" d="M65.7,331.1H13.9v3.9h51.8c1.1,0,1.9-0.9,1.9-1.9l0,0C67.6,331.9,66.8,331.1,65.7,331.1z"/>
			<path class="st6" d="M75.1,336.9H23.2v3.9h51.8c1.1,0,1.9-0.9,1.9-1.9l0,0C77,337.7,76.1,336.9,75.1,336.9z"/>
			<path class="st6" d="M75.1,342.7H23.2v3.9h51.8c1.1,0,1.9-0.9,1.9-1.9l0,0C77,343.6,76.1,342.7,75.1,342.7z"/>
			<path class="st6" d="M82.2,348.5H30.4v3.9h51.8c1.1,0,1.9-0.9,1.9-1.9l0,0C84.2,349.4,83.3,348.5,82.2,348.5z"/>
			<path class="st6" d="M82.2,354.3H30.4v3.9h51.8c1.1,0,1.9-0.9,1.9-1.9l0,0C84.2,355.2,83.3,354.3,82.2,354.3z"/>
			<path class="st6" d="M90.5,214.9H30.4v3.9h60.1c1.1,0,1.9-0.9,1.9-1.9v0C92.4,215.8,91.5,214.9,90.5,214.9z"/>
			<path class="st6" d="M73.9,191.7H13.9v3.9h60.1c1.1,0,1.9-0.9,1.9-1.9v0C75.8,192.6,75,191.7,73.9,191.7z"/>
			<path class="st6" d="M93.2,220.7H30.4v3.9h62.8c1.1,0,1.9-0.9,1.9-1.9l0,0C95.2,221.6,94.3,220.7,93.2,220.7z"/>
			<path class="st6" d="M78.1,197.5H23.2v3.9h54.9c1.1,0,1.9-0.9,1.9-1.9v0C80,198.4,79.2,197.5,78.1,197.5z"/>
			<path class="st6" d="M85.5,209.1H30.6v3.9h54.9c1.1,0,1.9-0.9,1.9-1.9l0,0C87.4,210,86.6,209.1,85.5,209.1z"/>
			<path class="st6" d="M86.1,203.3H23.2v3.9h62.8c1.1,0,1.9-0.9,1.9-1.9l0,0C88,204.2,87.1,203.3,86.1,203.3z"/>
			<path class="st7" d="M70.2,234h-47v3.9h47c1.1,0,1.9-0.9,1.9-1.9l0,0C72.2,234.9,71.3,234,70.2,234z"/>
			<path class="st7" d="M58,228.2H13.9v3.9H58c1.1,0,1.9-0.9,1.9-1.9v0C59.9,229.1,59,228.2,58,228.2z"/>
			<path class="st6" d="M81.1,251.5H30.4v3.9h50.7c1.1,0,1.9-0.9,1.9-1.9l0,0C83,252.3,82.2,251.5,81.1,251.5z"/>
			<path class="st7" d="M73.2,239.8H23.2v3.9h49.9c1.1,0,1.9-0.9,1.9-1.9l0,0C75.1,240.7,74.2,239.8,73.2,239.8z"/>
			<path class="st6" d="M73.2,268.9H23.2v3.9h49.9c1.1,0,1.9-0.9,1.9-1.9l0,0C75.1,269.7,74.2,268.9,73.2,268.9z"/>
			<path class="st6" d="M73.2,274.7H23.2v3.9h49.9c1.1,0,1.9-0.9,1.9-1.9l0,0C75.1,275.6,74.2,274.7,73.2,274.7z"/>
			<path class="st6" d="M73.2,280.5H23.2v3.9h49.9c1.1,0,1.9-0.9,1.9-1.9l0,0C75.1,281.4,74.2,280.5,73.2,280.5z"/>
			<path class="st6" d="M73.2,293.9H23.2v3.9h49.9c1.1,0,1.9-0.9,1.9-1.9l0,0C75.1,294.8,74.2,293.9,73.2,293.9z"/>
			<path class="st6" d="M73.2,299.7H23.2v3.9h49.9c1.1,0,1.9-0.9,1.9-1.9l0,0C75.1,300.6,74.2,299.7,73.2,299.7z"/>
			<path class="st6" d="M73.2,305.5H23.2v3.9h49.9c1.1,0,1.9-0.9,1.9-1.9l0,0C75.1,306.4,74.2,305.5,73.2,305.5z"/>
			<path class="st6" d="M76.9,245.6H30.6v3.9h46.3c1.1,0,1.9-0.9,1.9-1.9l0,0C78.8,246.5,78,245.6,76.9,245.6z"/>
			<path class="st6" d="M81.1,263.1H30.4v3.9h50.7c1.1,0,1.9-0.9,1.9-1.9l0,0C83,263.9,82.2,263.1,81.1,263.1z"/>
			<path class="st6" d="M84.4,257.3H30.6v3.9h53.9c1.1,0,1.9-0.9,1.9-1.9l0,0C86.4,258.1,85.5,257.3,84.4,257.3z"/>
			<path class="st6" d="M81.1,311.7H30.4v3.9h50.7c1.1,0,1.9-0.9,1.9-1.9l0,0C83,312.6,82.2,311.7,81.1,311.7z"/>
			<path class="st6" d="M81.1,323.3H30.4v3.9h50.7c1.1,0,1.9-0.9,1.9-1.9l0,0C83,324.2,82.2,323.3,81.1,323.3z"/>
			<path class="st6" d="M84.4,317.5H30.6v3.9h53.9c1.1,0,1.9-0.9,1.9-1.9l0,0C86.4,318.4,85.5,317.5,84.4,317.5z"/>
			<circle class="st8" cx="11.1" cy="193.6" r="1.5"/>
			<circle class="st8" cx="20.7" cy="199.4" r="1.5"/>
			<circle class="st8" cx="20.7" cy="205.2" r="1.5"/>
			<circle class="st11" cx="11.1" cy="230.1" r="1.5"/>
			<circle class="st11" cx="20.7" cy="235.9" r="1.5"/>
			<circle class="st11" cx="20.7" cy="241.8" r="1.5"/>
			<circle class="st11" cx="20.7" cy="270.8" r="1.5"/>
			<circle class="st11" cx="20.7" cy="276.6" r="1.5"/>
			<circle class="st11" cx="20.7" cy="282.4" r="1.5"/>
			<circle class="st9" cx="11.1" cy="289.9" r="1.5"/>
			<circle class="st9" cx="20.7" cy="295.9" r="1.5"/>
			<circle class="st9" cx="20.7" cy="301.7" r="1.5"/>
			<circle class="st9" cx="20.7" cy="307.5" r="1.5"/>
			<circle class="st10" cx="11.1" cy="333" r="1.5"/>
			<circle class="st10" cx="20.7" cy="338.8" r="1.5"/>
			<circle class="st10" cx="20.7" cy="344.6" r="1.5"/>
		</g>
		<g class="st5">
			<path class="st12" d="M467.6,44.2H352.2c-0.8,0-1.4-0.7-1.4-1.4V21.2c0-0.8,0.7-1.4,1.4-1.4h115.4c0.8,0,1.4,0.7,1.4,1.4v21.6
				C469,43.5,468.4,44.2,467.6,44.2z"/>
			<path class="st13" d="M467.6,72.9H352.2c-0.8,0-1.4-0.7-1.4-1.4V49.9c0-0.8,0.7-1.4,1.4-1.4h115.4c0.8,0,1.4,0.7,1.4,1.4v21.6
				C469,72.2,468.4,72.9,467.6,72.9z"/>
			<path class="st12" d="M467.6,101.5H352.2c-0.8,0-1.4-0.7-1.4-1.4V78.5c0-0.8,0.7-1.4,1.4-1.4h115.4c0.8,0,1.4,0.7,1.4,1.4v21.6
				C469,100.9,468.4,101.5,467.6,101.5z"/>
			<path class="st14" d="M467.6,130.2H352.2c-0.8,0-1.4-0.7-1.4-1.4v-21.6c0-0.8,0.7-1.4,1.4-1.4h115.4c0.8,0,1.4,0.7,1.4,1.4v21.6
				C469,129.5,468.4,130.2,467.6,130.2z"/>
			<path class="st15" d="M467.6,158.9H352.2c-0.8,0-1.4-0.7-1.4-1.4v-21.6c0-0.8,0.7-1.4,1.4-1.4h115.4c0.8,0,1.4,0.7,1.4,1.4v21.6
				C469,158.2,468.4,158.9,467.6,158.9z"/>
			<path class="st16" d="M467.6,187.5H352.2c-0.8,0-1.4-0.7-1.4-1.4v-21.6c0-0.8,0.7-1.4,1.4-1.4h115.4c0.8,0,1.4,0.7,1.4,1.4v21.6
				C469,186.9,468.4,187.5,467.6,187.5z"/>
			<path class="st16" d="M467.6,216.2H352.2c-0.8,0-1.4-0.7-1.4-1.4v-21.6c0-0.8,0.7-1.4,1.4-1.4h115.4c0.8,0,1.4,0.7,1.4,1.4v21.6
				C469,215.5,468.4,216.2,467.6,216.2z"/>
			<path class="st16" d="M467.6,244.9H352.2c-0.8,0-1.4-0.7-1.4-1.4v-21.6c0-0.8,0.7-1.4,1.4-1.4h115.4c0.8,0,1.4,0.7,1.4,1.4v21.6
				C469,244.2,468.4,244.9,467.6,244.9z"/>
			<path class="st13" d="M467.6,273.5H352.2c-0.8,0-1.4-0.7-1.4-1.4v-21.6c0-0.8,0.7-1.4,1.4-1.4h115.4c0.8,0,1.4,0.7,1.4,1.4v21.6
				C469,272.9,468.4,273.5,467.6,273.5z"/>
		</g>
		<rect x="145.7" y="302.4" class="st17" width="170.3" height="5.5"/>
		<rect x="145.7" y="293.3" class="st17" width="178" height="5.5"/>
		<g class="st5">
			<rect x="145.7" y="30.5" class="st18" width="178" height="5.5"/>
			<g>
				<rect x="145.7" y="58" class="st18" width="163.6" height="5.5"/>
				<rect x="145.7" y="76.3" class="st18" width="170.3" height="5.5"/>
				<rect x="145.7" y="21.3" class="st18" width="170.3" height="5.5"/>
				<rect x="145.7" y="67.1" class="st18" width="170.3" height="5.5"/>
				<rect x="145.7" y="48.8" class="st18" width="156.1" height="5.5"/>
				<rect x="145.7" y="39.7" class="st18" width="163.6" height="5.5"/>
				<rect x="145.7" y="112.6" class="st18" width="163.6" height="5.5"/>
				<rect x="145.7" y="131" class="st18" width="170.3" height="5.5"/>
				<rect x="145.7" y="121.8" class="st18" width="170.3" height="5.5"/>
				<rect x="145.7" y="85.2" class="st18" width="162" height="5.5"/>
				<rect x="145.7" y="103.5" class="st18" width="162" height="5.5"/>
				<rect x="145.7" y="94.3" class="st18" width="163.6" height="5.5"/>
				<rect x="145.7" y="167.3" class="st18" width="163.6" height="5.5"/>
				<rect x="145.7" y="185.6" class="st18" width="170.3" height="5.5"/>
				<rect x="145.7" y="176.5" class="st18" width="174.1" height="5.5"/>
				<rect x="145.7" y="139.8" class="st18" width="162" height="5.5"/>
				<rect x="145.7" y="158.1" class="st18" width="156.1" height="5.5"/>
				<rect x="145.7" y="149" class="st18" width="163.6" height="5.5"/>
				<rect x="145.7" y="222" class="st18" width="163.6" height="5.5"/>
				<rect x="145.7" y="240.3" class="st18" width="170.3" height="5.5"/>
				<rect x="145.7" y="231.1" class="st18" width="172" height="5.5"/>
				<rect x="145.7" y="194.5" class="st18" width="172" height="5.5"/>
				<rect x="145.7" y="212.8" class="st18" width="165.2" height="5.5"/>
				<rect x="145.7" y="203.7" class="st18" width="163.6" height="5.5"/>
				<rect x="145.7" y="249.2" class="st18" width="178" height="5.5"/>
				<rect x="145.7" y="258.3" class="st18" width="163.6" height="5.5"/>
			</g>
			<g>
				<g class="st19">
					<path class="st20" d="M265.6,54.5h-53.5c-1.5,0-2.8-1.2-2.8-2.8v0c0-1.5,1.2-2.8,2.8-2.8h53.5c1.5,0,2.8,1.2,2.8,2.8v0
						C268.4,53.3,267.1,54.5,265.6,54.5z"/>
				</g>
				<g>
					<path class="st13" d="M265,54.5h-53.5c-1.5,0-2.8-1.2-2.8-2.8v0c0-1.5,1.2-2.8,2.8-2.8H265c1.5,0,2.8,1.2,2.8,2.8v0
						C267.7,53.3,266.5,54.5,265,54.5z"/>
				</g>
			</g>
			<g>
				<g class="st19">
					<path class="st20" d="M310.4,218.5h-164c-1.5,0-2.8-1.2-2.8-2.8v0c0-1.5,1.2-2.8,2.8-2.8h164c1.5,0,2.8,1.2,2.8,2.8v0
						C313.1,217.3,311.9,218.5,310.4,218.5z"/>
				</g>
				<g>
					<path class="st13" d="M309.3,218.5h-164c-1.5,0-2.8-1.2-2.8-2.8v0c0-1.5,1.2-2.8,2.8-2.8h164c1.5,0,2.8,1.2,2.8,2.8v0
						C312,217.3,310.8,218.5,309.3,218.5z"/>
				</g>
			</g>
			<g>
				<g class="st19">
					<path class="st20" d="M312.5,209.5h-166c-1.5,0-2.8-1.2-2.8-2.8v0c0-1.5,1.2-2.8,2.8-2.8h166c1.5,0,2.8,1.2,2.8,2.8v0
						C315.2,208.3,314,209.5,312.5,209.5z"/>
				</g>
				<g>
					<path class="st13" d="M311.4,209.5h-166c-1.5,0-2.8-1.2-2.8-2.8v0c0-1.5,1.2-2.8,2.8-2.8h166c1.5,0,2.8,1.2,2.8,2.8v0
						C314.1,208.3,312.9,209.5,311.4,209.5z"/>
				</g>
			</g>
			<g>
				<g class="st19">
					<path class="st20" d="M321.4,199.9H146.4c-1.5,0-2.8-1.2-2.8-2.8l0,0c0-1.5,1.2-2.8,2.8-2.8h174.9c1.5,0,2.8,1.2,2.8,2.8v0
						C324.1,198.6,322.9,199.9,321.4,199.9z"/>
				</g>
				<g>
					<path class="st13" d="M320.3,199.9H145.3c-1.5,0-2.8-1.2-2.8-2.8l0,0c0-1.5,1.2-2.8,2.8-2.8h174.9c1.5,0,2.8,1.2,2.8,2.8v0
						C323,198.6,321.8,199.9,320.3,199.9z"/>
				</g>
			</g>
			<g>
				<g class="st19">
					<path class="st20" d="M318.1,81.9h-88.3c-1.5,0-2.8-1.2-2.8-2.8l0,0c0-1.5,1.2-2.8,2.8-2.8h88.3c1.5,0,2.8,1.2,2.8,2.8l0,0
						C320.8,80.7,319.6,81.9,318.1,81.9z"/>
				</g>
				<g>
					<path class="st13" d="M317.3,81.9H229c-1.5,0-2.8-1.2-2.8-2.8l0,0c0-1.5,1.2-2.8,2.8-2.8h88.3c1.5,0,2.8,1.2,2.8,2.8l0,0
						C320,80.7,318.8,81.9,317.3,81.9z"/>
				</g>
			</g>
			<g>
				<g class="st19">
					<path class="st20" d="M318.1,245.8h-88.3c-1.5,0-2.8-1.2-2.8-2.8l0,0c0-1.5,1.2-2.8,2.8-2.8h88.3c1.5,0,2.8,1.2,2.8,2.8l0,0
						C320.8,244.6,319.6,245.8,318.1,245.8z"/>
				</g>
				<g>
					<path class="st13" d="M317.3,245.8H229c-1.5,0-2.8-1.2-2.8-2.8l0,0c0-1.5,1.2-2.8,2.8-2.8h88.3c1.5,0,2.8,1.2,2.8,2.8l0,0
						C320,244.6,318.8,245.8,317.3,245.8z"/>
				</g>
			</g>
			<g>
				<g class="st19">
					<path class="st20" d="M325.6,255.2H145.8c-1.5,0-2.8-1.2-2.8-2.8l0,0c0-1.5,1.2-2.8,2.8-2.8h179.9c1.5,0,2.8,1.2,2.8,2.8l0,0
						C328.4,253.9,327.1,255.2,325.6,255.2z"/>
				</g>
				<g>
					<path class="st13" d="M324.5,255.2H144.6c-1.5,0-2.8-1.2-2.8-2.8l0,0c0-1.5,1.2-2.8,2.8-2.8h179.9c1.5,0,2.8,1.2,2.8,2.8l0,0
						C327.2,253.9,326,255.2,324.5,255.2z"/>
				</g>
			</g>
			<g>
				<g class="st19">
					<path class="st20" d="M282.8,90.9H145.9c-1.5,0-2.8-1.2-2.8-2.8v0c0-1.5,1.2-2.8,2.8-2.8h136.9c1.5,0,2.8,1.2,2.8,2.8l0,0
						C285.5,89.7,284.3,90.9,282.8,90.9z"/>
				</g>
				<g>
					<path class="st13" d="M281.8,90.9H144.9c-1.5,0-2.8-1.2-2.8-2.8v0c0-1.5,1.2-2.8,2.8-2.8h136.9c1.5,0,2.8,1.2,2.8,2.8l0,0
						C284.5,89.7,283.3,90.9,281.8,90.9z"/>
				</g>
			</g>
			<g>
				<g class="st19">
					<path class="st20" d="M311.5,154.5H145.3c-1.5,0-2.8-1.2-2.8-2.8v0c0-1.5,1.2-2.8,2.8-2.8h166.2c1.5,0,2.8,1.2,2.8,2.8l0,0
						C314.2,153.3,313,154.5,311.5,154.5z"/>
				</g>
				<g>
					<path class="st15" d="M310.4,154.5H144.2c-1.5,0-2.8-1.2-2.8-2.8v0c0-1.5,1.2-2.8,2.8-2.8h166.2c1.5,0,2.8,1.2,2.8,2.8l0,0
						C313.1,153.3,311.9,154.5,310.4,154.5z"/>
				</g>
			</g>
			<g>
				<g class="st19">
					<path class="st20" d="M262.7,72.4H145.1c-1.5,0-2.8-1.2-2.8-2.8v0c0-1.5,1.2-2.8,2.8-2.8h117.6c1.5,0,2.8,1.2,2.8,2.8v0
						C265.4,71.1,264.2,72.4,262.7,72.4z"/>
				</g>
				<g>
					<path class="st15" d="M261.7,72.4H144.2c-1.5,0-2.8-1.2-2.8-2.8v0c0-1.5,1.2-2.8,2.8-2.8h117.6c1.5,0,2.8,1.2,2.8,2.8v0
						C264.5,71.1,263.3,72.4,261.7,72.4z"/>
				</g>
			</g>
			<g>
				<g class="st19">
					<path class="st20" d="M262.7,245.8H145.1c-1.5,0-2.8-1.2-2.8-2.8l0,0c0-1.5,1.2-2.8,2.8-2.8h117.6c1.5,0,2.8,1.2,2.8,2.8l0,0
						C265.4,244.6,264.2,245.8,262.7,245.8z"/>
				</g>
				<g>
					<path class="st15" d="M261.7,245.8H144.2c-1.5,0-2.8-1.2-2.8-2.8l0,0c0-1.5,1.2-2.8,2.8-2.8h117.6c1.5,0,2.8,1.2,2.8,2.8l0,0
						C264.5,244.6,263.3,245.8,261.7,245.8z"/>
				</g>
			</g>
			<g>
				<g class="st19">
					<path class="st20" d="M303.9,163.7H145.2c-1.5,0-2.8-1.2-2.8-2.8l0,0c0-1.5,1.2-2.8,2.8-2.8h158.7c1.5,0,2.8,1.2,2.8,2.8l0,0
						C306.7,162.5,305.4,163.7,303.9,163.7z"/>
				</g>
				<g>
					<path class="st15" d="M302.8,163.7H144.2c-1.5,0-2.8-1.2-2.8-2.8l0,0c0-1.5,1.2-2.8,2.8-2.8h158.7c1.5,0,2.8,1.2,2.8,2.8l0,0
						C305.6,162.5,304.4,163.7,302.8,163.7z"/>
				</g>
			</g>
			<g>
				<g class="st19">
					<path class="st20" d="M198.6,172.8h-53.7c-1.5,0-2.8-1.2-2.8-2.8v0c0-1.5,1.2-2.8,2.8-2.8h53.7c1.5,0,2.8,1.2,2.8,2.8v0
						C201.3,171.6,200.1,172.8,198.6,172.8z"/>
				</g>
				<g>
					<path class="st15" d="M197.9,172.8h-53.7c-1.5,0-2.8-1.2-2.8-2.8v0c0-1.5,1.2-2.8,2.8-2.8h53.7c1.5,0,2.8,1.2,2.8,2.8v0
						C200.7,171.6,199.4,172.8,197.9,172.8z"/>
				</g>
			</g>
			<rect x="145.7" y="276.6" class="st18" width="163.6" height="5.5"/>
			<rect x="145.7" y="267.5" class="st18" width="156.1" height="5.5"/>
			<g>
				<g class="st19">
					<path class="st20" d="M223.3,67.2h-22.7c-1.5,0-2.8,1.2-2.8,2.8v0c0,1.5,1.2,2.8,2.8,2.8h22.7c1.5,0,2.8-1.2,2.8-2.8v0
						C226,68.4,224.8,67.2,223.3,67.2z"/>
				</g>
				<g>
					<path class="st16" d="M222.6,67.2h-22.7c-1.5,0-2.8,1.2-2.8,2.8v0c0,1.5,1.2,2.8,2.8,2.8h22.7c1.5,0,2.8-1.2,2.8-2.8v0
						C225.4,68.4,224.1,67.2,222.6,67.2z"/>
				</g>
			</g>
			<g>
				<g class="st19">
					<path class="st20" d="M199,76.4h-22.7c-1.5,0-2.8,1.2-2.8,2.8v0c0,1.5,1.2,2.8,2.8,2.8H199c1.5,0,2.8-1.2,2.8-2.8v0
						C201.7,77.6,200.5,76.4,199,76.4z"/>
				</g>
				<g>
					<path class="st16" d="M198.3,76.4h-22.7c-1.5,0-2.8,1.2-2.8,2.8v0c0,1.5,1.2,2.8,2.8,2.8h22.7c1.5,0,2.8-1.2,2.8-2.8v0
						C201.1,77.6,199.9,76.4,198.3,76.4z"/>
				</g>
			</g>
			<g>
				<g class="st19">
					<path class="st20" d="M289.8,222H146c-1.5,0-2.8,1.2-2.8,2.8l0,0c0,1.5,1.2,2.8,2.8,2.8h143.8c1.5,0,2.8-1.2,2.8-2.8l0,0
						C292.5,223.3,291.3,222,289.8,222z"/>
				</g>
				<g>
					<path class="st16" d="M288.3,222H144.5c-1.5,0-2.8,1.2-2.8,2.8l0,0c0,1.5,1.2,2.8,2.8,2.8h143.8c1.5,0,2.8-1.2,2.8-2.8l0,0
						C291,223.3,289.8,222,288.3,222z"/>
				</g>
			</g>
			<g>
				<g class="st19">
					<path class="st20" d="M235.7,76.4h-22.7c-1.5,0-2.8,1.2-2.8,2.8v0c0,1.5,1.2,2.8,2.8,2.8h22.7c1.5,0,2.8-1.2,2.8-2.8v0
						C238.4,77.6,237.2,76.4,235.7,76.4z"/>
				</g>
				<g>
					<path class="st16" d="M235,76.4h-22.7c-1.5,0-2.8,1.2-2.8,2.8v0c0,1.5,1.2,2.8,2.8,2.8H235c1.5,0,2.8-1.2,2.8-2.8v0
						C237.8,77.6,236.5,76.4,235,76.4z"/>
				</g>
			</g>
			<g>
				<g class="st19">
					<path class="st20" d="M185.9,63.6h-29.4c-1.5,0-2.8-1.2-2.8-2.8v0c0-1.5,1.2-2.8,2.8-2.8h29.4c1.5,0,2.8,1.2,2.8,2.8v0
						C188.6,62.4,187.4,63.6,185.9,63.6z"/>
				</g>
				<g>
					<path class="st14" d="M185.2,63.6h-29.4c-1.5,0-2.8-1.2-2.8-2.8v0c0-1.5,1.2-2.8,2.8-2.8h29.4c1.5,0,2.8,1.2,2.8,2.8v0
						C188,62.4,186.7,63.6,185.2,63.6z"/>
				</g>
			</g>
			<g>
				<g class="st19">
					<path class="st20" d="M260.9,136.7h-29.4c-1.5,0-2.8-1.2-2.8-2.8l0,0c0-1.5,1.2-2.8,2.8-2.8h29.4c1.5,0,2.8,1.2,2.8,2.8l0,0
						C263.7,135.5,262.5,136.7,260.9,136.7z"/>
				</g>
				<g>
					<path class="st14" d="M260.3,136.7h-29.4c-1.5,0-2.8-1.2-2.8-2.8l0,0c0-1.5,1.2-2.8,2.8-2.8h29.4c1.5,0,2.8,1.2,2.8,2.8l0,0
						C263,135.5,261.8,136.7,260.3,136.7z"/>
				</g>
			</g>
			<g>
				<g class="st19">
					<path class="st20" d="M292.2,127.3h-29.4c-1.5,0-2.8-1.2-2.8-2.8v0c0-1.5,1.2-2.8,2.8-2.8h29.4c1.5,0,2.8,1.2,2.8,2.8v0
						C295,126.1,293.7,127.3,292.2,127.3z"/>
				</g>
				<g>
					<path class="st14" d="M291.6,127.3h-29.4c-1.5,0-2.8-1.2-2.8-2.8v0c0-1.5,1.2-2.8,2.8-2.8h29.4c1.5,0,2.8,1.2,2.8,2.8v0
						C294.3,126.1,293.1,127.3,291.6,127.3z"/>
				</g>
			</g>
			<g>
				<g class="st19">
					<path class="st20" d="M317.7,191.5h-85.8c-1.5,0-2.8-1.2-2.8-2.8l0,0c0-1.5,1.2-2.8,2.8-2.8h85.8c1.5,0,2.8,1.2,2.8,2.8l0,0
						C320.5,190.2,319.2,191.5,317.7,191.5z"/>
				</g>
				<g>
					<path class="st14" d="M316.7,191.5h-85.8c-1.5,0-2.8-1.2-2.8-2.8l0,0c0-1.5,1.2-2.8,2.8-2.8h85.8c1.5,0,2.8,1.2,2.8,2.8l0,0
						C319.4,190.2,318.2,191.5,316.7,191.5z"/>
				</g>
			</g>
			<g>
				<g class="st19">
					<path class="st20" d="M231.4,199.9h-85.8c-1.5,0-2.8-1.2-2.8-2.8v0c0-1.5,1.2-2.8,2.8-2.8h85.8c1.5,0,2.8,1.2,2.8,2.8v0
						C234.2,198.6,233,199.9,231.4,199.9z"/>
				</g>
				<g>
					<path class="st14" d="M230.4,199.9h-85.8c-1.5,0-2.8-1.2-2.8-2.8v0c0-1.5,1.2-2.8,2.8-2.8h85.8c1.5,0,2.8,1.2,2.8,2.8v0
						C233.2,198.6,231.9,199.9,230.4,199.9z"/>
				</g>
			</g>
			<g>
				<g class="st19">
					<path class="st20" d="M245.1,36h-99.1c-1.5,0-2.8-1.2-2.8-2.8v0c0-1.5,1.2-2.8,2.8-2.8h99.1c1.5,0,2.8,1.2,2.8,2.8v0
						C247.9,34.8,246.6,36,245.1,36z"/>
				</g>
				<g>
					<path class="st12" d="M244.4,36h-99.1c-1.5,0-2.8-1.2-2.8-2.8v0c0-1.5,1.2-2.8,2.8-2.8h99.1c1.5,0,2.8,1.2,2.8,2.8v0
						C247.1,34.8,245.9,36,244.4,36z"/>
				</g>
			</g>
			<g>
				<g class="st19">
					<path class="st20" d="M288.8,54.5h-40.9c-1.5,0-2.8-1.2-2.8-2.8v0c0-1.5,1.2-2.8,2.8-2.8h40.9c1.5,0,2.8,1.2,2.8,2.8v0
						C291.5,53.3,290.3,54.5,288.8,54.5z"/>
				</g>
				<g>
					<path class="st12" d="M288.3,54.5h-40.9c-1.5,0-2.8-1.2-2.8-2.8v0c0-1.5,1.2-2.8,2.8-2.8h40.9c1.5,0,2.8,1.2,2.8,2.8v0
						C291,53.3,289.8,54.5,288.3,54.5z"/>
				</g>
			</g>
			<g>
				<g class="st19">
					<path class="st20" d="M319.7,26.8H146.2c-1.5,0-2.8-1.2-2.8-2.8v0c0-1.5,1.2-2.8,2.8-2.8h173.5c1.5,0,2.8,1.2,2.8,2.8v0
						C322.5,25.6,321.2,26.8,319.7,26.8z"/>
				</g>
				<g>
					<path class="st12" d="M318.8,26.8H145.3c-1.5,0-2.8-1.2-2.8-2.8v0c0-1.5,1.2-2.8,2.8-2.8h173.5c1.5,0,2.8,1.2,2.8,2.8v0
						C321.6,25.6,320.4,26.8,318.8,26.8z"/>
				</g>
			</g>
			<g>
				<g class="st19">
					<path class="st20" d="M222.4,199.9h-25.8c-1.5,0-2.8-1.2-2.8-2.8v0c0-1.5,1.2-2.8,2.8-2.8h25.8c1.5,0,2.8,1.2,2.8,2.8v0
						C225.2,198.6,223.9,199.9,222.4,199.9z"/>
				</g>
				<g>
					<path class="st12" d="M222.1,199.9h-25.8c-1.5,0-2.8-1.2-2.8-2.8v0c0-1.5,1.2-2.8,2.8-2.8h25.8c1.5,0,2.8,1.2,2.8,2.8v0
						C224.8,198.6,223.6,199.9,222.1,199.9z"/>
				</g>
			</g>
			<g>
				<g class="st19">
					<path class="st20" d="M274.5,209.5h-25.8c-1.5,0-2.8-1.2-2.8-2.8l0,0c0-1.5,1.2-2.8,2.8-2.8h25.8c1.5,0,2.8,1.2,2.8,2.8v0
						C277.2,208.3,276,209.5,274.5,209.5z"/>
				</g>
				<g>
					<path class="st13" d="M274.1,209.5h-25.8c-1.5,0-2.8-1.2-2.8-2.8l0,0c0-1.5,1.2-2.8,2.8-2.8h25.8c1.5,0,2.8,1.2,2.8,2.8v0
						C276.9,208.3,275.6,209.5,274.1,209.5z"/>
				</g>
			</g>
			<g>
				<g class="st19">
					<path class="st20" d="M310.7,118h-73.5c-1.5,0-2.8-1.2-2.8-2.8l0,0c0-1.5,1.2-2.8,2.8-2.8h73.5c1.5,0,2.8,1.2,2.8,2.8l0,0
						C313.5,116.8,312.2,118,310.7,118z"/>
				</g>
				<g>
					<path class="st12" d="M310.1,118h-73.5c-1.5,0-2.8-1.2-2.8-2.8l0,0c0-1.5,1.2-2.8,2.8-2.8h73.5c1.5,0,2.8,1.2,2.8,2.8l0,0
						C312.9,116.8,311.7,118,310.1,118z"/>
				</g>
			</g>
			<g>
				<g class="st19">
					<path class="st20" d="M179,118h-34c-1.5,0-2.8-1.2-2.8-2.8l0,0c0-1.5,1.2-2.8,2.8-2.8h34c1.5,0,2.8,1.2,2.8,2.8l0,0
						C181.7,116.8,180.5,118,179,118z"/>
				</g>
				<g>
					<path class="st12" d="M178.6,118h-34c-1.5,0-2.8-1.2-2.8-2.8l0,0c0-1.5,1.2-2.8,2.8-2.8h34c1.5,0,2.8,1.2,2.8,2.8l0,0
						C181.3,116.8,180.1,118,178.6,118z"/>
				</g>
			</g>
			<g>
				<g class="st19">
					<path class="st20" d="M309,109H145.4c-1.5,0-2.8-1.2-2.8-2.8v0c0-1.5,1.2-2.8,2.8-2.8H309c1.5,0,2.8,1.2,2.8,2.8v0
						C311.8,107.8,310.5,109,309,109z"/>
				</g>
				<g>
					<path class="st12" d="M308.2,109H144.6c-1.5,0-2.8-1.2-2.8-2.8v0c0-1.5,1.2-2.8,2.8-2.8h163.6c1.5,0,2.8,1.2,2.8,2.8v0
						C310.9,107.8,309.7,109,308.2,109z"/>
				</g>
			</g>
		</g>
		<g class="st21">
			<rect x="354.4" y="27.1" width="90.6" height="3.6"/>
			<rect x="354.4" y="32.9" width="36.4" height="3.6"/>
			<rect x="420.4" y="38" width="32.7" height="1.8"/>
		</g>
		<g class="st21">
			<rect x="354.4" y="55.2" width="90.6" height="3.6"/>
			<rect x="354.4" y="61" width="36.4" height="3.6"/>
			<rect x="420.4" y="66.2" width="32.7" height="1.8"/>
		</g>
		<g class="st21">
			<rect x="354.4" y="83.8" width="90.6" height="3.6"/>
			<rect x="354.4" y="89.6" width="36.4" height="3.6"/>
			<rect x="420.4" y="94.8" width="32.7" height="1.8"/>
		</g>
		<g class="st21">
			<rect x="354.4" y="112" width="90.6" height="3.6"/>
			<rect x="354.4" y="117.8" width="36.4" height="3.6"/>
			<rect x="420.4" y="122.9" width="32.7" height="1.8"/>
		</g>
		<g class="st21">
			<rect x="354.4" y="140.6" width="90.6" height="3.6"/>
			<rect x="354.4" y="146.4" width="36.4" height="3.6"/>
			<rect x="420.4" y="151.5" width="32.7" height="1.8"/>
		</g>
		<g class="st21">
			<rect x="354.4" y="169.2" width="90.6" height="3.6"/>
			<rect x="354.4" y="175" width="36.4" height="3.6"/>
			<rect x="420.4" y="180.2" width="32.7" height="1.8"/>
		</g>
		<g class="st21">
			<rect x="354.4" y="197.8" width="90.6" height="3.6"/>
			<rect x="354.4" y="203.6" width="36.4" height="3.6"/>
			<rect x="420.4" y="208.8" width="32.7" height="1.8"/>
		</g>
		<g class="st21">
			<rect x="354.4" y="226" width="90.6" height="3.6"/>
			<rect x="354.4" y="231.8" width="36.4" height="3.6"/>
			<rect x="420.4" y="236.9" width="32.7" height="1.8"/>
		</g>
		<g class="st21">
			<rect x="354.4" y="252.1" width="90.6" height="3.6"/>
			<rect x="354.4" y="257.9" width="36.4" height="3.6"/>
			<rect x="420.4" y="263" width="32.7" height="1.8"/>
		</g>
	</g>
	<line class="st22" x1="112.8" y1="9.1" x2="112.8" y2="252.4"/>
	<line class="st22" x1="344" y1="9.1" x2="344" y2="252.4"/>
	<g class="st23">
		<path d="M355.5,95.7c-0.1-0.1-0.1-0.1-0.2-0.1c-0.1,0-0.1,0-0.2,0.1c-0.1,0.1-0.1,0.1-0.1,0.2c0,0.1,0,0.1,0,0.1
			c0,0,0.1,0.1,0.1,0.1v2.7c0,0,0,0,0,0c0,0,0,0,0,0h0.1c0,0,0,0,0,0c0,0,0,0,0,0v-2.7c0,0,0.1-0.1,0.1-0.1c0,0,0-0.1,0-0.1
			C355.6,95.8,355.6,95.8,355.5,95.7z"/>
		<path class="st24" d="M358.8,95.9c0,0-0.1,0-0.1,0c0,0,0,0-0.1,0c-0.3,0.2-0.5,0.2-0.7,0.2c-0.1,0-0.1,0-0.2,0
			c-0.2-0.1-0.3-0.1-0.4-0.2c-0.1,0-0.3-0.1-0.4-0.1c-0.1,0-0.2,0-0.3,0c-0.1,0-0.2,0.1-0.3,0.1c-0.1,0-0.2,0.1-0.2,0.1c0,0,0,0,0,0
			c0,0-0.1,0-0.1,0.1c0,0-0.1,0.1-0.1,0.1V98c0,0.1,0,0.1,0.1,0.1c0,0,0,0,0.1,0c0,0,0,0,0.1,0c0,0,0,0,0,0c0.1-0.1,0.3-0.2,0.5-0.2
			c0.2-0.1,0.4-0.1,0.5-0.1c0.1,0,0.2,0,0.2,0c0.1,0,0.1,0,0.2,0.1c0.1,0,0.1,0.1,0.2,0.1l0.1,0c0.1,0.1,0.2,0.1,0.3,0.1
			c0.2,0,0.5-0.1,0.8-0.2c0,0,0,0,0,0c0.1,0,0.1-0.1,0.1-0.1V96C358.9,96,358.9,96,358.8,95.9z"/>
	</g>
	<g class="st23">
		<path d="M355.5,209.3c-0.1-0.1-0.1-0.1-0.2-0.1c-0.1,0-0.1,0-0.2,0.1s-0.1,0.1-0.1,0.2c0,0.1,0,0.1,0,0.1c0,0,0.1,0.1,0.1,0.1v2.7
			c0,0,0,0,0,0c0,0,0,0,0,0h0.1c0,0,0,0,0,0c0,0,0,0,0,0v-2.7c0,0,0.1-0.1,0.1-0.1c0,0,0-0.1,0-0.1
			C355.6,209.4,355.6,209.3,355.5,209.3z"/>
		<path class="st24" d="M358.8,209.5c0,0-0.1,0-0.1,0c0,0,0,0-0.1,0c-0.3,0.2-0.5,0.2-0.7,0.2c-0.1,0-0.1,0-0.2,0
			c-0.2-0.1-0.3-0.1-0.4-0.2c-0.1,0-0.3-0.1-0.4-0.1c-0.1,0-0.2,0-0.3,0c-0.1,0-0.2,0.1-0.3,0.1c-0.1,0-0.2,0.1-0.2,0.1c0,0,0,0,0,0
			c0,0-0.1,0-0.1,0.1c0,0-0.1,0.1-0.1,0.1v1.6c0,0.1,0,0.1,0.1,0.1c0,0,0,0,0.1,0c0,0,0,0,0.1,0c0,0,0,0,0,0
			c0.1-0.1,0.3-0.2,0.5-0.2c0.2-0.1,0.4-0.1,0.5-0.1c0.1,0,0.2,0,0.2,0c0.1,0,0.1,0,0.2,0.1c0.1,0,0.1,0.1,0.2,0.1l0.1,0
			c0.1,0.1,0.2,0.1,0.3,0.1c0.2,0,0.5-0.1,0.8-0.2c0,0,0,0,0,0c0.1,0,0.1-0.1,0.1-0.1v-1.6C358.9,209.5,358.9,209.5,358.8,209.5z"/>
	</g>
</g>
</svg>
